<svg width="44" height="44" viewBox="0 0 44 44" fill="none" xmlns="http://www.w3.org/2000/svg">
<rect width="44" height="44" rx="22" fill="#0097E7"/>
<path d="M21.9992 18.6099C21.0999 18.6099 20.2374 18.9671 19.6015 19.603C18.9655 20.239 18.6083 21.1015 18.6083 22.0008C18.6083 22.9001 18.9655 23.7626 19.6015 24.3985C20.2374 25.0345 21.0999 25.3917 21.9992 25.3917C22.8985 25.3917 23.761 25.0345 24.397 24.3985C25.0329 23.7626 25.3901 22.9001 25.3901 22.0008C25.3901 21.1015 25.0329 20.239 24.397 19.603C23.761 18.9671 22.8985 18.6099 21.9992 18.6099ZM21.9992 24.203C21.415 24.203 20.8546 23.9709 20.4415 23.5578C20.0284 23.1446 19.7963 22.5843 19.7963 22.0001C19.7963 21.4158 20.0284 20.8555 20.4415 20.4424C20.8546 20.0292 21.415 19.7971 21.9992 19.7971C22.5835 19.7971 23.1438 20.0292 23.5569 20.4424C23.97 20.8555 24.2021 21.4158 24.2021 22.0001C24.2021 22.5843 23.97 23.1446 23.5569 23.5578C23.1438 23.9709 22.5835 24.203 21.9992 24.203Z" fill="white"/>
<path d="M25.5244 19.2756C25.961 19.2756 26.3149 18.9217 26.3149 18.4851C26.3149 18.0485 25.961 17.6946 25.5244 17.6946C25.0878 17.6946 24.7338 18.0485 24.7338 18.4851C24.7338 18.9217 25.0878 19.2756 25.5244 19.2756Z" fill="white"/>
<path d="M28.2575 17.6813C28.0877 17.2429 27.8283 16.8448 27.4958 16.5124C27.1633 16.18 26.7651 15.9208 26.3266 15.7512C25.8135 15.5586 25.2715 15.4544 24.7236 15.4432C24.0174 15.4124 23.7937 15.4036 22.0029 15.4036C20.2121 15.4036 19.9826 15.4036 19.2822 15.4432C18.7347 15.4538 18.1931 15.558 17.6806 15.7512C17.242 15.9206 16.8437 16.1798 16.5112 16.5122C16.1787 16.8446 15.9193 17.2428 15.7498 17.6813C15.5571 18.1943 15.4532 18.7364 15.4425 19.2844C15.411 19.9898 15.4014 20.2135 15.4014 22.005C15.4014 23.7958 15.4014 24.0239 15.4425 24.7257C15.4535 25.2742 15.5569 25.8154 15.7498 26.3295C15.9198 26.7679 16.1794 27.1659 16.512 27.4983C16.8446 27.8306 17.2429 28.0899 17.6814 28.2596C18.1928 28.46 18.7347 28.5716 19.2837 28.5896C19.9899 28.6204 20.2136 28.63 22.0044 28.63C23.7952 28.63 24.0247 28.63 24.725 28.5896C25.2729 28.5785 25.8149 28.4746 26.3281 28.2824C26.7664 28.1124 27.1646 27.8529 27.497 27.5204C27.8295 27.188 28.089 26.7899 28.259 26.3515C28.4518 25.8382 28.5552 25.297 28.5662 24.7484C28.5978 24.043 28.6073 23.8193 28.6073 22.0278C28.6073 20.2362 28.6073 20.0089 28.5662 19.3071C28.5577 18.7514 28.4532 18.2014 28.2575 17.6813ZM27.3643 24.6714C27.3596 25.0941 27.2824 25.5127 27.1362 25.9093C27.0261 26.1945 26.8575 26.4534 26.6413 26.6695C26.4251 26.8856 26.166 27.0541 25.8808 27.164C25.4886 27.3096 25.0744 27.3867 24.6561 27.3921C23.9594 27.4244 23.7629 27.4324 21.9765 27.4324C20.1886 27.4324 20.006 27.4324 19.2962 27.3921C18.8781 27.387 18.4641 27.3098 18.0722 27.164C17.786 27.0548 17.5259 26.8866 17.3087 26.6705C17.0916 26.4543 16.9222 26.195 16.8116 25.9093C16.6675 25.517 16.5904 25.1032 16.5836 24.6854C16.552 23.9887 16.5447 23.7922 16.5447 22.0058C16.5447 20.2186 16.5447 20.036 16.5836 19.3254C16.5883 18.903 16.6654 18.4846 16.8116 18.0883C17.0353 17.5097 17.4936 17.0543 18.0722 16.8328C18.4643 16.6877 18.8782 16.6106 19.2962 16.6048C19.9936 16.5732 20.1894 16.5644 21.9765 16.5644C23.7636 16.5644 23.947 16.5644 24.6561 16.6048C25.0744 16.6098 25.4887 16.6869 25.8808 16.8328C26.166 16.943 26.425 17.1116 26.6412 17.3279C26.8574 17.5441 27.026 17.8031 27.1362 18.0883C27.2804 18.4806 27.3575 18.8943 27.3643 19.3122C27.3958 20.0096 27.4039 20.2054 27.4039 21.9926C27.4039 23.779 27.4039 23.9711 27.3724 24.6722H27.3643V24.6714Z" fill="white"/>
</svg>
