<svg width="44" height="44" viewBox="0 0 44 44" fill="none" xmlns="http://www.w3.org/2000/svg">
<rect width="44" height="44" rx="22" fill="#0097E7"/>
<path d="M16.8541 18.4779C17.7403 18.4779 18.4587 17.7595 18.4587 16.8733C18.4587 15.9872 17.7403 15.2688 16.8541 15.2688C15.968 15.2688 15.2496 15.9872 15.2496 16.8733C15.2496 17.7595 15.968 18.4779 16.8541 18.4779Z" fill="white"/>
<path d="M19.9737 19.6936V28.5956H22.7377V24.1934C22.7377 23.0318 22.9562 21.9068 24.3965 21.9068C25.8169 21.9068 25.8345 23.2349 25.8345 24.2667V28.5963H28.5999V23.7145C28.5999 21.3165 28.0837 19.4736 25.2809 19.4736C23.9352 19.4736 23.0332 20.2121 22.6643 20.911H22.6269V19.6936H19.9737ZM15.4696 19.6936H18.2379V28.5956H15.4696V19.6936Z" fill="white"/>
</svg>
