<svg width="177" height="147" viewBox="0 0 177 147" fill="none" xmlns="http://www.w3.org/2000/svg">
<path d="M15 30C15 24.3995 15 21.5992 16.0899 19.4601C17.0487 17.5785 18.5785 16.0487 20.4601 15.0899C22.5992 14 25.3995 14 31 14H69.2762C71.7291 14 72.9555 14 74.1093 14.2778C75.1322 14.524 76.1098 14.9302 77.0061 15.4812C78.0171 16.1027 78.8825 16.9718 80.6134 18.7098L109.337 47.5531C111.058 49.2812 111.919 50.1453 112.534 51.1527C113.08 52.0458 113.481 53.0191 113.725 54.0369C114 55.1849 114 56.4043 114 58.8433V128C114 133.601 114 136.401 112.91 138.54C111.951 140.422 110.422 141.951 108.54 142.91C106.401 144 103.601 144 98 144H31C25.3995 144 22.5992 144 20.4601 142.91C18.5785 141.951 17.0487 140.422 16.0899 138.54C15 136.401 15 133.601 15 128V30Z" fill="#F2F2F2" stroke="#0097E7" stroke-width="6"/>
<path d="M41 19C41 13.3995 41 10.5992 42.0899 8.46009C43.0487 6.57847 44.5785 5.04867 46.4601 4.08993C48.5992 3 51.3995 3 57 3H99.2072C101.574 3 102.758 3 103.876 3.26008C104.867 3.4907 105.818 3.87132 106.694 4.38879C107.683 4.97235 108.539 5.7894 110.252 7.42351L141.045 36.8017C142.872 38.5448 143.785 39.4163 144.439 40.4454C145.019 41.3576 145.447 42.3577 145.707 43.407C146 44.5906 146 45.8531 146 48.3782V118C146 123.601 146 126.401 144.91 128.54C143.951 130.422 142.422 131.951 140.54 132.91C138.401 134 135.601 134 130 134H57C51.3995 134 48.5992 134 46.4601 132.91C44.5785 131.951 43.0487 130.422 42.0899 128.54C41 126.401 41 123.601 41 118V19Z" fill="#F2F2F2" stroke="#0097E7" stroke-width="6"/>
<path d="M99 3V47.6C99 48.4401 99 48.8601 99.1635 49.181C99.3073 49.4632 99.5368 49.6927 99.819 49.8365C100.14 50 100.56 50 101.4 50H146" stroke="#0097E7" stroke-width="6"/>
<path d="M62 97L99 97" stroke="#0097E7" stroke-width="6" stroke-linecap="round"/>
<path d="M62 107L83 107" stroke="#0097E7" stroke-width="6" stroke-linecap="round"/>
<rect x="3" y="43" width="72" height="35" rx="7" fill="#F2F2F2" stroke="#0097E7" stroke-width="6" stroke-linejoin="round"/>
<path d="M22.2 69H25.06V64.2H26.66C29.86 64.2 31.76 62.24 31.76 59.6C31.76 56.96 29.86 55 26.66 55H22.2V69ZM25.06 61.54V57.66H26.66C28.26 57.66 28.86 58.54 28.86 59.6C28.86 60.66 28.26 61.54 26.66 61.54H25.06ZM33.6648 69H37.7248C42.1048 69 45.5848 66.4 45.5848 62C45.5848 57.58 42.1048 55 37.7248 55H33.6648V69ZM36.5248 66.32V57.66H37.7248C40.5048 57.66 42.7048 59.18 42.7048 62C42.7048 64.8 40.5048 66.32 37.7248 66.32H36.5248ZM47.3758 69H50.2158V63.32H55.2358V60.66H50.2158V57.66H55.7558V55H47.3758V69Z" fill="#0097E7"/>
<circle cx="145.5" cy="107.5" r="28.5" fill="#F2F2F2" stroke="#0097E7" stroke-width="6"/>
<path d="M145.5 123L143.707 125.405L145.5 126.742L147.293 125.405L145.5 123ZM148.5 97C148.5 95.3431 147.157 94 145.5 94C143.843 94 142.5 95.3431 142.5 97L148.5 97ZM128.207 113.85L143.707 125.405L147.293 120.595L131.793 109.039L128.207 113.85ZM147.293 125.405L162.793 113.85L159.207 109.039L143.707 120.595L147.293 125.405ZM148.5 123L148.5 97L142.5 97L142.5 123L148.5 123Z" fill="#0097E7"/>
</svg>
