<svg width="44" height="44" viewBox="0 0 44 44" fill="none" xmlns="http://www.w3.org/2000/svg">
<rect width="44" height="44" rx="22" fill="#0097E7"/>
<path d="M27.5975 19.0644C27.607 19.1928 27.607 19.3204 27.607 19.448C27.607 23.353 24.6348 27.8527 19.203 27.8527C17.5296 27.8527 15.9749 27.368 14.6666 26.5261C14.9042 26.5532 15.133 26.5628 15.3802 26.5628C16.7097 26.566 18.0016 26.1214 19.0476 25.3007C18.4311 25.2895 17.8336 25.0862 17.3383 24.719C16.8431 24.3518 16.4749 23.8391 16.2851 23.2525C16.4677 23.2796 16.651 23.298 16.8432 23.298C17.1079 23.298 17.3741 23.2613 17.6212 23.1975C16.9523 23.0624 16.3507 22.6998 15.9189 22.1713C15.4871 21.6428 15.2516 20.9811 15.2526 20.2986V20.262C15.6464 20.4812 16.1032 20.6184 16.5872 20.6367C16.1818 20.3672 15.8493 20.0016 15.6195 19.5725C15.3897 19.1433 15.2697 18.6639 15.2702 18.1771C15.2702 17.6286 15.4161 17.1255 15.672 16.687C16.4143 17.6 17.34 18.3469 18.3893 18.8794C19.4385 19.4118 20.588 19.718 21.7631 19.778C21.7176 19.558 21.6898 19.3299 21.6898 19.1011C21.6896 18.7131 21.7658 18.3289 21.9142 17.9705C22.0626 17.612 22.2802 17.2863 22.5545 17.012C22.8288 16.7376 23.1545 16.5201 23.513 16.3717C23.8715 16.2233 24.2557 16.147 24.6436 16.1472C25.4943 16.1472 26.2621 16.5036 26.8018 17.08C27.4631 16.9521 28.0973 16.7107 28.6762 16.3665C28.4558 17.0491 27.9941 17.6279 27.3775 17.9945C27.964 17.9276 28.5372 17.7733 29.0781 17.5369C28.6741 18.1258 28.1735 18.6423 27.5975 19.0644Z" fill="white"/>
</svg>
