<svg width="369" height="381" viewBox="0 0 369 381" fill="none" xmlns="http://www.w3.org/2000/svg">
<path d="M350.881 206.119C370.626 172.096 353.922 142.396 314.572 141.636C292.366 109.434 271.02 89.3802 258.817 89.3602C258.762 89.3472 258.704 89.3469 258.648 89.3594C258.592 89.3719 258.539 89.3969 258.495 89.4325C258.45 89.4681 258.413 89.5134 258.388 89.565C258.364 89.6166 258.351 89.6732 258.351 89.7305C258.351 89.7878 258.364 89.8443 258.388 89.8959C258.413 89.9475 258.45 89.9928 258.495 90.0284C258.539 90.064 258.592 90.089 258.648 90.1015C258.704 90.1141 258.762 90.1138 258.817 90.1007H259.838C267.44 93.5431 274.821 103.37 262.438 113.937C259.081 116.586 255.281 118.618 251.215 119.941C251.176 119.861 251.111 119.797 251.03 119.761C250.949 119.725 250.858 119.718 250.772 119.741C250.687 119.765 250.612 119.818 250.561 119.891C250.511 119.964 250.487 120.053 250.495 120.141C261.498 175.178 318.073 267.16 351.241 282.971L247.114 262.797C246.394 262.497 245.634 262.137 244.814 261.697C244.764 261.674 244.71 261.661 244.656 261.66C244.601 261.659 244.547 261.669 244.496 261.69C244.445 261.71 244.4 261.741 244.361 261.78C244.323 261.819 244.293 261.866 244.274 261.917C243.893 262.917 243.513 263.918 243.093 265.039C243.07 265.113 243.069 265.192 243.092 265.266C243.115 265.34 243.159 265.406 243.22 265.454C243.281 265.502 243.356 265.53 243.433 265.534C243.51 265.539 243.587 265.52 243.653 265.479L247.074 263.478L355.402 284.592C358.037 285.471 360.912 285.277 363.404 284.052C374.147 278.108 369.126 246.767 350.881 206.119ZM311.551 243.124C291.725 216.231 275.271 187.006 262.558 156.105C280.883 146.359 300.408 141.575 317.593 142.596C353.242 144.738 368.286 171.396 351.601 203.037C342.939 219.548 327.835 233.418 311.551 243.124Z" fill="#3B29AB"/>
<path d="M253.596 355.4L226.449 306.487C226.399 306.399 226.315 306.335 226.218 306.309C226.12 306.283 226.016 306.296 225.929 306.347C225.841 306.397 225.777 306.48 225.751 306.578C225.725 306.675 225.738 306.78 225.789 306.867L252.936 355.68C253.975 357.545 254.283 359.731 253.798 361.811C253.314 363.89 252.072 365.715 250.315 366.928C243.239 371.844 235.694 376.047 227.789 379.476C225.832 380.329 223.628 380.421 221.607 379.732C219.586 379.044 217.896 377.625 216.866 375.754L176.456 303.105L212.125 283.091C212.194 283.062 212.253 283.013 212.294 282.951C212.335 282.889 212.357 282.816 212.357 282.741C212.357 282.666 212.335 282.593 212.294 282.531C212.253 282.468 212.194 282.42 212.125 282.391C215.766 269.062 220.727 250.629 221.328 248.167C220.027 241.603 217.066 226.613 215.746 220.028L212.385 219.688L211.145 222.93L208.104 222.43L196.341 246.626C194.351 250.72 190.856 253.885 186.586 255.459C182.317 257.033 177.605 256.895 173.435 255.072L142.807 240.302C142.842 240.23 142.853 240.149 142.838 240.07C142.824 239.992 142.785 239.92 142.728 239.864C142.67 239.809 142.597 239.773 142.517 239.762C142.438 239.751 142.358 239.765 142.287 239.802L122.742 250.809C102.217 262.377 100.736 283.671 108.138 298.842C88.1192 297.667 69.0521 289.895 53.9135 276.738C38.775 263.581 28.417 245.779 24.4566 226.113C29.784 225.605 34.7481 223.187 38.4324 219.304C42.1168 215.421 44.2725 210.336 44.5017 204.987C44.7309 199.638 43.018 194.387 39.6793 190.203C36.3406 186.019 31.6016 183.184 26.3371 182.223C30.0731 169.617 36.4929 157.97 45.1553 148.082C53.8177 138.194 64.5173 130.3 76.5188 124.941C88.5204 119.582 101.539 116.887 114.681 117.039C127.823 117.192 140.776 120.189 152.65 125.825C152.695 125.855 152.747 125.875 152.801 125.884C152.855 125.893 152.91 125.89 152.963 125.875C153.015 125.86 153.064 125.835 153.106 125.799C153.148 125.764 153.182 125.72 153.205 125.671C153.228 125.621 153.241 125.567 153.241 125.512C153.242 125.458 153.23 125.403 153.208 125.354C153.186 125.304 153.153 125.259 153.112 125.223C153.071 125.187 153.022 125.16 152.97 125.144C140.991 119.458 127.923 116.436 114.665 116.286C101.407 116.135 88.274 118.86 76.1695 124.273C64.0649 129.686 53.2763 137.658 44.546 147.641C35.8157 157.625 29.3511 169.381 25.5969 182.103C22.5141 181.62 19.3641 181.793 16.3529 182.612C13.3418 183.43 10.5373 184.876 8.12302 186.853C5.70873 188.831 3.73904 191.296 2.3428 194.088C0.946569 196.88 0.155256 199.935 0.0206383 203.054C-0.11398 206.173 0.41113 209.285 1.56161 212.186C2.7121 215.088 4.46202 217.714 6.69691 219.893C8.9318 222.071 11.6013 223.753 14.5307 224.828C17.4601 225.904 20.5835 226.348 23.6964 226.133C27.7172 246.04 38.2371 264.046 53.6022 277.319C68.9672 290.593 88.306 298.382 108.578 299.462C114.1 310.169 125.103 319.075 138.986 319.075C144.203 319.03 149.351 317.877 154.09 315.693L175.756 303.545L216.166 376.214C217.295 378.24 219.138 379.772 221.335 380.512C223.532 381.253 225.926 381.147 228.049 380.217C236.008 376.784 243.601 372.56 250.715 367.608C252.627 366.296 253.981 364.318 254.514 362.061C255.046 359.804 254.719 357.429 253.596 355.4ZM26.057 182.963C31.16 183.874 35.7596 186.605 39.0016 190.652C42.2437 194.698 43.9081 199.783 43.6857 204.964C43.4633 210.145 41.3692 215.069 37.7924 218.822C34.2155 222.576 29.3988 224.903 24.2365 225.372C21.5166 211.288 22.1402 196.762 26.057 182.963ZM153.77 315.053C113.04 333.225 84.5121 273.204 123.102 251.47L126.823 249.368C125.003 267.04 138.006 300.022 160.392 311.41L153.77 315.053Z" fill="#3B29AB"/>
<path d="M188.979 113.076C188.439 113.336 187.839 113.617 187.199 113.877C164.553 123.303 144.628 128.367 105.578 135.992C106.418 135.792 107.378 136.412 108.338 137.633C113.56 144.237 115.74 162.109 111.659 163.03C136.966 158.387 164.573 151.942 188.219 141.495C192.34 147.62 200.342 154.844 201.242 162.37C211.725 164.751 224.388 164.371 230.89 160.108C233.891 140.255 232.891 131.088 230.41 125.505C238.872 124.296 247.134 121.96 254.976 118.56C257.67 117.426 260.179 115.895 262.418 114.017C277.042 101.548 264.139 90.1007 255.817 88.98C242.213 87.1587 226.409 85.2775 226.409 85.2775C229.47 85.6977 231.11 92.2021 230.05 99.7672C228.99 107.332 225.669 113.156 222.608 112.736C220.607 112.456 219.247 109.654 218.807 105.651C216.906 106.051 214.966 106.412 213.005 106.752C213.005 106.752 222.528 121.482 213.846 124.764C206.284 127.666 188.979 113.076 188.979 113.076Z" fill="#FFD0C7"/>
<path d="M195.461 168.394C191.362 159.878 185.962 152.052 179.457 145.198C179.388 145.124 179.351 145.025 179.355 144.924C179.359 144.822 179.403 144.727 179.477 144.658C179.551 144.589 179.65 144.552 179.751 144.556C179.852 144.559 179.948 144.603 180.017 144.678C186.561 151.623 191.987 159.543 196.101 168.153C196.094 168.224 196.068 168.292 196.025 168.349C195.981 168.406 195.923 168.449 195.856 168.474C195.789 168.499 195.717 168.505 195.647 168.491C195.577 168.476 195.513 168.443 195.461 168.394Z" fill="#3B29AB"/>
<path d="M232.21 144.798L240.112 123.383C240.122 123.328 240.143 123.276 240.175 123.23C240.207 123.184 240.249 123.146 240.297 123.118C240.346 123.09 240.4 123.073 240.455 123.068C240.511 123.063 240.567 123.071 240.62 123.09C240.672 123.11 240.719 123.141 240.759 123.181C240.798 123.221 240.828 123.269 240.846 123.321C240.864 123.374 240.871 123.43 240.865 123.486C240.859 123.542 240.842 123.595 240.813 123.643L232.951 145.058C232.916 145.156 232.844 145.236 232.75 145.281C232.656 145.327 232.549 145.332 232.45 145.298C232.352 145.263 232.272 145.191 232.227 145.098C232.182 145.004 232.176 144.896 232.21 144.798Z" fill="#3B29AB"/>
<path d="M106.798 154.684C103.674 154.428 100.637 153.523 97.8813 152.028C95.1258 150.532 92.712 148.479 90.7938 145.998C90.7573 145.96 90.7293 145.914 90.7117 145.864C90.6941 145.813 90.6871 145.76 90.6914 145.707C90.6957 145.654 90.711 145.602 90.7364 145.556C90.7619 145.509 90.7968 145.468 90.839 145.436C90.8812 145.403 90.9298 145.38 90.9815 145.368C91.0332 145.355 91.0869 145.354 91.1392 145.363C91.1915 145.373 91.2412 145.394 91.2851 145.424C91.329 145.454 91.366 145.493 91.3939 145.538C93.2575 147.947 95.6057 149.938 98.2867 151.383C100.968 152.827 103.922 153.693 106.958 153.924C107.059 153.945 107.147 154.005 107.203 154.092C107.26 154.178 107.279 154.283 107.258 154.384C107.237 154.485 107.176 154.573 107.09 154.629C107.004 154.686 106.899 154.705 106.798 154.684Z" fill="#3B29AB"/>
<path d="M80.4111 309.969C79.5089 310.53 78.7451 311.287 78.177 312.185C77.6088 313.082 77.251 314.097 77.1302 315.153L75.5298 314.712C74.7765 314.492 73.9866 314.424 73.2066 314.513C72.4267 314.603 71.6726 314.847 70.9886 315.233C69.9685 315.817 69.1425 316.689 68.6131 317.739C68.0836 318.789 67.874 319.971 68.0104 321.139C68.1468 322.307 68.6231 323.41 69.3801 324.309C70.1372 325.209 71.1417 325.867 72.269 326.2L85.0123 329.803C85.0595 329.818 85.1094 329.823 85.1588 329.818C85.2082 329.813 85.256 329.797 85.2992 329.773C85.3424 329.749 85.3801 329.715 85.4099 329.676C85.4397 329.636 85.461 329.591 85.4724 329.542L89.0733 316.814C89.3811 315.679 89.3487 314.478 88.9803 313.361C88.6119 312.244 87.9236 311.26 87.0009 310.531C86.0782 309.802 84.9618 309.36 83.7903 309.26C82.6187 309.16 81.4437 309.407 80.4111 309.969ZM69.3482 322.998C68.8445 322.094 68.6202 321.062 68.7039 320.031C68.7876 318.999 69.1754 318.016 69.8183 317.206C70.4611 316.396 71.33 315.795 72.3148 315.479C73.2996 315.163 74.3559 315.147 75.3498 315.433L77.3503 315.993C77.4455 316.013 77.5447 315.998 77.6294 315.95C77.7141 315.902 77.7784 315.825 77.8104 315.733L78.3706 313.732C78.8401 312.517 79.7459 311.522 80.9106 310.942C82.0753 310.361 83.4148 310.236 84.6667 310.591C85.9186 310.947 86.9925 311.758 87.6782 312.864C88.3638 313.971 88.6116 315.294 88.3731 316.574L84.8722 328.962L72.509 325.46C71.8457 325.279 71.2248 324.968 70.6822 324.545C70.1397 324.123 69.6863 323.597 69.3482 322.998Z" fill="#3B29AB"/>
<path d="M329.056 118.36C328.434 117.555 327.589 116.953 326.626 116.629C325.663 116.304 324.625 116.273 323.644 116.538C322.663 116.804 321.783 117.354 321.115 118.119C320.446 118.885 320.019 119.831 319.888 120.839C319.757 121.847 319.927 122.872 320.377 123.783C320.828 124.694 321.538 125.452 322.418 125.959C323.299 126.467 324.31 126.703 325.324 126.636C326.338 126.569 327.309 126.203 328.115 125.585C329.195 124.749 329.9 123.52 330.076 122.166C330.253 120.812 329.886 119.444 329.056 118.36ZM327.655 124.984C326.966 125.517 326.134 125.834 325.265 125.893C324.396 125.953 323.529 125.753 322.773 125.319C322.018 124.886 321.408 124.237 321.021 123.457C320.634 122.676 320.487 121.798 320.599 120.933C320.711 120.069 321.077 119.258 321.651 118.602C322.224 117.946 322.98 117.475 323.821 117.249C324.662 117.022 325.552 117.051 326.377 117.331C327.202 117.61 327.925 118.129 328.455 118.82C329.152 119.742 329.458 120.9 329.309 122.046C329.159 123.192 328.565 124.233 327.655 124.944V124.984Z" fill="#3B29AB"/>
<path d="M195.801 174.398C195.7 174.398 195.603 174.358 195.532 174.286C195.461 174.215 195.421 174.118 195.421 174.017C195.421 173.917 195.461 173.82 195.532 173.749C195.603 173.677 195.7 173.637 195.801 173.637C203.943 173.637 207.084 168.774 207.124 168.714C207.182 168.641 207.265 168.593 207.357 168.577C207.449 168.561 207.543 168.58 207.622 168.629C207.701 168.679 207.759 168.755 207.785 168.845C207.811 168.934 207.804 169.03 207.764 169.114C207.624 169.354 204.383 174.398 195.801 174.398Z" fill="#3B29AB"/>
<path d="M85.2523 89.08L76.4101 93.0827L72.409 84.2167C72.3666 84.1238 72.289 84.0516 72.1933 84.0159C72.0976 83.9803 71.9917 83.9841 71.8989 84.0266C71.806 84.069 71.7339 84.1466 71.6982 84.2424C71.6626 84.3381 71.6664 84.444 71.7088 84.5369L75.7099 93.4029L66.8676 97.4056C66.8152 97.4213 66.7668 97.4481 66.7257 97.4842C66.6846 97.5203 66.6517 97.5648 66.6294 97.6148C66.6071 97.6647 66.5958 97.7189 66.5963 97.7736C66.5969 97.8284 66.6092 97.8823 66.6325 97.9318C66.6558 97.9814 66.6895 98.0253 66.7313 98.0605C66.7731 98.0958 66.822 98.1217 66.8747 98.1363C66.9274 98.151 66.9827 98.154 67.0367 98.1454C67.0907 98.1367 67.1422 98.1165 67.1877 98.0861L76.03 94.0833L80.031 102.929C80.0425 102.985 80.0663 103.037 80.1006 103.082C80.1349 103.127 80.1789 103.164 80.2293 103.19C80.2796 103.216 80.3352 103.23 80.3918 103.232C80.4484 103.234 80.5047 103.223 80.5566 103.2C80.6084 103.177 80.6545 103.143 80.6914 103.1C80.7283 103.057 80.7552 103.006 80.77 102.951C80.7848 102.897 80.7872 102.839 80.777 102.784C80.7669 102.728 80.7444 102.675 80.7112 102.629L76.7101 93.7631L85.5724 89.7604C85.6481 89.7098 85.7031 89.6338 85.7274 89.546C85.7518 89.4583 85.7439 89.3648 85.7051 89.2824C85.6664 89.2 85.5994 89.1343 85.5163 89.0971C85.4332 89.06 85.3395 89.0539 85.2523 89.08Z" fill="#3B29AB"/>
<path d="M251.675 23.4957L236.692 17.7318C236.62 17.704 236.542 17.6984 236.468 17.7155C236.393 17.7327 236.326 17.772 236.274 17.8281C236.222 17.8843 236.188 17.9549 236.177 18.0305C236.166 18.1062 236.178 18.1834 236.211 18.2522L238.732 23.7759C233.291 27.0982 224.268 30.8607 221.848 24.9567C221.608 24.3763 220.907 24.6565 221.148 25.2369C223.548 31.241 227.869 35.2437 234.511 35.2437C237.454 35.1811 240.351 34.4992 243.013 33.2423L245.714 39.2464C245.743 39.3152 245.792 39.3739 245.854 39.4152C245.916 39.4565 245.989 39.4785 246.064 39.4785C246.139 39.4785 246.212 39.4565 246.274 39.4152C246.336 39.3739 246.385 39.3152 246.414 39.2464L251.895 24.1362C251.953 24.0897 251.995 24.0266 252.015 23.9555C252.036 23.8844 252.034 23.8088 252.01 23.7388C251.986 23.6689 251.941 23.608 251.881 23.5645C251.821 23.521 251.749 23.497 251.675 23.4957ZM246.114 37.9655L243.653 32.5418C243.592 32.4445 243.494 32.3754 243.382 32.3492C243.27 32.323 243.152 32.3419 243.053 32.4018C242.273 32.782 235.811 35.804 229.91 33.6026C227.131 32.5116 224.819 30.4881 223.368 27.8787C227.549 30.5405 235.371 26.878 239.512 24.2362C239.672 24.1362 239.732 23.956 239.512 23.6558L237.272 18.7725L251.055 24.0761L246.114 37.9655Z" fill="#3B29AB"/>
<path d="M236.472 57.0384C230.017 57.0143 223.762 54.8 218.73 50.7575C213.697 46.715 210.185 41.0837 208.767 34.7846C207.349 28.4855 208.109 21.8914 210.924 16.0811C213.739 10.2707 218.442 5.58782 224.263 2.79848C230.083 0.00914548 236.678 -0.721589 242.968 0.725802C249.258 2.17319 254.871 5.71304 258.888 10.7663C262.906 15.8196 265.091 22.0873 265.085 28.5441C265.079 35.001 262.884 41.2648 258.857 46.3111C256.178 49.6741 252.772 52.3862 248.895 54.2441C245.018 56.102 240.77 57.0573 236.472 57.0384ZM236.472 0.780357C229.919 0.774859 223.576 3.09124 218.568 7.31869C213.56 11.5461 210.21 17.4114 209.113 23.8743C208.015 30.3372 209.242 36.9801 212.574 42.6247C215.906 48.2693 221.129 52.5508 227.316 54.71C233.503 56.8692 240.254 56.7664 246.373 54.42C252.491 52.0735 257.582 47.635 260.741 41.8916C263.9 36.1483 264.923 29.4712 263.63 23.0447C262.337 16.6182 258.81 10.8575 253.676 6.78441C248.797 2.914 242.758 0.799099 236.532 0.780357H236.472Z" fill="#3B29AB"/>
<path d="M311.111 320.356C311.095 319.406 310.702 318.501 310.02 317.841C309.337 317.18 308.42 316.818 307.47 316.834C306.52 316.85 305.616 317.242 304.955 317.926C304.295 318.609 303.933 319.526 303.949 320.476L294.387 319.276C294.289 318.358 293.844 317.513 293.142 316.915C292.441 316.316 291.536 316.01 290.615 316.058C289.695 316.107 288.828 316.507 288.193 317.177C287.559 317.846 287.205 318.733 287.205 319.656C287.205 320.578 287.559 321.466 288.193 322.135C288.828 322.804 289.695 323.204 290.615 323.253C291.536 323.302 292.441 322.995 293.142 322.397C293.844 321.798 294.289 320.953 294.387 320.036L303.949 321.237C304.081 322.066 304.507 322.819 305.149 323.358L300.808 330.843C299.934 330.552 298.981 330.607 298.146 330.997C297.311 331.387 296.657 332.083 296.319 332.941C295.982 333.799 295.986 334.753 296.33 335.609C296.675 336.464 297.334 337.154 298.173 337.537C299.011 337.921 299.964 337.968 300.836 337.669C301.708 337.371 302.432 336.749 302.86 335.932C303.287 335.115 303.386 334.165 303.134 333.278C302.883 332.391 302.301 331.634 301.508 331.164L305.77 323.799C306.34 324.116 306.985 324.273 307.637 324.252C308.289 324.231 308.924 324.034 309.472 323.68C310.021 323.327 310.463 322.831 310.752 322.245C311.04 321.66 311.164 321.007 311.111 320.356ZM302.569 334.046C302.617 334.663 302.462 335.279 302.128 335.801C301.794 336.322 301.299 336.721 300.718 336.935C300.137 337.149 299.502 337.167 298.91 336.986C298.317 336.806 297.8 336.437 297.437 335.936C297.073 335.434 296.884 334.828 296.896 334.208C296.909 333.589 297.124 332.991 297.508 332.505C297.892 332.019 298.424 331.672 299.024 331.517C299.623 331.361 300.257 331.406 300.828 331.644C301.311 331.845 301.729 332.176 302.037 332.599C302.344 333.023 302.528 333.524 302.569 334.046ZM293.006 321.697C292.705 322.055 292.32 322.333 291.885 322.507C291.451 322.68 290.98 322.743 290.515 322.691C290.05 322.639 289.606 322.472 289.221 322.206C288.835 321.941 288.522 321.584 288.308 321.168C288.093 320.752 287.985 320.289 287.993 319.821C288 319.354 288.123 318.895 288.35 318.486C288.578 318.077 288.903 317.73 289.296 317.477C289.689 317.224 290.139 317.072 290.606 317.034C291.164 316.989 291.724 317.111 292.214 317.383C292.704 317.656 293.102 318.067 293.359 318.566C293.615 319.064 293.719 319.627 293.656 320.185C293.593 320.742 293.367 321.268 293.006 321.697ZM307.77 323.478C307.21 323.524 306.649 323.402 306.158 323.129C305.667 322.856 305.268 322.443 305.012 321.943C304.755 321.443 304.653 320.878 304.717 320.319C304.782 319.761 305.011 319.234 305.374 318.806C305.738 318.377 306.221 318.066 306.761 317.913C307.302 317.759 307.876 317.768 308.41 317.941C308.945 318.113 309.417 318.44 309.766 318.881C310.115 319.322 310.325 319.856 310.371 320.416C310.404 320.789 310.362 321.164 310.249 321.52C310.135 321.876 309.952 322.207 309.71 322.491C309.468 322.776 309.172 323.01 308.839 323.18C308.506 323.349 308.143 323.451 307.77 323.478Z" fill="#3B29AB"/>
<path d="M299.188 347.815C294.803 347.815 290.517 346.514 286.871 344.076C283.226 341.639 280.384 338.174 278.707 334.121C277.03 330.068 276.593 325.608 277.449 321.306C278.306 317.004 280.419 313.053 283.521 309.953C286.623 306.852 290.575 304.742 294.876 303.888C299.177 303.035 303.634 303.477 307.684 305.158C311.734 306.84 315.194 309.685 317.628 313.335C320.061 316.984 321.357 321.273 321.354 325.66C321.348 331.537 319.011 337.173 314.854 341.327C310.698 345.481 305.063 347.815 299.188 347.815ZM299.188 304.245C294.954 304.245 290.816 305.501 287.296 307.854C283.775 310.207 281.032 313.552 279.412 317.465C277.791 321.378 277.368 325.683 278.194 329.837C279.019 333.991 281.058 337.807 284.052 340.802C287.045 343.797 290.859 345.836 295.012 346.663C299.164 347.489 303.468 347.065 307.379 345.444C311.291 343.823 314.634 341.079 316.986 337.557C319.338 334.035 320.593 329.895 320.593 325.66C320.588 319.982 318.331 314.538 314.318 310.523C310.305 306.508 304.863 304.251 299.188 304.245Z" fill="#3B29AB"/>
<path d="M269 99.3069C267.3 93.543 260.858 89.3002 255.877 88.5797C243.433 86.9186 228.95 85.1774 226.749 84.9172C226.329 84.807 225.888 84.807 225.469 84.9172C225.789 81.1947 226.489 77.7524 226.049 76.1313C225.829 75.3307 225.149 75.1506 224.468 75.9311C222.968 77.6323 222.468 80.7344 223.768 75.0906C224.168 73.2093 224.969 68.8063 223.448 68.366C222.628 68.1459 221.788 69.2066 221.048 70.6876C221.248 66.6849 220.627 65.9444 220.027 65.8243C218.807 65.6042 217.547 68.7463 217.107 69.9271C217.107 68.286 217.107 66.7449 216.466 66.5848C215.826 66.4247 215.466 66.5848 214.146 70.5875C212.825 74.8177 211.973 79.1801 211.605 83.5963C211.198 82.6331 210.63 81.7464 209.925 80.9745C209.485 80.4742 209.104 80.5743 208.904 80.6743C207.144 81.655 208.204 93.2028 209.805 99.1068C210.565 101.909 213.546 104.17 217.807 105.531C215.266 106.051 212.625 106.532 209.945 106.952C205.383 107.673 202.963 102.309 202.423 100.948C203.339 100.716 204.196 100.296 204.94 99.7136C205.685 99.1311 206.299 98.3996 206.744 97.5658C208.204 94.3436 206.244 89.5603 200.922 83.5563C201.043 78.5078 199.448 73.5678 196.398 69.5435C193.349 65.5192 189.025 62.6486 184.134 61.4009C179.243 60.1531 174.073 60.602 169.47 62.6742C164.867 64.7464 161.102 68.3193 158.791 72.809C157.264 71.4096 155.374 70.4682 153.337 70.0924C151.3 69.7165 149.198 69.9214 147.272 70.6836C145.346 71.4457 143.673 72.7345 142.444 74.4026C141.215 76.0707 140.48 78.0509 140.323 80.1171C140.165 82.1833 140.592 84.2521 141.554 86.0872C142.516 87.9224 143.974 89.4499 145.763 90.4952C147.551 91.5406 149.597 92.0617 151.668 91.999C153.738 91.9363 155.749 91.2924 157.471 90.1407C158.612 93.4888 160.531 96.518 163.07 98.9789C165.61 101.44 168.697 103.262 172.078 104.296C175.46 105.33 179.038 105.545 182.519 104.925C186 104.305 189.284 102.866 192.1 100.728C195.361 106.992 194.341 110.474 187.039 113.517C163.473 123.323 142.907 128.226 105.838 135.531C104.237 135.852 103.637 137.293 103.317 139.014L102.597 139.254C101.498 139.675 100.297 139.755 99.1517 139.483C98.0064 139.212 96.9692 138.602 96.1752 137.733C88.6732 129.587 87.1128 130.688 86.5927 131.048C83.812 133.05 90.4137 140.134 90.3737 143.437C90.3737 144.057 87.773 144.698 85.7525 144.738L74.4495 144.958C72.449 144.958 68.9681 145.198 68.8881 146.639C68.8081 148.08 71.6488 148.82 74.3295 149.161L81.9115 150.121L71.1887 152.123C69.1882 152.463 65.8073 153.223 65.9473 154.664C66.0874 156.105 68.508 156.305 70.9886 156.305C72.1089 156.305 73.5893 156.185 82.6317 156.005C80.4511 156.666 77.5904 157.426 74.2695 158.167C70.9486 158.907 69.0681 159.888 69.2082 160.909C69.4282 162.45 73.5493 162.37 75.0897 162.289C76.6301 162.209 80.9712 161.889 84.012 161.529C82.6317 162.049 81.1113 162.59 79.4908 163.03C76.0299 163.991 74.3895 165.031 74.5696 165.992C74.9897 168.173 83.2118 166.752 85.3924 166.372C96.1952 164.491 99.5961 164.371 108.738 161.909C109.479 162.81 110.559 163.75 111.699 163.53C143.027 157.106 168.234 150.682 188.099 141.956C192.1 147.96 199.902 155.025 200.882 162.229C187.812 175.157 178.451 191.358 173.775 209.141C173.747 209.224 173.749 209.314 173.782 209.395C173.815 209.476 173.877 209.542 173.955 209.581L176.916 211.182C176.756 212.243 176.076 216.406 175.516 221.189C171.655 220.429 143.828 214.425 132.084 211.583C125.227 210.123 118.765 207.202 113.14 203.017C113.036 202.979 112.923 202.979 112.819 203.017C94.7399 206.002 77.5091 212.826 62.2864 223.031C62.2244 223.07 62.1759 223.127 62.1475 223.195C62.119 223.263 62.1119 223.338 62.1271 223.409C62.1424 223.481 62.1792 223.547 62.2327 223.597C62.2862 223.647 62.3538 223.68 62.4264 223.691C94.4347 231.576 103.577 222.49 118.561 229.035C119.241 229.335 113.58 226.613 172.715 255.052C177.006 257.121 181.942 257.404 186.441 255.84C190.941 254.276 194.637 250.992 196.721 246.706L208.364 222.69L210.985 223.251C211.032 223.266 211.082 223.27 211.132 223.264C211.181 223.257 211.228 223.24 211.27 223.213C211.312 223.187 211.348 223.151 211.375 223.109C211.401 223.067 211.419 223.02 211.425 222.97L212.565 220.028C213.486 220.109 214.406 220.169 215.326 220.209L220.867 248.107C219.907 251.93 209.645 289.916 208.024 295.539C205.684 303.545 200.302 312.871 199.542 314.632C199.462 314.78 199.42 314.945 199.422 315.113C202.717 332.888 209.124 349.941 218.347 365.487C218.378 365.55 218.427 365.603 218.487 365.64C218.547 365.677 218.616 365.697 218.687 365.697C218.758 365.697 218.827 365.677 218.887 365.64C218.947 365.603 218.995 365.55 219.027 365.487C228.409 338.368 219.727 325.46 224.228 311.85C224.448 311.37 245.774 263.458 249.055 249.669C249.903 238.189 249.231 226.648 247.054 215.345C248.415 214.865 249.755 214.345 251.055 213.804C251.143 213.765 251.213 213.693 251.25 213.604C251.287 213.514 251.289 213.414 251.255 213.324C241.493 186.186 231.97 161.689 231.25 159.968C234.171 140.595 233.251 131.389 230.93 125.705C239.249 124.483 247.369 122.161 255.076 118.8C263.178 115.418 271.461 107.713 269 99.3069ZM220.567 73.8297C222.028 69.827 223.088 69.0665 223.228 69.1065C223.368 69.1466 223.948 70.7076 223.028 74.9505C222.188 78.733 221.368 82.1153 220.887 84.9572C220.102 84.1652 219.206 83.4911 218.227 82.9559C218.947 79.4535 220.107 74.8904 220.567 73.8297ZM219.467 66.905C219.867 66.4447 219.987 66.5248 220.127 67.0251C220.43 68.9345 220.43 70.8796 220.127 72.789C219.065 75.984 218.19 79.2384 217.507 82.5356C216.789 82.1883 216.038 81.9134 215.266 81.715C215.746 78.2127 217.227 69.6469 219.467 66.905ZM210.525 98.9267C208.684 92.062 208.324 81.9952 209.224 81.3748C210.331 82.5253 211.1 83.9587 211.445 85.5176C211.292 87.0883 211.292 88.6701 211.445 90.2408C211.448 90.295 211.462 90.3479 211.487 90.3961C211.512 90.4442 211.547 90.4865 211.59 90.52C211.633 90.5535 211.682 90.5774 211.734 90.5903C211.787 90.6032 211.842 90.6046 211.895 90.5945C211.949 90.5844 211.999 90.5631 212.043 90.5318C212.088 90.5006 212.125 90.4603 212.152 90.4135C212.18 90.3667 212.197 90.3146 212.203 90.2607C212.208 90.2067 212.202 90.1522 212.185 90.1007C211.954 83.5805 212.841 77.0688 214.806 70.8477C215.133 69.6991 215.603 68.5963 216.206 67.5655C216.382 69.7243 216.282 71.8967 215.906 74.0299C215.266 76.7717 214.806 79.2734 214.486 81.655L213.826 81.5349C213.728 81.5292 213.632 81.5614 213.557 81.6248C213.483 81.6882 213.436 81.7778 213.426 81.8752C213.417 81.924 213.419 81.9741 213.43 82.0223C213.442 82.0705 213.464 82.1157 213.494 82.1552C213.524 82.1946 213.562 82.2275 213.605 82.2516C213.648 82.2757 213.696 82.2907 213.746 82.2954C215.337 82.5112 216.863 83.0704 218.217 83.9343C219.571 84.7982 220.721 85.9462 221.588 87.2988C221.828 87.7191 222.508 87.2988 222.248 86.9386C222.014 86.511 221.746 86.1028 221.448 85.7177C221.628 84.617 221.908 83.2961 222.208 81.9352C222.937 80.1363 223.765 78.3791 224.688 76.6716C225.129 76.0112 225.349 76.2113 225.429 76.9518C225.436 78.4612 225.309 79.9681 225.049 81.4549C224.47 86.3843 224.163 91.3418 224.128 96.3049C224.128 96.4058 224.168 96.5025 224.24 96.5738C224.311 96.6451 224.408 96.6852 224.508 96.6852C224.609 96.6852 224.706 96.6451 224.777 96.5738C224.848 96.5025 224.889 96.4058 224.889 96.3049C224.889 95.0641 224.889 92.082 225.149 88.8399C226.452 89.4368 227.858 89.7765 229.29 89.8405C230.415 95.2848 229.992 100.936 228.069 106.152C219.147 106.352 211.725 103.23 210.525 98.8266V98.9267ZM194.321 104.25C193.632 101.807 192.507 99.508 191 97.4657C190.71 97.1739 190.328 96.9902 189.919 96.9453C183.258 96.2248 183.538 90.4209 187.239 91.6418C188.539 92.0821 189.239 92.1021 189.719 91.6418C189.876 91.4521 189.978 91.2229 190.013 90.9794C190.048 90.7358 190.016 90.4872 189.919 90.2608C187.919 85.3175 189.619 73.8497 198.242 81.8151C201.602 84.9372 208.084 92.7025 206.064 97.1855C204.403 100.828 198.062 100.868 197.942 100.868C197.822 100.868 197.261 101.288 197.721 101.548L203.903 104.931C204.589 105.907 205.531 106.674 206.626 107.147C207.72 107.62 208.924 107.782 210.105 107.613L212.865 107.152C216.406 112.896 220.027 122.022 213.766 124.424C207.164 126.926 192.44 115.338 189.759 113.116C193.58 111.015 195.441 108.353 194.321 104.15V104.25ZM188.939 113.597C190.74 115.098 203.703 125.605 211.605 125.605C212.904 125.678 214.192 125.328 215.274 124.606C216.356 123.884 217.175 122.83 217.607 121.602C219.227 116.679 214.906 109.074 213.706 107.072C215.206 106.812 216.706 106.532 218.147 106.232C219.287 108.233 219.107 110.234 220.767 112.076C223.228 119.16 223.588 127.146 216.486 129.507C209.064 131.969 198.102 127.326 183.918 115.698C185.738 114.897 187.759 114.077 188.939 113.497V113.597ZM71.7088 155.385C67.9879 155.525 66.7475 154.744 66.7075 154.464C66.6675 154.184 67.4077 153.363 71.3287 152.723L85.9125 150.141C86.2917 151.604 86.8144 153.025 87.4729 154.384C87.0728 154.524 86.2726 154.804 85.2523 155.125C84.5322 155.085 77.4903 155.205 71.7088 155.385ZM75.0697 161.389C71.2887 161.609 70.0084 160.929 69.9684 160.668C69.9284 160.408 70.6286 159.628 74.4695 158.667C78.9868 157.674 83.4422 156.417 87.813 154.904C88.4634 156.173 89.2196 157.385 90.0736 158.527C89.5134 158.847 88.2531 159.528 86.4927 160.328C85.0923 160.588 80.3511 161.109 75.0697 161.389ZM96.5753 163.67C87.973 164.911 85.5124 165.672 80.6912 166.132C76.6901 166.592 75.3898 165.992 75.3298 165.712C75.2698 165.432 75.9499 164.671 79.7109 163.71C83.5005 162.636 87.1526 161.125 90.5937 159.207C91.6055 160.449 92.6806 161.638 93.8146 162.77C93.8835 162.839 93.9771 162.878 94.0746 162.878C94.1722 162.878 94.2657 162.839 94.3347 162.77C94.4037 162.701 94.4424 162.607 94.4424 162.51C94.4424 162.412 94.4037 162.318 94.3347 162.249C90.0736 157.706 87.2128 153.864 86.0726 147.439C86.0491 147.342 85.992 147.257 85.9113 147.198C85.8307 147.14 85.7318 147.112 85.6324 147.119C85.5347 147.139 85.4485 147.196 85.3924 147.278C85.3363 147.36 85.3147 147.461 85.3324 147.56C85.3324 148.2 85.5724 148.82 85.7125 149.421L84.4121 149.641L74.4095 148.38C70.7086 147.9 69.6083 146.939 69.6283 146.659C69.6483 146.379 70.4885 145.698 74.4295 145.678L85.7525 145.458C85.7525 145.458 91.1139 145.258 91.1139 143.457C91.1139 140.195 85.1123 133.03 87.1128 131.689C87.833 131.168 90.4937 132.629 95.695 138.273C96.5923 139.251 97.7616 139.937 99.0523 140.244C100.343 140.551 101.696 140.464 102.937 139.994L108.258 138.113C111.699 142.696 114.26 153.744 113.28 159.688C107.82 161.435 102.236 162.767 96.5753 163.67ZM196.101 246.446C195.12 248.484 193.746 250.308 192.059 251.814C190.372 253.32 188.404 254.478 186.269 255.222C184.134 255.965 181.872 256.28 179.615 256.148C177.358 256.016 175.149 255.439 173.115 254.452C114.22 226.033 119.741 228.694 119.101 228.434C105.938 222.67 97.3555 228.434 75.8099 225.532C88.8701 217.553 102.893 211.272 117.541 206.84C122.084 209.328 126.943 211.193 131.984 212.383C143.828 215.285 171.995 221.269 175.516 222.03C175.071 225.63 174.817 229.25 174.756 232.877C174.756 232.978 174.796 233.075 174.867 233.146C174.938 233.217 175.035 233.257 175.136 233.257C175.236 233.257 175.333 233.217 175.404 233.146C175.476 233.075 175.516 232.978 175.516 232.877C175.788 225.752 176.523 218.652 177.716 211.623C187.211 216.577 197.293 220.309 207.724 222.73L196.101 246.446ZM248.355 249.648C245.134 263.318 223.828 311.17 223.588 311.69C219.587 323.699 225.389 334.186 221.588 353.719C220.187 350.917 215.586 341.711 203.243 309.449C205.504 305.136 207.372 300.628 208.824 295.98C210.265 290.996 221.668 248.608 221.708 248.388C221.748 248.167 221.708 248.388 216.186 220.369C226.439 220.695 236.663 219.107 246.334 215.686C248.487 226.863 249.147 238.277 248.295 249.628L248.355 249.648ZM250.475 213.344C238.589 218.241 225.725 220.297 212.905 219.348L225.349 186.866C225.378 186.818 225.395 186.764 225.401 186.709C225.407 186.653 225.4 186.597 225.382 186.544C225.364 186.491 225.334 186.443 225.295 186.403C225.255 186.363 225.208 186.333 225.156 186.313C225.103 186.294 225.047 186.286 224.991 186.291C224.936 186.295 224.882 186.312 224.833 186.34C224.785 186.368 224.743 186.407 224.711 186.452C224.679 186.498 224.658 186.551 224.648 186.606L210.885 222.51C198.177 219.875 185.946 215.313 174.615 208.981C179.284 191.438 188.544 175.459 201.442 162.69C210.005 164.691 223.448 165.171 230.77 160.688C232.11 164.091 241.113 187.466 250.415 213.324L250.475 213.344ZM254.896 118.2C247.179 121.55 239.053 123.864 230.73 125.084C229.559 122.637 228.08 120.351 226.329 118.28C226.264 118.211 226.177 118.169 226.083 118.162C225.989 118.154 225.896 118.182 225.821 118.239C225.746 118.296 225.696 118.379 225.679 118.472C225.662 118.564 225.679 118.66 225.729 118.74L226.169 119.32C230.51 124.924 234.991 130.728 230.61 159.888C223.828 164.311 210.925 164.111 201.642 162.049C200.922 156.926 196.981 151.922 193.34 147.439L195.841 138.373C195.841 138.153 195.841 137.513 195.341 137.813C174.756 147.94 147.829 156.005 113.06 162.39C116.32 157.386 112.099 139.214 107.198 136.012C141.327 129.327 161.392 124.564 183.038 115.998C195.161 126.005 204.743 130.908 212.125 130.908C220.627 130.908 225.569 124.904 221.768 112.896C222.548 113.256 220.687 113.136 248.295 113.136C248.395 113.136 248.492 113.096 248.563 113.025C248.635 112.954 248.675 112.857 248.675 112.756C248.675 112.655 248.635 112.558 248.563 112.487C248.492 112.416 248.395 112.376 248.295 112.376H225.009C227.449 110.575 229.61 105.791 230.43 99.8473C230.698 97.9251 230.792 95.9825 230.71 94.0434C230.59 91.5817 230.05 87.7591 228.309 85.8979C232.931 86.4582 245.094 87.8992 255.777 89.3802C260.518 90.0006 266.659 94.0834 268.28 99.5671C270.62 107.512 262.438 114.917 254.836 118.18L254.896 118.2Z" fill="#3B29AB"/>
</svg>
