<svg width="446" height="444" viewBox="0 0 446 444" fill="none" xmlns="http://www.w3.org/2000/svg">
<path d="M186.984 340.93C186.984 340.93 184.636 342.16 183.568 342.725C178.467 346.401 168.108 335.889 163.862 331.081C163.803 331.014 163.726 330.967 163.64 330.945C163.554 330.924 163.463 330.928 163.38 330.958C163.297 330.988 163.224 331.043 163.172 331.114C163.12 331.186 163.09 331.272 163.087 331.361C163.22 334.688 164.158 337.933 165.82 340.817C170.864 350.275 171.057 372.508 175.913 375.523C176.208 375.71 176.541 375.83 176.887 375.875C177.233 375.92 177.585 375.888 177.918 375.781C179.139 375.421 180.801 372.776 183.869 355.89C184.817 351.007 186.065 346.186 187.606 341.457C187.631 341.374 187.631 341.285 187.606 341.202C187.582 341.119 187.534 341.044 187.467 340.988C187.401 340.932 187.32 340.897 187.234 340.886C187.148 340.876 187.061 340.891 186.984 340.93V340.93Z" fill="#3B29AB"/>
<path d="M313.543 226.495C312.3 226.249 311.02 226.263 309.783 226.534C308.546 226.806 307.378 227.33 306.351 228.074C305.325 228.818 304.462 229.766 303.817 230.859C303.172 231.952 302.758 233.166 302.601 234.426C302.595 234.538 302.631 234.649 302.703 234.735C302.775 234.822 302.877 234.878 302.988 234.892C303.099 234.907 303.212 234.878 303.303 234.813C303.394 234.747 303.457 234.649 303.479 234.539C303.726 232.628 304.62 230.86 306.011 229.531C307.403 228.202 309.208 227.393 311.123 227.239C313.039 227.085 314.949 227.596 316.534 228.686C318.119 229.776 319.282 231.378 319.829 233.225C319.867 233.333 319.944 233.422 320.046 233.473C320.147 233.525 320.264 233.536 320.373 233.504C320.482 233.471 320.574 233.398 320.631 233.3C320.688 233.201 320.705 233.084 320.679 232.974C320.211 231.333 319.295 229.857 318.034 228.712C316.773 227.567 315.217 226.799 313.543 226.495V226.495Z" fill="#3B29AB"/>
<path d="M339.965 211.478C338.16 210.848 336.205 210.793 334.367 211.32C332.53 211.847 330.9 212.929 329.699 214.42C328.499 215.911 327.787 217.737 327.661 219.649C327.535 221.561 328.001 223.465 328.995 225.101C329.428 225.811 329.955 226.458 330.561 227.024C330.604 227.064 330.653 227.095 330.708 227.115C330.762 227.136 330.82 227.145 330.878 227.143C330.936 227.141 330.993 227.128 331.046 227.104C331.098 227.08 331.146 227.046 331.185 227.003C331.225 226.961 331.256 226.911 331.276 226.856C331.297 226.802 331.306 226.744 331.304 226.686C331.302 226.627 331.289 226.57 331.265 226.517C331.241 226.464 331.207 226.417 331.164 226.377C329.769 225.056 328.868 223.296 328.61 221.389C328.353 219.483 328.755 217.546 329.75 215.901C330.745 214.255 332.272 213.002 334.077 212.349C335.882 211.696 337.856 211.684 339.669 212.313C339.779 212.352 339.901 212.346 340.007 212.295C340.113 212.245 340.194 212.154 340.233 212.044C340.273 211.933 340.266 211.811 340.216 211.705C340.166 211.599 340.075 211.517 339.965 211.478V211.478Z" fill="#3B29AB"/>
<path d="M357.863 198.703C354.577 193.34 347.981 191.906 346.098 192.991C343.925 194.241 333.38 200.915 276.963 235.325C276.87 235.389 276.805 235.487 276.782 235.597C276.758 235.708 276.777 235.824 276.836 235.921C276.894 236.018 276.987 236.089 277.096 236.119C277.205 236.15 277.321 236.137 277.421 236.085L282.153 233.204C280.9 235.639 280.517 238.432 281.067 241.116C281.618 243.8 283.07 246.214 285.18 247.955C287.29 249.696 289.932 250.66 292.665 250.686C295.398 250.712 298.057 249.798 300.2 248.097C301.055 250.495 302.651 252.558 304.755 253.985C306.859 255.413 309.362 256.13 311.901 256.034C314.439 255.938 316.881 255.032 318.872 253.45C320.862 251.867 322.298 249.689 322.97 247.233C324.865 248.519 327.089 249.234 329.378 249.292C331.666 249.35 333.923 248.749 335.882 247.56C337.84 246.371 339.417 244.644 340.426 242.584C341.435 240.524 341.834 238.217 341.575 235.937C344.057 236.407 346.624 236.079 348.908 234.999C351.193 233.918 353.078 232.141 354.294 229.921C355.51 227.701 355.994 225.153 355.678 222.64C355.362 220.128 354.261 217.78 352.533 215.933C354.088 215.237 355.477 214.216 356.608 212.939C357.738 211.663 358.584 210.159 359.088 208.528C359.593 206.897 359.745 205.177 359.534 203.483C359.322 201.789 358.753 200.159 357.863 198.703V198.703ZM358.145 208.557C357.62 210.104 356.761 211.515 355.628 212.689C354.495 213.864 353.118 214.773 351.594 215.351C350.078 215.919 348.472 216.206 346.854 216.201C346.737 216.2 346.624 216.244 346.537 216.323C346.45 216.401 346.396 216.51 346.385 216.627C346.381 216.686 346.388 216.745 346.408 216.801C346.427 216.857 346.457 216.908 346.496 216.952C346.536 216.996 346.584 217.032 346.637 217.056C346.691 217.081 346.748 217.095 346.807 217.097C348.45 217.114 350.083 216.84 351.631 216.288C352.821 217.473 353.727 218.913 354.28 220.499C354.833 222.086 355.02 223.778 354.826 225.448C354.632 227.118 354.062 228.721 353.159 230.138C352.256 231.555 351.044 232.747 349.615 233.626C348.38 234.405 347 234.925 345.558 235.151C344.116 235.378 342.643 235.307 341.23 234.943C339.817 234.558 338.482 233.932 337.282 233.091C337.188 233.036 337.077 233.017 336.97 233.038C336.863 233.059 336.767 233.119 336.702 233.207C336.636 233.294 336.605 233.403 336.614 233.511C336.623 233.62 336.672 233.722 336.751 233.797C337.937 234.628 339.246 235.263 340.631 235.68C340.954 237.843 340.633 240.052 339.707 242.032C338.782 244.012 337.293 245.674 335.429 246.808C333.565 247.943 331.408 248.5 329.228 248.41C327.049 248.32 324.945 247.586 323.181 246.301C323.457 244.747 323.487 243.158 323.27 241.594C323.252 241.478 323.189 241.374 323.095 241.304C323.001 241.235 322.882 241.206 322.767 241.224C322.651 241.241 322.547 241.305 322.477 241.399C322.408 241.494 322.379 241.612 322.397 241.728C322.788 243.691 322.648 245.722 321.991 247.612C321.335 249.502 320.185 251.181 318.663 252.475C317.14 253.769 315.3 254.631 313.333 254.971C311.366 255.311 309.344 255.117 307.477 254.409C305.927 253.819 304.531 252.885 303.393 251.677C302.254 250.469 301.404 249.018 300.904 247.433C301.816 246.484 302.604 245.424 303.252 244.277C303.308 244.174 303.321 244.052 303.287 243.94C303.254 243.827 303.178 243.732 303.074 243.676C302.971 243.62 302.85 243.607 302.738 243.64C302.625 243.673 302.531 243.75 302.475 243.854C301.453 245.91 299.802 247.584 297.763 248.632C295.723 249.679 293.403 250.044 291.142 249.674C289.284 249.396 287.527 248.65 286.036 247.505C284.544 246.36 283.368 244.854 282.617 243.128C281.866 241.402 281.565 239.513 281.742 237.638C281.919 235.764 282.569 233.965 283.63 232.411C283.834 232.11 344.772 194.938 346.176 194.067C349.889 191.782 361.561 198.524 358.145 208.562V208.557Z" fill="#3B29AB"/>
<path d="M342.012 172.771C341.121 171.316 339.932 170.069 338.523 169.112C337.113 168.155 335.517 167.51 333.84 167.221C332.162 166.931 330.442 167.003 328.795 167.433C327.148 167.862 325.611 168.639 324.287 169.711C323.688 168.032 322.724 166.508 321.464 165.25C320.204 163.992 318.68 163.032 317.003 162.439C315.325 161.846 313.537 161.636 311.769 161.824C310 162.012 308.296 162.592 306.78 163.524C304.241 165.097 302.371 167.556 301.531 170.427C299.624 169.153 297.391 168.456 295.1 168.418C292.808 168.38 290.554 169.003 288.606 170.214C286.658 171.424 285.098 173.17 284.112 175.244C283.125 177.318 282.755 179.632 283.043 181.912C280.555 181.399 277.97 181.694 275.661 182.754C273.352 183.815 271.44 185.585 270.202 187.809C268.965 190.033 268.467 192.594 268.78 195.121C269.093 197.647 270.2 200.009 271.942 201.861C269.461 203.003 267.444 204.96 266.227 207.41C265.009 209.859 264.664 212.652 265.248 215.325C265.833 217.998 267.312 220.391 269.44 222.104C271.568 223.818 274.217 224.75 276.947 224.746L272.311 227.57C272.211 227.633 272.139 227.732 272.112 227.848C272.086 227.963 272.105 228.084 272.168 228.184C272.23 228.285 272.329 228.357 272.444 228.383C272.559 228.41 272.68 228.39 272.78 228.328C303.949 209.336 342.089 185.731 342.324 185.336C343.394 183.404 343.93 181.22 343.875 179.011C343.82 176.801 343.177 174.647 342.012 172.771V172.771ZM341.542 184.9C341.406 185.136 307.608 205.547 278.867 223.576C278.712 223.679 278.537 223.746 278.353 223.774C275.724 224.12 273.058 223.508 270.84 222.049C268.623 220.591 267.001 218.383 266.27 215.828C265.539 213.272 265.747 210.538 266.857 208.123C267.966 205.708 269.903 203.773 272.316 202.669C273.737 202.13 275.236 201.824 276.754 201.763C276.866 201.754 276.971 201.704 277.047 201.622C277.123 201.54 277.166 201.431 277.166 201.319C277.166 201.207 277.123 201.098 277.047 201.016C276.971 200.934 276.866 200.884 276.754 200.875C275.437 200.931 274.133 201.154 272.872 201.539C271.68 200.355 270.772 198.916 270.217 197.329C269.661 195.742 269.473 194.049 269.666 192.378C269.859 190.707 270.429 189.102 271.331 187.684C272.234 186.267 273.446 185.073 274.877 184.194C276.841 183.017 279.113 182.457 281.399 182.588C283.684 182.719 285.877 183.534 287.696 184.929C287.791 184.997 287.909 185.025 288.025 185.006C288.141 184.987 288.244 184.923 288.313 184.827C288.381 184.732 288.409 184.613 288.39 184.497C288.371 184.381 288.307 184.277 288.212 184.208C286.92 183.304 285.494 182.61 283.987 182.152C283.645 179.991 283.947 177.776 284.857 175.787C285.766 173.798 287.242 172.123 289.098 170.972C290.954 169.821 293.108 169.246 295.289 169.319C297.471 169.392 299.582 170.11 301.357 171.382C301.098 172.81 301.069 174.269 301.273 175.706C301.298 175.816 301.365 175.912 301.459 175.975C301.553 176.038 301.668 176.062 301.779 176.043C301.89 176.024 301.99 175.964 302.059 175.873C302.127 175.783 302.158 175.67 302.146 175.557C301.69 172.794 302.294 169.96 303.837 167.625C305.379 165.29 307.746 163.627 310.461 162.969C313.177 162.311 316.04 162.708 318.476 164.08C320.911 165.451 322.739 167.696 323.592 170.363C322.404 171.499 321.42 172.832 320.683 174.303C320.491 174.729 321.08 175.48 321.683 174.319C322.366 172.998 323.285 171.813 324.395 170.825C325.601 169.725 327.035 168.906 328.594 168.426C330.153 167.947 331.798 167.817 333.412 168.048C335.026 168.279 336.57 168.864 337.933 169.762C339.295 170.66 340.444 171.848 341.296 173.242C342.354 174.992 342.934 176.991 342.977 179.038C343.021 181.084 342.526 183.106 341.542 184.9Z" fill="#3B29AB"/>
<path d="M294.677 190.443C294.59 190.371 294.48 190.335 294.368 190.342C294.256 190.349 294.151 190.398 294.074 190.479C293.996 190.561 293.953 190.669 293.951 190.781C293.95 190.893 293.991 191.002 294.066 191.085C295.461 192.412 296.359 194.178 296.609 196.089C296.859 198 296.446 199.94 295.44 201.582C294.433 203.224 292.895 204.469 291.081 205.11C289.268 205.75 287.29 205.745 285.48 205.097C285.372 205.067 285.256 205.079 285.157 205.131C285.057 205.183 284.981 205.27 284.943 205.376C284.905 205.482 284.909 205.598 284.953 205.702C284.997 205.805 285.079 205.888 285.182 205.933C287.183 206.649 289.37 206.654 291.374 205.947C293.379 205.239 295.08 203.863 296.193 202.047C297.306 200.232 297.763 198.088 297.487 195.976C297.21 193.863 296.218 191.909 294.677 190.443V190.443Z" fill="#3B29AB"/>
<path d="M321.657 182.851C321.394 184.756 320.487 186.513 319.088 187.829C317.688 189.145 315.882 189.941 313.968 190.083C312.055 190.225 310.151 189.706 308.573 188.611C306.995 187.516 305.84 185.913 305.299 184.067C305.266 183.954 305.19 183.859 305.087 183.802C304.984 183.746 304.863 183.732 304.751 183.765C304.638 183.798 304.543 183.874 304.486 183.977C304.43 184.08 304.416 184.201 304.449 184.314C305.045 186.355 306.322 188.129 308.065 189.34C309.809 190.551 311.914 191.126 314.029 190.968C316.144 190.811 318.142 189.931 319.688 188.475C321.234 187.019 322.235 185.075 322.524 182.968C322.523 182.862 322.484 182.759 322.414 182.678C322.344 182.598 322.247 182.546 322.142 182.532C322.036 182.517 321.929 182.542 321.84 182.6C321.751 182.659 321.686 182.748 321.657 182.851V182.851Z" fill="#3B29AB"/>
<path d="M385.99 162.967C356.727 112.537 288.383 105.602 251.541 150.517C241.972 165.07 231.207 178.797 219.361 191.556C219.321 191.598 219.29 191.648 219.27 191.702C219.249 191.757 219.239 191.815 219.241 191.873C219.243 191.931 219.256 191.988 219.28 192.041C219.304 192.094 219.338 192.142 219.38 192.182C219.422 192.222 219.472 192.253 219.526 192.274C219.58 192.294 219.638 192.304 219.696 192.302C219.754 192.3 219.811 192.287 219.864 192.263C219.917 192.239 219.964 192.205 220.004 192.163C231.888 179.393 242.68 165.644 252.269 151.063C252.289 151.035 252.305 151.004 252.316 150.971C288.588 106.92 356.122 113.26 385.222 163.402C414.25 213.426 387.959 278.218 333.324 290.597C315.084 292.891 297.021 296.429 279.261 301.188C279.154 301.223 279.064 301.299 279.01 301.399C278.957 301.499 278.944 301.616 278.974 301.726C279.004 301.835 279.075 301.929 279.173 301.987C279.27 302.046 279.386 302.064 279.496 302.039C297.076 297.079 315.027 293.551 333.174 291.489C333.236 291.502 333.3 291.502 333.361 291.489C388.771 279.068 415.299 213.48 385.99 162.967Z" fill="#3B29AB"/>
<path d="M290.393 98.8005C275.839 108.92 249.26 125.227 218.021 130.195C215.626 130.579 212.673 130.023 210.854 131.654C205.105 136.806 203.922 154.781 189.728 155.172C187.751 160.166 185.972 165.009 184.045 169.137C184.721 168.196 187.028 167.725 190.397 167.697C196.23 167.824 202.033 168.574 207.709 169.933C217.15 172.051 224.985 175.056 228.07 177.522C229.096 178.341 229.598 179.106 229.448 179.758C232.661 172.827 231.405 165.786 229.293 158.457C254.767 153.527 290.059 135.479 306.991 120.631C305.646 112.135 298.148 103.185 290.393 98.8005Z" fill="#FFD0C7"/>
<path d="M245.37 313.442C245.348 313.388 245.315 313.34 245.274 313.299C245.233 313.259 245.185 313.226 245.131 313.205C245.078 313.183 245.021 313.172 244.963 313.172C244.905 313.172 244.848 313.184 244.795 313.206C224.922 321.328 205.434 331.283 185.592 341.664C187.186 338.684 187.127 333.354 185.357 326.188C182.781 316.669 179.055 307.501 174.261 298.888L244.734 255.992C244.834 255.93 244.906 255.83 244.933 255.715C244.96 255.599 244.94 255.478 244.878 255.377C244.816 255.276 244.716 255.204 244.601 255.177C244.486 255.15 244.365 255.17 244.264 255.232L173.848 298.093C172.503 295.629 171.176 293.339 169.808 291.094L243.34 246.278C243.44 246.215 243.512 246.115 243.539 246C243.566 245.884 243.546 245.763 243.484 245.662C243.422 245.561 243.322 245.489 243.207 245.462C243.092 245.435 242.971 245.455 242.87 245.517L169.345 290.338C164.348 281.975 158.358 274.251 151.505 267.334C145.973 262.001 141.238 259.271 137.83 259.388C156.843 245.324 172.183 234.357 186.707 222.675C186.792 222.599 186.846 222.493 186.855 222.379C186.865 222.265 186.83 222.152 186.759 222.062C186.687 221.973 186.584 221.915 186.47 221.9C186.357 221.886 186.242 221.915 186.15 221.983C166.378 237.899 136.463 258.97 135.4 260.109C128.661 264.302 133.827 285.702 147.247 309.022C159.299 329.967 173.343 344.361 181.146 344.361C182.19 344.385 183.215 344.072 184.068 343.467C242.717 312.736 245.957 314.875 245.37 313.442Z" fill="#3B29AB"/>
<path d="M445.867 306.789C445.856 306.704 445.821 306.623 445.767 306.558C445.712 306.492 445.639 306.444 445.557 306.419C445.475 306.394 445.388 306.393 445.306 306.417C445.224 306.441 445.15 306.488 445.094 306.553C439.367 313.119 428.604 309.808 425.264 320.999C420.519 323.65 415.932 326.575 411.524 329.758C411.429 329.786 411.346 329.847 411.29 329.93C410.724 330.351 410.149 330.786 409.56 331.243C396.579 341.292 379.891 356.895 382.33 360.065C382.504 360.251 382.719 360.394 382.958 360.483C383.197 360.572 383.453 360.604 383.706 360.576C388.917 360.576 405.471 349.889 417.038 340.939C421.964 337.077 426.593 332.85 430.888 328.294C441.268 327.689 446.96 317.153 445.867 306.789ZM416.489 340.228C400.189 352.85 384.473 361.381 383.03 359.526C381.586 357.672 393.804 344.566 410.104 331.947C410.604 331.558 411.1 331.182 411.586 330.819L417.954 339.085C417.48 339.454 416.994 339.838 416.489 340.228ZM418.642 338.515L412.304 330.278C416.554 327.229 420.969 324.419 425.529 321.86L430.113 327.814C426.492 331.593 422.662 335.166 418.642 338.515V338.515Z" fill="#3B29AB"/>
<path d="M434.681 133.142L440.263 120.626H430.25C430.177 120.621 430.106 120.598 430.043 120.561C429.98 120.523 429.927 120.471 429.888 120.409C429.849 120.347 429.824 120.277 429.817 120.204C429.81 120.131 429.82 120.057 429.846 119.988L435.714 106.863C435.762 106.756 435.851 106.672 435.96 106.63C436.07 106.588 436.192 106.592 436.299 106.64C436.406 106.688 436.489 106.777 436.531 106.886C436.573 106.996 436.57 107.118 436.522 107.226L430.942 119.741H440.956C441.031 119.744 441.104 119.765 441.169 119.802C441.233 119.84 441.288 119.894 441.327 119.958C441.519 120.257 441.822 119.372 435.501 133.504C435.453 133.613 435.364 133.698 435.253 133.741C435.142 133.784 435.019 133.782 434.91 133.734C434.802 133.685 434.717 133.596 434.674 133.485C434.631 133.374 434.633 133.251 434.681 133.142V133.142Z" fill="#3B29AB"/>
<path d="M228.053 430.859L216.624 431.195L216.288 419.734C216.278 419.622 216.225 419.518 216.14 419.443C216.056 419.368 215.946 419.329 215.834 419.332C215.721 419.335 215.614 419.381 215.534 419.461C215.454 419.54 215.408 419.647 215.403 419.76L215.739 431.221L204.307 431.557C204.195 431.567 204.092 431.619 204.016 431.703C203.941 431.786 203.9 431.895 203.902 432.008C203.904 432.12 203.948 432.228 204.026 432.309C204.104 432.39 204.209 432.439 204.321 432.445L215.765 432.108L216.101 443.569C216.104 443.685 216.151 443.794 216.234 443.875C216.316 443.955 216.427 444 216.542 444C216.661 443.998 216.774 443.949 216.858 443.864C216.941 443.778 216.987 443.663 216.985 443.543L216.65 432.082L228.082 431.746C228.194 431.735 228.297 431.681 228.372 431.597C228.446 431.512 228.485 431.402 228.482 431.289C228.478 431.176 228.432 431.069 228.352 430.989C228.273 430.909 228.166 430.862 228.053 430.859V430.859Z" fill="#3B29AB"/>
<path d="M250.295 14.4705H242.769C241.029 14.4781 239.357 13.7963 238.116 12.5736C236.876 11.3508 236.167 9.6862 236.145 7.94212V0.453543C236.145 -0.0406751 235.258 -0.252483 235.26 0.453543V7.94918C235.277 9.69993 234.602 11.3863 233.382 12.639C232.162 13.8917 230.497 14.6087 228.751 14.6329H221.286C221.174 14.6411 221.07 14.6913 220.993 14.7736C220.917 14.8559 220.875 14.9641 220.875 15.0765C220.875 15.1889 220.917 15.2971 220.993 15.3794C221.07 15.4617 221.174 15.512 221.286 15.5201H228.798C230.536 15.5156 232.207 16.1989 233.446 17.4216C234.685 18.6443 235.394 20.3078 235.417 22.0509V29.5394C235.417 29.6568 235.464 29.7693 235.546 29.8523C235.629 29.9353 235.741 29.9819 235.858 29.9819C235.975 29.9819 236.088 29.9353 236.17 29.8523C236.253 29.7693 236.3 29.6568 236.3 29.5394V22.0438C236.282 20.292 236.958 18.6047 238.179 17.3515C239.4 16.0983 241.067 15.3813 242.814 15.3577H250.283C250.395 15.3512 250.5 15.3024 250.578 15.2211C250.655 15.1398 250.699 15.0321 250.701 14.9196C250.702 14.8071 250.661 14.6983 250.586 14.615C250.511 14.5316 250.407 14.48 250.295 14.4705V14.4705ZM235.826 19.5068C235.442 18.4742 234.837 17.5387 234.053 16.766C233.27 15.9934 232.327 15.4026 231.29 15.0353C232.32 14.6507 233.254 14.0442 234.024 13.2586C234.795 12.473 235.384 11.5274 235.75 10.4885C236.134 11.5211 236.739 12.4567 237.523 13.2293C238.306 14.0019 239.249 14.5927 240.286 14.96C239.256 15.3446 238.322 15.9511 237.552 16.7368C236.781 17.5224 236.192 18.468 235.826 19.5068V19.5068Z" fill="#3B29AB"/>
<path d="M61.265 415.858L74.4104 408.179C74.5113 408.127 74.6279 408.117 74.7363 408.149C74.8448 408.181 74.9369 408.254 74.9938 408.352C75.0508 408.45 75.0682 408.566 75.0427 408.676C75.0171 408.786 74.9505 408.883 74.8564 408.946C64.1711 415.18 62.1547 416.401 61.6805 416.634C61.5791 416.678 61.4653 416.681 61.3614 416.645C61.2575 416.608 61.171 416.534 61.1189 416.436C61.0668 416.339 61.053 416.226 61.08 416.119C61.107 416.012 61.173 415.919 61.265 415.858Z" fill="#3B29AB"/>
<path d="M10.3011 333.961C10.2033 333.962 10.108 333.93 10.0303 333.87C9.9526 333.81 9.89687 333.727 9.87188 333.632C9.84688 333.537 9.85404 333.436 9.89222 333.346C9.9304 333.256 9.99744 333.181 10.0828 333.133L23.5356 325.47C23.6374 325.412 23.758 325.397 23.871 325.428C23.9839 325.459 24.0798 325.534 24.1377 325.636C24.1956 325.738 24.2107 325.859 24.1797 325.972C24.1487 326.085 24.074 326.182 23.9722 326.24C9.8152 334.291 10.5358 333.961 10.3011 333.961Z" fill="#3B29AB"/>
<path d="M149.491 342.08C143.208 323.276 133.261 305.91 120.229 290.99C112.745 282.8 106.997 277.218 101.234 279.946C97.7433 281.866 96.8771 284.584 97.464 288.594C96.4684 287.341 95.0804 286.46 93.5241 286.095C91.9678 285.729 90.3341 285.9 88.8867 286.58C87.4394 287.26 86.263 288.41 85.5474 289.843C84.8319 291.276 84.6189 292.909 84.943 294.478C83.8025 293.544 82.4005 292.989 80.9313 292.889C79.462 292.789 77.9981 293.15 76.7424 293.921C75.4866 294.692 74.501 295.836 73.9222 297.193C73.3433 298.551 73.1997 300.055 73.5113 301.498C72.435 300.619 71.1224 300.079 69.74 299.949C68.3576 299.818 66.9676 300.102 65.7462 300.764C43.2818 313.251 60.4035 303.943 32.6951 319.718C32.5933 319.777 32.5188 319.873 32.488 319.987C32.4572 320.1 32.4726 320.221 32.5308 320.323C32.589 320.425 32.6852 320.5 32.7984 320.531C32.9115 320.562 33.0322 320.546 33.134 320.488L51.0328 310.293C47.4836 317.323 52.9365 336.508 64.8213 357.269L21.9558 382.635C21.855 382.695 21.782 382.792 21.7529 382.906C21.7239 383.02 21.7411 383.141 21.8009 383.242C21.8607 383.343 21.958 383.416 22.0716 383.445C22.1852 383.474 22.3057 383.457 22.4065 383.397L65.2556 358.046C77.2272 378.709 91.0955 393.065 98.9334 393.46L82.99 402.77C82.8959 402.833 82.8292 402.93 82.8037 403.04C82.7782 403.151 82.7956 403.267 82.8526 403.365C82.9095 403.463 83.0016 403.535 83.1101 403.567C83.2185 403.599 83.3351 403.589 83.436 403.538L115.386 384.92C116.431 384.09 117.223 382.984 117.674 381.726C118.126 380.469 118.218 379.11 117.94 377.803C119.083 378.719 120.479 379.258 121.939 379.348C123.399 379.438 124.851 379.074 126.097 378.306C127.342 377.538 128.321 376.402 128.899 375.056C129.478 373.709 129.627 372.216 129.327 370.78C130.224 371.496 131.276 371.989 132.399 372.218C133.522 372.448 134.683 372.407 135.787 372.101C136.7 371.83 137.549 371.379 138.285 370.774C139.021 370.169 139.63 369.423 140.074 368.58C140.519 367.736 140.791 366.812 140.874 365.861C140.957 364.911 140.85 363.953 140.559 363.045C141.803 363.968 143.285 364.515 144.83 364.62C146.374 364.725 147.916 364.384 149.273 363.638C155.003 360.006 152.813 352.876 149.491 342.08ZM148.808 362.887C147.263 363.678 145.492 363.904 143.799 363.528C142.106 363.152 140.596 362.196 139.529 360.826C139.461 360.736 139.362 360.675 139.251 360.656C139.141 360.637 139.027 360.661 138.933 360.723C138.84 360.785 138.773 360.881 138.748 360.99C138.722 361.1 138.738 361.215 138.794 361.313C139.398 362.172 139.792 363.162 139.945 364.202C140.098 365.243 140.005 366.304 139.675 367.302C139.353 368.242 138.81 369.091 138.093 369.778C137.376 370.464 136.504 370.968 135.553 371.246C134.272 371.607 132.91 371.551 131.663 371.086C130.417 370.62 129.35 369.77 128.616 368.658C128.189 367.966 127.421 368.573 127.712 369.055C128.58 370.46 128.855 372.152 128.478 373.76C128.1 375.368 127.101 376.759 125.701 377.629C124.3 378.498 122.612 378.774 121.008 378.396C119.404 378.018 118.016 377.016 117.149 375.612C116.715 375.172 116.053 375.657 116.335 376.127C117.107 377.424 117.383 378.958 117.112 380.444C116.84 381.93 116.039 383.266 114.858 384.204L103.713 390.674C110.142 377.921 87.1402 330.932 66.0255 312.835C63.3331 310.578 59.3308 307.692 55.8426 307.504L66.171 301.552C67.5717 300.807 69.2037 300.629 70.7317 301.053C72.2598 301.477 73.5677 302.472 74.3869 303.833C74.4588 303.933 74.566 304.001 74.6867 304.025C74.8074 304.049 74.9325 304.025 75.0366 303.959C75.1407 303.894 75.2159 303.791 75.2469 303.672C75.278 303.552 75.2625 303.426 75.2038 303.317C74.338 301.928 74.0536 300.252 74.412 298.654C74.7704 297.056 75.7429 295.663 77.1185 294.779C78.4941 293.895 80.1619 293.59 81.7602 293.931C83.3586 294.271 84.7586 295.23 85.6566 296.598C85.9665 297.069 86.9336 296.805 86.5956 296.236C86.0917 295.417 85.7867 294.491 85.7052 293.533C85.6236 292.574 85.7678 291.61 86.1261 290.717C86.5661 289.592 87.3239 288.62 88.3067 287.92C89.2895 287.221 90.4546 286.824 91.6591 286.778C92.8637 286.732 94.0553 287.04 95.0881 287.663C96.1208 288.286 96.9498 289.198 97.4734 290.286C97.525 290.376 97.7856 290.832 97.9428 291.091C98.3301 291.731 98.8677 291.303 98.809 290.872C97.7527 286.222 97.5931 282.96 101.626 280.741C106.828 278.291 112.586 283.944 119.574 291.59C132.521 306.411 142.402 323.663 148.644 342.344C151.961 353.116 153.956 359.621 148.808 362.887Z" fill="#3B29AB"/>
<path d="M0.442097 396.548C0.344838 396.548 0.250385 396.515 0.173274 396.456C0.0961639 396.396 0.0406676 396.313 0.0153253 396.219C-0.0100169 396.125 -0.0038006 396.025 0.0330173 395.935C0.0698351 395.845 0.135214 395.769 0.219095 395.72L13.3644 388.04C13.4653 387.989 13.5819 387.979 13.6904 388.011C13.7988 388.043 13.8909 388.115 13.9479 388.213C14.0048 388.311 14.0223 388.427 13.9968 388.538C13.9712 388.648 13.9046 388.745 13.8104 388.808C-0.00155809 396.861 0.676834 396.548 0.442097 396.548Z" fill="#3B29AB"/>
<path d="M94.3255 174.788C94.699 167.515 92.6117 160.33 88.4019 154.395C84.1921 148.461 78.1067 144.126 71.132 142.093C64.1573 140.061 56.7023 140.449 49.9754 143.196C43.2485 145.943 37.6441 150.887 34.0707 157.227C27.106 156.375 15.6226 155.626 14.4442 159.707C13.1391 164.228 25.6436 170.387 29.9252 172.416C29.7692 179.548 31.9719 186.533 36.1898 192.279C40.4077 198.025 46.4038 202.21 53.2429 204.182C60.0819 206.154 67.3796 205.802 73.9979 203.18C80.6162 200.558 86.183 195.814 89.8303 189.687C113.771 192.584 116.034 185.197 94.3255 174.788ZM62.765 141.71C68.2012 141.829 73.5134 143.362 78.1809 146.158C82.8485 148.955 86.7113 152.919 89.3909 157.663C92.0704 162.406 93.4747 167.766 93.4661 173.218C93.4576 178.669 92.0364 184.025 89.342 188.76C69.1573 185.837 49.4684 180.15 30.8266 171.858C31.1543 163.641 34.6829 155.881 40.6546 150.245C46.6263 144.608 54.5648 141.544 62.765 141.71V141.71ZM15.2963 159.954C16.0005 157.518 22.9934 156.803 33.6059 158.071C31.4303 162.213 30.1829 166.78 29.951 171.455C26.4957 169.796 14.2306 163.649 15.2963 159.954ZM39.5447 194.898C33.8406 188.981 30.6994 181.044 30.8055 172.816C49.3129 181.007 68.845 186.639 88.8655 189.555C86.3587 193.647 82.9505 197.108 78.9025 199.674C74.8544 202.24 70.2739 203.842 65.5124 204.358C60.7509 204.873 55.9348 204.289 51.4335 202.649C46.9322 201.009 42.8653 198.358 39.5447 194.898V194.898ZM108.323 186.941C107.619 189.337 100.969 190.106 90.3021 188.875C92.5548 184.836 93.9082 180.355 94.2692 175.741C103.776 180.347 109.02 184.51 108.318 186.936L108.323 186.941Z" fill="#3B29AB"/>
<path d="M331.897 80.4157C325.415 83.6873 318.772 86.6274 311.993 89.2245C312.808 87.8643 313.81 85.7273 312.803 84.706C311.223 83.1009 294.712 97.5344 292.444 99.5325C291.807 99.0983 291.143 98.7053 290.456 98.3558C289.132 98.2216 258.806 123.25 217.948 129.748C217.449 129.823 216.947 129.87 216.443 129.889C213.861 129.261 214.417 128.183 213.626 126.006C216.746 125.495 221.53 124.385 222.528 122.274C225.147 116.734 218.101 101.968 215.284 95.2799C211.671 86.7017 191.425 90.7048 174.909 98.7323C161.078 105.456 149.867 115.002 153.228 122.344C154.954 126.11 160.505 127.581 168.517 126.517C160.769 129.596 153.81 134.379 148.153 140.515C125.461 166.638 170.688 170.112 197.272 138.383C193.506 144.849 190.353 151.655 187.855 158.712C184.223 168.052 183.486 169.128 183.418 169.427C183.01 171.269 186.235 173.086 187.911 173.945C186.759 176.455 185.033 178.656 182.873 180.372C165.526 194.194 164.662 213.763 177.505 228.77L178.209 228.229C165.693 213.638 166.43 194.611 183.427 181.069C184.711 180.049 185.852 178.862 186.822 177.539C199.278 177.368 211.546 180.598 222.312 186.882C221.495 188.2 220.572 189.652 219.525 191.276C216.347 189.737 213.09 188.232 209.753 186.762C209.648 186.724 209.532 186.728 209.429 186.772C209.326 186.817 209.244 186.899 209.198 187.002C209.153 187.104 209.148 187.221 209.185 187.327C209.222 187.433 209.297 187.521 209.396 187.574C230.06 196.383 249.347 208.137 266.661 222.473C270.808 225.988 274.16 230.349 276.495 235.265C278.83 240.18 280.093 245.538 280.2 250.982C280.524 266.355 280.074 283.436 278.745 304.932C267.873 307.42 256.527 306.858 245.952 303.306C246.253 289.42 245.717 275.919 245.203 261.907C250.074 247.951 249.898 248.563 249.898 248.325C249.895 248.253 249.873 248.183 249.835 248.121C249.796 248.06 249.743 248.009 249.68 247.974C249.577 247.92 244.572 246.056 244.464 246.014C243.659 245.663 210.821 231.326 191.993 225.382C186.359 223.605 181.665 216.707 180.312 208.218C180.29 208.106 180.224 208.007 180.131 207.941C180.037 207.876 179.921 207.85 179.808 207.867C179.695 207.885 179.594 207.946 179.525 208.037C179.455 208.129 179.424 208.243 179.437 208.357C180.845 217.17 185.775 224.36 191.728 226.229C209.758 231.922 240.706 245.343 243.863 246.72C244.194 264.7 245.506 283.549 245.053 303.569C245.05 303.6 245.05 303.63 245.053 303.661C244.659 320.982 243.673 321.446 244.429 321.74C245.79 322.265 247.119 322.726 248.393 323.112C248.525 330.273 246.264 334.091 248.206 338.748C249.362 341.397 251.028 343.791 253.107 345.794C261.647 354.424 268.6 379.78 274.703 375.812C275.769 375.106 276.602 372.103 274.703 355.05C273.905 344.554 274.023 334.009 275.053 323.533C276.078 323.232 277.121 322.886 278.158 322.498C278.238 322.468 278.307 322.417 278.358 322.348C278.409 322.28 278.439 322.199 278.445 322.114C280.67 292.181 281.48 270.235 281.074 250.961C280.963 245.392 279.671 239.911 277.283 234.882C274.895 229.853 271.466 225.392 267.224 221.795C252.895 209.851 237.145 199.734 220.333 191.676C222.293 188.631 224.593 184.99 226.356 181.808C228.441 181.495 229.619 180.855 229.863 179.906C232.915 173.317 232.082 166.68 229.849 158.801C256.4 153.522 291.231 135.031 307.273 120.965C307.329 120.915 307.372 120.852 307.397 120.781C307.423 120.711 307.43 120.635 307.418 120.56C307.256 119.536 307.02 118.525 306.714 117.534C309.212 114.875 312.035 112.543 315.115 110.594C316.254 111.215 317.53 111.539 318.827 111.535C323.122 111.535 327.186 108.04 327.458 105.334C327.513 104.695 327.353 104.057 327.005 103.519C327.508 103.223 327.941 102.821 328.274 102.342C328.608 101.862 328.834 101.315 328.937 100.74C328.982 100.228 328.897 99.7123 328.689 99.2423C328.481 98.7722 328.158 98.3627 327.749 98.0522C328.098 97.5821 328.295 97.0161 328.313 96.4305C328.332 95.8448 328.171 95.2675 327.852 94.7762C327.023 93.8059 325.994 93.0275 324.836 92.4948C323.678 91.9621 322.418 91.6878 321.143 91.6909C329.556 87.2806 333.153 82.3761 333.225 80.9734C333.256 80.3639 332.739 79.9262 331.897 80.4157ZM277.59 321.752C267.027 325.531 255.444 325.27 245.06 321.02C245.53 315.348 245.793 309.752 245.926 304.221C256.497 307.726 267.818 308.286 278.682 305.843C278.367 310.893 278.003 316.183 277.59 321.752ZM312.233 85.4026C312.813 86.2475 311.181 88.9962 310.59 89.7635C306.376 91.1442 302.345 93.0329 298.585 95.3881C304.165 90.7378 310.942 85.5344 312.233 85.4026ZM199.138 137.166C204.204 129.68 206.73 119.433 207.955 110.506C207.966 110.431 207.957 110.355 207.93 110.284C207.902 110.214 207.857 110.152 207.798 110.104C201.885 105.237 205.058 101.02 208.242 104.27C210.338 106.412 213.234 105.569 210.795 98.7206C212.21 98.1011 213.57 97.3651 214.863 96.5201C220.913 110.707 223.016 117.63 222.046 121.024C221.084 124.378 212.777 120.287 209.669 118.67C209.589 118.63 209.499 118.614 209.41 118.625C209.321 118.637 209.238 118.675 209.171 118.735C209.104 118.795 209.057 118.873 209.035 118.961C209.014 119.048 209.02 119.139 209.051 119.224C209.88 121.626 211.091 123.879 212.636 125.895C213.382 127.625 213.124 129.028 214.436 129.997C213.032 129.991 211.666 130.458 210.558 131.325C204.742 136.533 203.681 153.753 190.392 154.694C192.675 148.555 195.607 142.679 199.138 137.166V137.166ZM222.781 186.138C212.058 179.861 199.847 176.59 187.43 176.67C189.039 174.049 190.164 171.158 190.751 168.137C200.965 168.137 220.91 172.743 227.514 177.654C226.084 180.563 224.504 183.395 222.781 186.138ZM221.826 159.098C221.713 159.109 221.609 159.163 221.535 159.249C221.461 159.335 221.423 159.447 221.428 159.56C221.433 159.673 221.481 159.781 221.563 159.86C221.644 159.939 221.752 159.983 221.866 159.985H221.906C224.063 159.787 226.441 159.446 228.978 158.97C231.044 166.243 231.896 172.406 229.537 178.417C226.908 174.359 212.554 170.568 207.805 169.502C201.904 168.065 195.857 167.314 189.784 167.264C188.189 167.238 186.601 167.466 185.078 167.939C186.721 164.247 188.258 160.107 190.033 155.607C204.223 154.97 205.603 136.954 211.159 131.988C212.831 130.485 215.716 131.024 218.098 130.635C241.509 126.912 265.842 116.378 290.423 99.3348C297.787 103.587 305.059 111.916 306.515 120.469C287.905 136.672 247.476 156.758 221.826 159.098ZM319.282 91.6368C318.154 91.6664 317.031 91.8115 315.932 92.0698C315.825 92.1031 315.734 92.1761 315.678 92.274C315.622 92.372 315.605 92.4876 315.631 92.5975C315.657 92.7073 315.724 92.8031 315.818 92.8655C315.911 92.9279 316.025 92.9522 316.136 92.9335C322.165 91.5073 329.155 94.1949 327.049 97.5062C325.474 96.608 323.737 96.0303 321.939 95.8062C320.14 95.582 318.315 95.7159 316.568 96.2001C316.512 96.2133 316.458 96.2377 316.411 96.2717C316.364 96.3056 316.324 96.3486 316.293 96.3981C316.263 96.4476 316.242 96.5027 316.233 96.5601C316.223 96.6176 316.225 96.6764 316.239 96.7331C316.252 96.7898 316.276 96.8434 316.31 96.8907C316.344 96.938 316.387 96.9781 316.436 97.0088C316.485 97.0395 316.54 97.0602 316.598 97.0696C316.655 97.079 316.714 97.077 316.77 97.0638C320.155 96.2636 324.819 96.5036 327.24 98.7818C327.514 98.9915 327.733 99.2655 327.878 99.5798C328.022 99.894 328.087 100.239 328.068 100.584C327.972 101.05 327.779 101.491 327.501 101.877C327.224 102.263 326.868 102.586 326.458 102.825C324.143 100.46 319.585 100.373 316.308 101.036C316.198 101.065 316.102 101.134 316.042 101.231C315.981 101.328 315.96 101.444 315.983 101.556C316.005 101.667 316.07 101.766 316.163 101.832C316.257 101.897 316.371 101.924 316.484 101.907C321.101 100.966 324.256 102.008 325.669 103.293C325.965 103.522 326.201 103.818 326.36 104.157C326.518 104.496 326.594 104.868 326.58 105.242C326.287 106.225 325.782 107.132 325.101 107.898C324.42 108.664 323.579 109.271 322.639 109.676C321.634 110.236 320.516 110.56 319.368 110.625C318.22 110.69 317.073 110.493 316.012 110.05C317.836 108.932 319.787 108.039 321.824 107.391C321.936 107.38 322.04 107.328 322.115 107.244C322.19 107.16 322.23 107.051 322.227 106.938C322.225 106.826 322.18 106.718 322.102 106.637C322.024 106.557 321.918 106.509 321.805 106.503C315.878 108.458 310.565 111.936 306.395 116.59C303.739 109.901 299.156 104.157 293.231 100.09C298.16 96.3241 303.618 93.3104 309.428 91.1473C317.215 88.2605 324.839 84.9514 332.268 81.2347C331.739 82.5973 328.183 87.323 319.28 91.6368H319.282Z" fill="#3B29AB"/>
</svg>
