<svg width="467" height="412" viewBox="0 0 467 412" fill="none" xmlns="http://www.w3.org/2000/svg">
<path d="M415.207 123.119L245.146 37.157C246.567 32.1391 246.618 26.8324 245.294 21.7881C243.97 16.7439 241.319 12.1463 237.617 8.473C233.915 4.79971 229.297 2.18481 224.243 0.900031C219.188 -0.384751 213.882 -0.292534 208.876 1.1671C203.869 2.62672 199.345 5.4005 195.773 9.2002C192.2 12.9999 189.711 17.6869 188.563 22.774C187.415 27.8612 187.651 33.163 189.245 38.1284C190.839 43.0939 193.734 47.5418 197.629 51.01L147.954 149.231C147.915 149.299 147.895 149.376 147.895 149.455C147.895 149.533 147.917 149.61 147.957 149.677C147.997 149.745 148.054 149.8 148.122 149.838C148.191 149.876 148.268 149.895 148.347 149.893C148.788 149.893 145.11 156.881 198.291 51.6229C202.632 55.2564 207.937 57.5463 213.559 58.2125C219.181 58.8788 224.874 57.8925 229.944 55.3743C286.337 164.874 282.463 157.69 282.905 157.69C283.346 157.69 281.875 157.862 424.671 134.864C425.695 137.519 426.15 140.36 426.006 143.203C425.863 146.045 425.124 148.826 423.837 151.365L406.895 184.979C406.84 185.09 406.831 185.218 406.87 185.335C406.909 185.453 406.993 185.549 407.103 185.605C407.214 185.66 407.342 185.669 407.459 185.63C407.576 185.591 407.673 185.507 407.729 185.396L424.695 151.781C425.96 149.277 426.718 146.548 426.925 143.751C427.133 140.953 426.786 138.143 425.904 135.48C425.022 132.816 423.624 130.354 421.788 128.233C419.952 126.112 417.716 124.374 415.207 123.119ZM283.199 156.734L230.827 54.9574C237.516 51.3518 242.55 45.2982 244.876 38.0641L414.863 123.879C419.107 126.002 422.467 129.553 424.352 133.907L283.199 156.734Z" fill="#3B29AB"/>
<path d="M389.413 219.551L361.83 274.154C360.626 276.549 358.96 278.683 356.93 280.433C354.899 282.184 352.543 283.516 349.997 284.354C347.45 285.193 344.763 285.52 342.09 285.318C339.417 285.116 336.81 284.388 334.418 283.176L306.81 269.225C306.7 269.17 306.572 269.161 306.454 269.2C306.337 269.239 306.24 269.323 306.185 269.434C306.13 269.544 306.121 269.672 306.16 269.79C306.199 269.907 306.283 270.004 306.393 270.059L334.001 283.986C336.501 285.253 339.226 286.015 342.02 286.227C344.814 286.44 347.623 286.099 350.286 285.224C352.948 284.35 355.412 282.959 357.536 281.13C359.66 279.302 361.402 277.073 362.663 274.57L390.247 220.041C390.279 219.986 390.3 219.926 390.309 219.863C390.318 219.8 390.314 219.736 390.298 219.675C390.282 219.613 390.254 219.555 390.216 219.505C390.178 219.454 390.13 219.411 390.075 219.379C390.021 219.347 389.96 219.326 389.897 219.317C389.834 219.308 389.77 219.312 389.709 219.328C389.647 219.344 389.589 219.372 389.539 219.41C389.488 219.448 389.445 219.496 389.413 219.551Z" fill="#3B29AB"/>
<path d="M371.784 179.708C372.839 196.552 373.476 204.594 365.459 219.207L301.195 219.82C314.337 240.342 310.463 294.774 305.413 329.247C292.716 332.857 279.246 332.721 266.624 328.855C267.703 314.732 267.605 293.548 267.286 277.366L278.957 249.096L225.016 272.437C157.369 301.688 139.201 249.905 139.201 249.905C148.796 243.926 158.024 237.376 166.833 230.29C170.856 232.641 175.576 233.508 180.172 232.742C199.59 228.721 236.393 209.67 245.98 199.445C249.809 195.431 253.105 190.94 255.787 186.083L275.672 177.624C282.367 174.772 289.647 173.561 296.905 174.093L371.784 179.708Z" fill="#FFD0C7"/>
<path d="M204.715 278.886C194.343 290.38 181.791 299.699 167.788 306.303C153.784 312.907 138.609 316.664 123.142 317.355C107.675 318.046 92.2254 315.658 77.689 310.33C63.1526 305.002 49.8193 296.839 38.4632 286.316C27.107 275.793 17.9542 263.119 11.5361 249.03C5.11803 234.94 1.56243 219.717 1.07574 204.242C0.589049 188.767 3.18096 173.35 8.70103 158.886C14.2211 144.421 22.5593 131.197 33.2317 119.981C27.8964 127.259 23.1883 134.978 19.1581 143.053C19.1581 143.249 18.9865 143.298 19.4523 143.739C20.2859 144.524 22.9339 146.51 30.7063 152.664C31.1339 153.003 31.6368 153.235 32.1727 153.34C32.7086 153.445 33.2618 153.419 33.7857 153.265C34.3095 153.111 34.7888 152.834 35.1831 152.456C35.5774 152.078 35.8752 151.612 36.0514 151.095L54.0235 99.3115C54.2591 98.6445 54.2813 97.9206 54.087 97.2403C53.8927 96.5601 53.4915 95.9572 52.939 95.5152C52.3866 95.0732 51.7103 94.8142 51.004 94.7739C50.2976 94.7336 49.5963 94.9142 48.9972 95.2905C32.4603 103.265 16.9088 113.139 2.65707 124.713C2.19885 125.007 1.81718 125.406 1.54358 125.877C1.26998 126.347 1.11229 126.877 1.08355 127.42C1.05481 127.964 1.15583 128.507 1.37827 129.004C1.60071 129.501 1.9382 129.938 2.36285 130.279C9.93909 136.261 12.1703 138.124 12.8568 138.615C13.5433 139.105 13.5924 138.811 13.9111 138.443C14.9654 137.291 17.123 133.172 30.2895 121.844C9.37022 145.065 -1.46766 175.646 0.16008 206.858C1.78782 238.07 15.7478 267.357 38.9691 288.276C62.1903 309.196 92.7707 320.033 123.983 318.406C155.195 316.778 184.482 302.818 205.401 279.597C205.496 279.506 205.55 279.381 205.552 279.25C205.554 279.119 205.505 278.992 205.413 278.898C205.322 278.804 205.198 278.749 205.067 278.747C204.936 278.745 204.809 278.795 204.715 278.886ZM13.2246 137.634L2.9513 129.494C2.62916 129.243 2.37464 128.916 2.21081 128.543C2.04699 128.169 1.97904 127.76 2.01313 127.354C2.04722 126.947 2.18227 126.555 2.40604 126.214C2.6298 125.873 2.93521 125.593 3.29456 125.399C17.5063 113.819 33.0262 103.944 49.5366 95.977C49.9691 95.6766 50.4869 95.5235 51.0132 95.5402C51.5396 95.557 52.0465 95.7428 52.4591 96.07C52.8716 96.3973 53.1678 96.8487 53.3039 97.3575C53.4399 97.8662 53.4085 98.4052 53.2144 98.8947L35.1687 150.801C35.0449 151.181 34.8298 151.526 34.5421 151.804C34.2544 152.083 33.903 152.286 33.5184 152.398C33.1338 152.509 32.7279 152.524 32.336 152.443C31.9441 152.361 31.5782 152.184 31.2703 151.928L20.1388 143.126C25.2424 133.524 31.0874 124.334 37.6206 115.641C37.9393 115.052 37.3754 114.685 37.0076 115.003C28.4997 122.114 19.722 129.322 13.2246 137.634Z" fill="#3B29AB"/>
<path d="M348.099 23.2794C348.051 23.1763 348.042 23.0589 348.074 22.9494C348.106 22.84 348.177 22.7462 348.274 22.6857C348.371 22.6253 348.486 22.6024 348.599 22.6214C348.711 22.6405 348.813 22.7001 348.884 22.7891C353.984 31.4932 366.93 31.7138 371.073 23.353C372.34 20.4005 372.398 17.0687 371.233 14.0744C370.068 11.0801 367.775 8.66271 364.846 7.34236C355.847 2.87998 345.917 9.25481 347.339 18.4983C347.361 18.6185 347.335 18.7423 347.266 18.8432C347.197 18.9441 347.091 19.014 346.972 19.0377C346.85 19.047 346.729 19.0126 346.63 18.9407C346.531 18.8689 346.461 18.7642 346.432 18.6454C344.887 8.59281 355.627 1.72761 365.238 6.50873C368.385 7.91544 370.851 10.5066 372.099 13.7198C373.348 16.9331 373.279 20.5091 371.907 23.6717C367.396 32.8172 353.543 32.572 348.099 23.2794Z" fill="#3B29AB"/>
<path d="M348.492 23.5001L342.509 23.0588C342.419 23.0504 342.333 23.016 342.263 22.9598C342.192 22.9036 342.139 22.828 342.11 22.7422C342.082 22.6564 342.079 22.5642 342.102 22.4767C342.125 22.3892 342.172 22.3104 342.24 22.2496L346.555 18.2286C346.597 18.1765 346.651 18.1343 346.711 18.1048C346.772 18.0753 346.838 18.0593 346.905 18.0578C346.973 18.0564 347.039 18.0695 347.101 18.0963C347.163 18.1232 347.218 18.1631 347.263 18.2133C347.308 18.2635 347.341 18.3228 347.361 18.3872C347.38 18.4515 347.386 18.5194 347.377 18.5861C347.368 18.6528 347.345 18.7168 347.308 18.7736C347.272 18.8304 347.224 18.8787 347.168 18.9151L343.613 22.2251L348.516 22.5684C348.64 22.5716 348.757 22.6238 348.842 22.7135C348.927 22.8032 348.973 22.9229 348.97 23.0465C348.967 23.1701 348.914 23.2873 348.825 23.3723C348.735 23.4574 348.615 23.5033 348.492 23.5001Z" fill="#3B29AB"/>
<path d="M425.774 292.592C426.613 291.125 427.147 289.503 427.343 287.824C427.539 286.146 427.394 284.445 426.915 282.824C426.437 281.203 425.636 279.696 424.56 278.393C423.483 277.09 422.155 276.018 420.654 275.241C419.152 274.465 417.51 274.001 415.824 273.876C414.139 273.751 412.446 273.968 410.847 274.515C409.247 275.062 407.775 275.926 406.519 277.056C405.263 278.187 404.248 279.56 403.536 281.092C401.084 285.677 394.636 296.147 389.487 295.803C389.396 295.797 389.305 295.818 389.226 295.862C389.147 295.907 389.083 295.974 389.041 296.055C388.999 296.135 388.982 296.227 388.991 296.317C389.001 296.408 389.037 296.493 389.094 296.564C389.34 296.809 389.094 296.564 399.883 302.178C399.205 303.706 399.136 305.434 399.692 307.01C400.247 308.586 401.384 309.89 402.87 310.655C404.355 311.42 406.077 311.588 407.683 311.124C409.288 310.66 410.655 309.6 411.504 308.161C419.203 312.133 421.312 313.334 422.146 313.629C422.979 313.923 423.028 313.334 422.709 312.942C418.786 308.112 425.431 293.303 425.774 292.592ZM403.315 309.755C402.061 309.106 401.096 308.011 400.61 306.685C400.124 305.36 400.154 303.9 400.692 302.595L410.671 307.744C409.911 308.931 408.734 309.789 407.371 310.148C406.008 310.507 404.561 310.34 403.315 309.681V309.755ZM421.165 312.206L391.056 296.662C397.455 295.043 404.051 282.269 404.345 281.705C405.77 278.988 408.214 276.947 411.141 276.027C414.069 275.108 417.241 275.387 419.963 276.802C422.659 278.255 424.68 280.704 425.596 283.626C426.512 286.548 426.25 289.712 424.867 292.444C424.671 292.763 418.688 305.856 421.165 312.035V312.206Z" fill="#3B29AB"/>
<path d="M466.818 117.063L452.279 112.846L456.496 98.2818C456.526 98.2203 456.542 98.1531 456.543 98.0847C456.544 98.0163 456.53 97.9486 456.502 97.8862C456.474 97.8238 456.433 97.7684 456.381 97.7239C456.329 97.6794 456.268 97.6468 456.202 97.6285C456.136 97.6102 456.067 97.6066 456 97.618C455.932 97.6294 455.868 97.6555 455.812 97.6945C455.756 97.7334 455.709 97.7843 455.675 97.8434C455.64 97.9025 455.619 97.9685 455.613 98.0366L451.396 112.576L436.857 108.359C436.796 108.331 436.731 108.316 436.664 108.316C436.598 108.315 436.532 108.329 436.471 108.356C436.41 108.383 436.356 108.423 436.312 108.473C436.268 108.523 436.235 108.582 436.215 108.646C436.196 108.709 436.19 108.776 436.199 108.842C436.208 108.908 436.23 108.972 436.266 109.028C436.301 109.085 436.348 109.133 436.403 109.17C436.459 109.206 436.521 109.231 436.587 109.242L451.151 113.434L446.909 128.023C446.879 128.084 446.863 128.152 446.862 128.22C446.861 128.288 446.875 128.356 446.903 128.418C446.931 128.481 446.973 128.536 447.024 128.581C447.076 128.625 447.137 128.658 447.203 128.676C447.269 128.694 447.338 128.698 447.406 128.687C447.473 128.675 447.537 128.649 447.593 128.61C447.649 128.571 447.696 128.52 447.731 128.461C447.765 128.402 447.786 128.336 447.792 128.268L452.034 113.557C466.402 117.725 466.5 117.848 466.745 117.848C466.815 117.812 466.875 117.759 466.919 117.694C466.964 117.629 466.991 117.554 466.998 117.476C467.005 117.397 466.993 117.318 466.961 117.246C466.93 117.174 466.881 117.111 466.818 117.063Z" fill="#3B29AB"/>
<path d="M452.107 185.274C450.636 179.733 403.07 183.925 372.569 182.822C372.569 181.743 372.348 180.664 372.226 179.585C372.215 179.479 372.168 179.379 372.092 179.303C372.016 179.227 371.916 179.179 371.809 179.169C298.842 174.289 295.066 173.456 294.747 173.456C288.88 173.051 283 174.034 277.584 176.324L256.939 185.127C263.51 172.107 262.088 158.647 261.107 143.102C260.617 135.746 259.857 134.913 259.121 134.814C258.996 134.799 258.868 134.813 258.749 134.855C258.63 134.898 258.522 134.968 258.435 135.06L260.642 125.252C260.849 124.394 260.707 123.489 260.247 122.735C259.787 121.981 259.047 121.44 258.19 121.231C257.329 121.03 256.423 121.174 255.667 121.633C254.911 122.091 254.365 122.827 254.144 123.683L245.342 162.373C244.705 159.701 244.116 156.513 243.454 154.478C242.964 153.032 241.713 149.795 240.12 149.795C237.668 149.795 237.521 156.661 237.423 159.21C237.104 168.258 236.834 180.272 228.915 184.881C222.354 188.618 215.518 191.847 208.466 194.542C201.199 197.381 193.59 199.252 185.835 200.107C181.986 200.304 176.518 195.964 171.124 188.461C171.884 187.48 172.644 186.451 173.38 185.421C174.116 184.391 171.517 185.004 151.313 152.615C146.875 145.431 139.618 138.885 131.331 138.419C131.249 135.269 131.512 132.12 132.115 129.028C144.374 136.555 152.588 116.082 152.588 101.371C153.416 101.244 154.235 101.064 155.04 100.832C155.131 100.798 155.21 100.738 155.266 100.659C155.323 100.581 155.355 100.487 155.359 100.39C155.371 96.8981 154.087 93.5257 151.755 90.9262C150.394 89.6267 148.785 88.6157 147.024 87.9542C145.262 87.2927 143.385 86.9942 141.506 87.0768C140.329 85.1398 131.698 72.3656 113.702 81.1678C95.0431 90.3132 97.4704 124.419 97.8137 128.243C95.5335 129.396 80.2094 137.438 71.824 150.139C64.2478 161.564 63.0709 175.246 68.7346 185.715C75.1095 197.582 89.2567 204.129 108.602 204.202C112.532 222.824 123.38 239.262 138.956 250.199C143.994 262.311 153.428 272.068 165.362 277.513C184.462 285.873 206.308 281.092 225.31 272.879L266.207 255.152C266.918 274.767 267.654 309.362 266.207 328.83C266.199 328.936 266.229 329.042 266.292 329.127C266.355 329.213 266.447 329.273 266.551 329.296L269.002 329.933C268.659 341.604 264.516 355.114 266.551 361.121C268.462 365.47 271.034 369.498 274.176 373.062C284.792 385.321 298.498 412.684 304.211 411.016C309.924 409.349 302.765 353.471 304.039 330.105L305.682 329.639C305.765 329.607 305.837 329.554 305.893 329.485C305.949 329.416 305.986 329.334 306.001 329.247C311.885 289.183 313.896 239.779 302.176 220.213C369.847 219.575 365.802 219.673 365.924 219.404C366.047 219.134 366.734 217.932 367.101 217.221C383.038 218.276 394.709 222.934 400.961 221.046C405.396 219.301 409.531 216.878 413.221 213.862C425.995 203.491 453.627 191.085 452.107 185.274ZM254.904 123.977C254.967 123.655 255.093 123.348 255.276 123.075C255.459 122.803 255.695 122.57 255.97 122.39C256.245 122.21 256.553 122.087 256.876 122.029C257.199 121.971 257.531 121.978 257.851 122.05C258.172 122.123 258.474 122.258 258.741 122.45C259.008 122.641 259.234 122.885 259.405 123.165C259.576 123.445 259.689 123.757 259.737 124.082C259.785 124.407 259.768 124.738 259.685 125.056C250.932 163.648 250.932 164.139 249.78 167.326C249.486 168.184 248.628 169.018 247.867 168.724C247.107 168.429 246.421 167.081 245.759 164.703C245.661 164.384 244.974 167.498 254.904 124.051V123.977ZM185.419 201.186C190.469 201.186 201.944 198.146 208.662 195.547C215.755 192.798 222.632 189.52 229.233 185.74C237.545 180.836 237.864 168.724 238.207 159.284C238.501 151.365 239.703 150.801 239.923 150.776C240.659 150.653 241.787 152.909 242.375 154.822C244.092 159.946 244.827 171.69 249.167 169.337C249.846 168.92 250.358 168.278 250.614 167.522C252.698 161.466 256.032 143.519 257.699 138.321C257.935 137.552 258.239 136.805 258.607 136.089C258.852 135.624 258.876 135.501 259.097 136.089C259.705 138.378 260.027 140.734 260.053 143.102C261.549 166.198 263.093 180.468 245.71 199.029C236.515 208.836 200.399 227.985 180.147 232.178C175.683 232.981 171.078 232.201 167.128 229.971C160.581 226.391 153.054 219.673 144.742 210.013C154.714 205.092 163.453 197.995 170.315 189.246C175.856 196.92 181.299 201.186 185.419 201.186ZM127.432 102.891C127.466 102.811 127.473 102.722 127.451 102.637C127.429 102.553 127.379 102.478 127.31 102.425C122.21 97.5217 127.996 91.8089 130.718 96.4184C131.184 97.2275 132.287 98.8702 133.169 98.8702C136.415 99.9878 139.755 100.808 143.149 101.322C145.91 101.942 148.765 102.026 151.558 101.567V103.235C151.191 112.674 146.655 127.042 139.299 129.42C135.254 130.72 130.718 128.366 126.182 122.236C125.912 121.869 125.176 121.991 125.446 122.849C125.716 123.708 126.966 126.674 130.35 135.109C130.289 136.228 130.289 137.349 130.35 138.468C127.089 138.468 122.823 140.454 117.11 136.31C127.506 106.496 124.318 112.552 127.432 102.891ZM107.155 187.26C106.273 168.895 110.686 154.797 116.767 137.315C122.872 141.582 127.261 139.399 130.521 139.448C138.784 139.62 145.968 146.019 150.455 153.252C157.15 164.325 164.435 175.03 172.277 185.323C164.482 196.472 153.768 205.26 141.31 210.724C134.077 202.216 128.903 194.566 128.683 194.248C128.615 194.158 128.518 194.096 128.409 194.073C128.3 194.049 128.186 194.066 128.088 194.119C127.99 194.173 127.914 194.26 127.875 194.364C127.835 194.469 127.835 194.584 127.873 194.689C128.413 195.866 140.942 222.983 162.003 233.919C152.539 241.274 141.089 248.409 139.324 249.512C118.532 235.095 108.357 211.729 107.155 187.26ZM305.069 406.137C304.677 409.594 303.99 410.06 303.794 410.134C299.111 411.531 284.817 384.095 274.715 372.449C271.687 368.971 269.206 365.052 267.36 360.827C266.745 358.307 266.637 355.69 267.041 353.128C269.165 357.11 271.713 360.85 274.642 364.284C284.743 376.004 297.763 400.449 305.069 406.137ZM303.525 356.928C290.961 352.157 279.34 345.201 269.199 336.382C269.444 334.102 269.615 332.042 269.689 330.154C280.554 332.93 291.933 333.015 302.838 330.399C302.568 337.73 303.034 348.322 303.525 356.928ZM304.996 328.879C292.587 332.334 279.454 332.207 267.115 328.511C267.433 324.221 267.629 319.268 267.777 314.045C280.696 316.131 293.847 316.371 306.835 314.756C306.263 319.562 305.65 324.27 304.996 328.879ZM306.933 313.825C293.889 315.463 280.678 315.224 267.703 313.114C267.973 301.222 267.85 287.982 267.703 277.464C275.966 257.456 278.442 251.596 279.129 249.782C279.521 248.728 279.129 248.507 278.736 248.703L224.795 272.02C201.503 282.098 181.594 283.667 165.583 276.679C153.999 271.401 144.807 261.982 139.814 250.272C139.825 250.208 139.825 250.141 139.814 250.076C149.166 244.264 158.172 237.911 166.784 231.05C170.859 233.28 175.577 234.042 180.147 233.208C193.534 230.437 215.993 220.262 231.636 210.724C232.396 210.724 283.615 193.561 300.656 220.066C311.395 236.567 311.15 276.924 306.933 313.825ZM301.441 219.355C286.729 196.675 245.783 205.918 234.554 208.983C238.846 206.368 242.834 203.284 246.445 199.789C250.269 195.787 253.564 191.313 256.253 186.475L277.903 177.232C283.25 174.976 289.056 174.018 294.845 174.437L353.567 178.801C355.547 192.509 353.325 206.495 347.192 218.913L301.441 219.355ZM365.189 218.742L348.197 218.913C354.242 206.493 356.428 192.548 354.474 178.874L371.343 180.149C373.084 196.185 372.692 204.962 365.189 218.742ZM372.544 183.827C378.748 184.023 390.198 183.999 397.946 183.827C392.7 196.17 385.331 207.497 376.173 217.295C373.917 216.952 369.774 216.535 367.396 216.363C373.525 204.84 373.648 194.934 372.642 183.827H372.544ZM412.387 213.249C408.815 216.183 404.813 218.548 400.52 220.262C397.979 220.77 395.362 220.77 392.821 220.262C396.458 218.529 399.901 216.416 403.095 213.96C410.796 208.086 418.889 202.745 427.319 197.974C432.223 195.057 443.697 188.167 447.277 183.999C450.71 184.538 451.151 185.225 451.2 185.421C452.45 190.226 424.401 203.589 412.485 213.2L412.387 213.249Z" fill="#3B29AB"/>
<path d="M223.962 321.891C220.752 318.442 216.524 316.111 211.894 315.239C207.264 314.366 202.477 314.998 198.233 317.042C193.988 319.087 190.509 322.436 188.305 326.599C186.101 330.763 185.287 335.523 185.983 340.182C184.759 340.583 183.641 341.254 182.711 342.145C181.781 343.036 181.063 344.124 180.609 345.329C180.156 346.534 179.979 347.826 180.091 349.109C180.203 350.392 180.601 351.633 181.257 352.741C181.913 353.85 182.809 354.797 183.879 355.513C184.949 356.229 186.167 356.695 187.441 356.878C188.716 357.061 190.015 356.956 191.244 356.57C192.472 356.184 193.599 355.527 194.54 354.648C198.945 358.092 204.493 359.735 210.063 359.245C215.634 358.755 220.81 356.168 224.547 352.008C228.283 347.848 230.301 342.425 230.192 336.835C230.084 331.244 227.857 325.903 223.962 321.891ZM222.27 352.441C218.662 355.807 213.99 357.803 209.064 358.085C204.138 358.367 199.269 356.917 195.3 353.986C196.505 352.623 197.248 350.913 197.421 349.101C197.594 347.29 197.188 345.47 196.262 343.903C195.336 342.337 193.937 341.104 192.266 340.383C190.595 339.661 188.739 339.488 186.963 339.888C186.449 336.282 186.874 332.605 188.197 329.212C189.521 325.819 191.697 322.825 194.517 320.519C197.336 318.214 200.703 316.675 204.291 316.052C207.88 315.429 211.568 315.743 214.999 316.963C218.431 318.183 221.49 320.268 223.879 323.017C226.269 325.765 227.908 329.084 228.64 332.652C229.371 336.22 229.169 339.916 228.053 343.383C226.937 346.85 224.945 349.97 222.27 352.441Z" fill="#3B29AB"/>
</svg>
