<svg width="446" height="415" viewBox="0 0 446 415" fill="none" xmlns="http://www.w3.org/2000/svg">
<path d="M369.118 73.9L251.187 45.826C243.421 44.3989 238.977 47.6274 236.732 53.4059L234.978 58.0849C239.445 65.9691 235.422 79.7721 228.99 83.5855C230.487 98.2308 230.113 105.296 228.522 107.261C226.932 109.226 223.213 110.162 218.792 109.46C219.252 112.541 219.876 115.594 220.663 118.608C222.309 118.749 223.943 119.007 225.552 119.38L249.69 56.3303L363.083 83.8662L327.32 185.962L294.271 176.019C291.721 179.318 288.961 182.827 285.967 186.5L327.531 198.993C333.893 200.911 339.998 198.853 342.828 191.179L377.912 90.0425C380.392 83.0942 379.713 76.4968 369.118 73.9ZM356.16 139.663C356.019 140.193 355.77 140.688 355.43 141.118C355.09 141.547 354.664 141.902 354.181 142.161C353.698 142.419 353.167 142.575 352.62 142.62C352.074 142.665 351.525 142.596 351.006 142.42C350.487 142.243 350.01 141.962 349.605 141.593C349.199 141.224 348.874 140.776 348.649 140.276C348.424 139.776 348.304 139.236 348.296 138.688C348.289 138.139 348.394 137.596 348.605 137.09C348.746 136.56 348.995 136.065 349.335 135.636C349.676 135.206 350.101 134.851 350.584 134.593C351.067 134.334 351.598 134.178 352.145 134.133C352.691 134.089 353.24 134.157 353.759 134.334C354.278 134.51 354.755 134.792 355.16 135.16C355.566 135.529 355.891 135.977 356.116 136.477C356.341 136.977 356.462 137.518 356.469 138.066C356.477 138.614 356.371 139.158 356.16 139.663Z" fill="#3B29AB"/>
<path d="M304.866 151.361C305.683 154.201 305.968 157.167 305.708 160.111C297.458 172.193 288.532 183.799 278.974 194.876C267.864 207.79 258.087 208.913 246.602 197.566C239.585 190.548 221.131 165.141 216.196 157.373C217.288 165.907 217.788 174.505 217.693 183.108C217.459 183.74 217.014 185.026 217.014 185.026C200.057 181.564 181.275 182.5 166.025 189.705C165.545 178.65 164.184 167.651 161.955 156.812C156.109 163.43 149.859 169.68 143.243 175.528C139.641 176.768 136.226 177.867 133.887 178.85C133.279 184.816 132.273 211.018 132.156 222.271C132.156 220.68 129.817 218.832 124.368 217.592C117.774 216.392 111.058 215.999 104.369 216.422C97.3524 216.89 94.3585 218.434 94.148 220.049C94.3112 207.587 95.178 195.144 96.7443 182.78C99.0832 165.024 100.37 159.385 118.777 147.688C140.51 134.143 164.641 124.898 189.859 120.456C200.023 118.672 210.358 118.052 220.663 118.608C233.785 119.754 240.147 126.094 261.057 156.531C264.753 151.595 276.518 138.634 279.933 134.774C287.792 132.645 301.334 139.289 304.866 151.361Z" fill="#FFD0C7"/>
<path d="M309.848 394.669C308.492 386.598 247.023 368.35 244.965 374.947C245.48 371.344 247.608 354.757 248.24 350.85C256.743 350.509 265.257 351.2 273.594 352.909C273.391 356.132 274.335 359.323 276.261 361.916C284.845 373.614 310.176 382.972 309.848 394.669Z" fill="#FFD0C7"/>
<path d="M81.9854 365.004C80.0131 365.407 78.1781 366.312 76.6579 367.631C75.1377 368.951 73.9838 370.641 73.3078 372.537C71.6144 377.061 70.4833 381.775 69.9397 386.574C68.3492 397.5 65.4254 410.718 58.2448 413.806C65.9634 408.215 61.8936 344.627 54.0814 344.627C59.4143 343.434 62.9461 342.288 76.9098 339.129C79.9494 347.434 81.6622 356.166 81.9854 365.004Z" fill="#FFD0C7"/>
<path d="M332.349 89.2237C346.991 101.062 333.916 122.187 319.134 117.695C318.175 115.777 316.959 113.484 315.438 110.677C315.317 108.15 314.578 105.692 313.287 103.518C311.066 102.567 308.684 102.051 306.27 101.997C305.474 90.0191 321.239 80.2166 332.349 89.2237Z" fill="#3B29AB"/>
<path d="M283.02 103.471L286.552 107.285C284.213 112.595 282.202 115.707 282.178 117.391C282.178 121.626 283.441 126.094 282.997 134.399C281.957 134.376 280.918 134.494 279.909 134.75L275.653 139.663C267.115 142.424 250.625 135.522 249.924 118.608C249.105 99.1431 268.495 89.3172 280.026 94.2535L283.02 103.471Z" fill="#3B29AB"/>
<path d="M43.4156 320.647L22.9964 306.353L37.2875 285.929C37.4116 285.755 37.4616 285.539 37.4265 285.329C37.3914 285.118 37.2741 284.93 37.1004 284.806C36.9267 284.682 36.7109 284.632 36.5003 284.667C36.2898 284.702 36.1018 284.819 35.9777 284.993L21.6632 305.417L1.26733 291.123C1.18035 291.061 1.0819 291.018 0.977809 290.995C0.87372 290.972 0.76612 290.971 0.661397 290.99C0.556675 291.01 0.456966 291.05 0.368191 291.109C0.279417 291.168 0.203387 291.244 0.144617 291.333C0.0240879 291.508 -0.0237723 291.723 0.0111416 291.933C0.0460555 292.142 0.161012 292.33 0.331736 292.456L20.751 306.751L6.45985 327.151C6.37294 327.271 6.32102 327.412 6.3099 327.559C6.29878 327.707 6.32891 327.854 6.39691 327.985C6.4649 328.116 6.56808 328.226 6.69487 328.302C6.82167 328.378 6.96706 328.417 7.11476 328.414C7.24519 328.414 7.37395 328.385 7.49141 328.328C7.60887 328.272 7.71199 328.189 7.79306 328.087L22.0608 307.663C44.4682 323.361 42.6204 322.145 42.9011 322.145C43.0932 322.19 43.2955 322.163 43.4685 322.068C43.6415 321.972 43.7729 321.816 43.8371 321.629C43.9013 321.442 43.8937 321.238 43.8158 321.057C43.7379 320.875 43.5953 320.729 43.4156 320.647Z" fill="#3B29AB"/>
<path d="M317.052 225.804C317.035 225.698 316.998 225.598 316.941 225.507C316.885 225.417 316.81 225.339 316.723 225.278C316.636 225.217 316.537 225.174 316.433 225.152C316.329 225.13 316.221 225.128 316.117 225.149L302.714 227.488L300.375 214.059C300.336 213.85 300.215 213.664 300.041 213.542C299.866 213.419 299.65 213.37 299.44 213.404C299.335 213.421 299.234 213.459 299.144 213.516C299.053 213.572 298.975 213.646 298.914 213.734C298.853 213.821 298.81 213.919 298.788 214.024C298.766 214.128 298.765 214.235 298.785 214.34L301.124 227.769L287.698 230.108C287.487 230.127 287.292 230.229 287.156 230.391C287.02 230.553 286.955 230.763 286.973 230.974C286.992 231.185 287.093 231.38 287.256 231.516C287.418 231.652 287.628 231.718 287.839 231.699C288.026 231.699 287.979 231.699 301.405 229.36L303.744 242.765C303.776 242.953 303.874 243.124 304.019 243.248C304.164 243.372 304.348 243.441 304.539 243.443C304.657 243.442 304.774 243.415 304.881 243.363C304.988 243.312 305.082 243.239 305.158 243.147C305.233 243.056 305.288 242.95 305.319 242.835C305.349 242.721 305.354 242.601 305.334 242.484L302.995 229.079L316.397 226.739C316.503 226.723 316.603 226.685 316.694 226.628C316.784 226.572 316.862 226.498 316.923 226.41C316.984 226.323 317.027 226.224 317.049 226.12C317.071 226.016 317.073 225.908 317.052 225.804Z" fill="#3B29AB"/>
<path d="M65.9166 160.321C60.7308 160.321 55.6615 158.783 51.3496 155.901C47.0378 153.02 43.6771 148.924 41.6926 144.132C39.7081 139.339 39.1888 134.066 40.2005 128.979C41.2122 123.892 43.7094 119.219 47.3764 115.551C51.0433 111.883 55.7152 109.385 60.8014 108.374C65.8876 107.362 71.1595 107.881 75.9506 109.866C80.7416 111.851 84.8366 115.212 87.7177 119.525C90.5988 123.838 92.1365 128.908 92.1365 134.095C92.1304 141.049 89.3659 147.716 84.4501 152.633C79.5342 157.55 72.8687 160.315 65.9166 160.321ZM65.9166 109.484C61.0434 109.479 56.2783 110.921 52.2245 113.626C48.1706 116.331 45.0102 120.178 43.1431 124.681C41.2761 129.183 40.7864 134.138 41.736 138.919C42.6855 143.7 45.0317 148.092 48.4776 151.538C51.9235 154.985 56.3142 157.332 61.094 158.282C65.8738 159.231 70.8279 158.742 75.3293 156.874C79.8307 155.007 83.6771 151.845 86.3816 147.791C89.0861 143.736 90.5273 138.97 90.5227 134.095C90.5165 127.57 87.9221 121.314 83.3089 116.699C78.6957 112.085 72.4407 109.49 65.9166 109.484Z" fill="#3B29AB"/>
<path d="M175.708 340.861C175.501 340.81 175.321 340.683 175.203 340.505C175.086 340.327 175.041 340.111 175.077 339.901C175.122 339.691 175.247 339.507 175.427 339.389C175.606 339.271 175.825 339.228 176.036 339.27C196.548 343.388 217.454 345.208 238.369 344.697C238.474 344.694 238.578 344.712 238.675 344.749C238.773 344.786 238.862 344.842 238.938 344.914C239.014 344.985 239.076 345.071 239.118 345.167C239.161 345.262 239.185 345.365 239.188 345.469C239.188 345.685 239.106 345.892 238.958 346.049C238.81 346.206 238.608 346.3 238.393 346.312C217.36 346.826 196.336 344.997 175.708 340.861Z" fill="#3B29AB"/>
<path d="M282.482 340.977C282.44 340.77 282.48 340.554 282.593 340.375C282.706 340.196 282.885 340.068 283.09 340.018C390.286 316.226 434.679 186.056 367.691 84.2406C341.12 43.7439 279.255 9.61057 226.861 6.42885C179.708 3.57465 154.704 17.4245 152.552 47.6742C150.4 77.924 132.18 83.7259 102.919 75.023C73.6586 66.3201 44.0004 73.0344 25.733 92.5225C2.69415 117.04 -0.36991 156.929 17.1256 204.818C35.8374 256.171 71.2027 295.919 119.315 319.805C119.508 319.898 119.655 320.064 119.725 320.266C119.796 320.467 119.783 320.689 119.69 320.881C119.597 321.074 119.431 321.221 119.229 321.291C119.027 321.361 118.806 321.349 118.614 321.255C70.1034 297.182 34.4106 257.106 15.6988 205.38C-8.18208 139.874 11.0209 105.834 24.6571 91.3761C43.3689 71.4202 73.7756 64.5654 103.551 73.4321C131.595 81.8777 148.857 77.1052 150.938 47.5573C153.277 16.2781 178.749 1.89021 226.955 4.81459C279.792 8.0431 342.22 42.5273 369.048 83.3516C436.878 186.617 391.198 317.676 283.441 341.586C283.338 341.61 283.232 341.613 283.127 341.596C283.023 341.578 282.923 341.54 282.834 341.483C282.745 341.426 282.668 341.352 282.607 341.266C282.547 341.179 282.504 341.081 282.482 340.977Z" fill="#3B29AB"/>
<path d="M98.7792 25.0277C77.3775 19.1555 78.9213 19.5299 78.664 19.5767C-2.54522 34.5495 26.4347 28.7007 19.9557 29.9406C18.7148 30.1603 17.5293 30.6223 16.4669 31.3002C15.4045 31.9782 14.4859 32.8588 13.7638 33.8918C12.3053 35.978 11.7351 38.5582 12.1786 41.065C12.6222 43.5717 14.0431 45.7995 16.1289 47.2583C18.2146 48.7171 20.7943 49.2874 23.3005 48.8438C86.6165 37.7078 82.0087 38.5968 82.4999 38.2225L99.0365 26.525C99.1754 26.4392 99.2856 26.3138 99.3528 26.1649C99.42 26.016 99.4411 25.8504 99.4134 25.6894C99.3857 25.5284 99.3106 25.3794 99.1975 25.2615C99.0845 25.1435 98.9388 25.0621 98.7792 25.0277ZM36.4923 44.9836L33.7089 29.2388L78.1494 21.4015L80.9328 37.1463L36.4923 44.9836ZM26.5282 46.7383L23.7682 30.9934L32.095 29.5195L34.8784 45.2644L26.5282 46.7383ZM22.9964 47.3465C20.9495 47.6236 18.8749 47.0981 17.2067 45.8799C15.5384 44.6617 14.406 42.8453 14.0463 40.8109C13.6867 38.7765 14.1277 36.6818 15.2772 34.9652C16.4266 33.2487 18.1953 32.0434 20.213 31.6017L22.1777 31.2742L24.9377 47.019L22.9964 47.3465ZM82.4063 36.3977L79.7867 21.5886L96.6975 26.2676L82.4063 36.3977Z" fill="#3B29AB"/>
<path d="M403.477 51.9789C402.109 44.2849 400.131 36.7122 397.56 29.3325C402.963 17.3777 394.496 4.88475 382.356 0.0653834C382.212 0.00268673 382.051 -0.0154537 381.896 0.0132733C381.741 0.0420003 381.598 0.116295 381.485 0.226693C381.372 0.337092 381.294 0.478599 381.262 0.63319C381.23 0.787782 381.245 0.948462 381.304 1.09476C385.21 11.1312 375.316 21.2145 385.748 31.5083C385.883 39.3503 386.61 47.1709 387.923 54.9033C390.262 68.5192 396.928 96.4762 402.425 101.296C403.992 102.676 405.278 101.974 406.05 100.032C409.068 92.3353 405.816 65.1971 403.477 51.9789ZM387.362 31.789L396.18 30.2683C398.196 36.2917 399.875 42.423 401.209 48.6334L388.929 50.8092C388.062 44.5022 387.539 38.1528 387.362 31.789ZM402.916 99.6345C399.875 96.0317 393.701 78.0877 389.514 54.5056L389.069 52.4L401.419 50.2243C401.559 50.9027 401.676 51.5812 401.817 52.2596C405.887 75.4207 406.284 94.0899 404.74 99.0497C404.343 100.524 403.758 100.57 402.916 99.5877V99.6345Z" fill="#3B29AB"/>
<path d="M331.882 143.336L320.935 131.428C324.256 126.562 323.555 123.848 316.257 110.373C316.152 107.715 315.345 105.132 313.918 102.886C312.702 101.67 305.451 100.757 292.353 100.149C289.569 97.1078 289.663 97.178 289.429 97.0844L280.424 93.2944C280.281 93.2393 280.125 93.2256 279.974 93.255C279.823 93.2844 279.684 93.3556 279.571 93.4605C279.459 93.5655 279.379 93.6999 279.339 93.8484C279.3 93.9969 279.303 94.1536 279.348 94.3004L282.365 103.658C282.365 103.916 282.365 103.658 285.663 107.378C283.324 112.549 281.453 115.473 281.453 117.344C281.453 121.532 282.646 125.767 282.295 133.557C281.443 133.595 280.596 133.72 279.769 133.932C279.62 133.977 279.484 134.057 279.372 134.166C275.91 138.143 265.338 149.63 261.128 155.221C240.778 125.626 234.229 119.123 220.897 117.789C220.453 115.449 220.079 112.829 219.798 110.349C222.651 110.7 226.066 110.794 228.171 108.875C231.844 105.53 230.651 97.3652 229.902 83.9598C239.913 77.3156 243.562 49.6861 221.505 51.2068C223.447 27.4375 189.882 23.5539 187.005 43.1823C168.808 30.8297 142.237 51.5577 159.639 66.3668C149.933 68.4723 147.29 80.8951 156.599 82.5561C133.209 100.968 151.523 137.09 202.302 108.571C196.789 112.945 190.974 116.924 184.9 120.479C161.352 125.273 138.864 134.284 118.52 147.08C99.8084 158.777 98.2179 164.93 96.0894 182.64C94.4972 195.056 93.6303 207.555 93.4932 220.072C93.4671 220.432 93.5137 220.794 93.6302 221.135C93.7468 221.477 93.9308 221.792 94.1715 222.061C96.0316 223.797 98.4383 224.831 100.978 224.985C98.4986 226.903 94.4756 229.664 93.54 232.003C92.2301 235.443 91.3647 237.759 89.6105 241.946C89.2129 242.929 87.9732 245.947 89.6105 246.929C92.3705 248.614 98.9664 241.057 100.908 238.694C101.809 237.611 103.042 236.854 104.416 236.542C103.13 238.85 102.237 241.357 101.773 243.958C97.2097 246.115 92.3427 247.559 87.3417 248.24C83.8098 248.778 82.0088 249.784 82.0322 251.234C82.0556 252.685 83.6695 253.574 86.3827 253.901C88.3687 254.03 90.361 254.03 92.3471 253.901C91.4115 254.392 90.5227 254.79 89.6807 255.165C85.7278 256.802 83.5058 258.931 83.9969 260.545C84.2075 261.2 84.8624 261.879 86.6634 261.879C90.9273 261.299 95.091 260.134 99.0366 258.416C97.4227 260.148 96.0193 261.505 94.5925 262.815C90.9437 266.23 89.4935 269.038 90.5928 270.535C91.6922 272.032 94.7094 270.933 96.4871 269.903C99.9449 267.877 103.203 265.527 106.217 262.885C105.328 264.866 104.393 266.831 103.41 268.78C101.071 273.179 100.627 275.799 102.03 276.735C103.831 277.951 106.896 275.191 108.369 273.459C114.217 266.441 124.414 250.064 125.397 246.298C126.098 243.748 125.935 233.875 125.677 226.435C129.934 226.131 132.928 224.564 133.092 222.458C133.092 222.224 133.7 191.32 134.776 179.435C144.172 175.836 153.742 172.713 163.452 170.077C164.341 176.487 164.996 183.084 165.23 189.05C153.768 194.4 144.852 204.023 140.39 215.861C130.332 242.461 133.911 278.302 136.086 315.804L69.3316 330.801C65.636 331.502 64.4431 337.164 64.8173 341.118C62.759 341.632 55.6953 343.457 53.8709 343.855C48.1405 344.042 47.275 360.559 47.2516 370.432C47.2516 386.2 49.5906 408.612 54.6662 413.876C55.104 414.451 55.7433 414.838 56.4552 414.959C57.1671 415.081 57.8985 414.928 58.5021 414.531C66.1038 411.233 69.0509 398.155 70.7583 386.715C71.2759 382.656 72.1366 378.649 73.3312 374.736C73.6714 375.669 74.2577 376.492 75.0278 377.118C75.7978 377.744 76.723 378.15 77.7051 378.292C78.4536 378.292 76.4654 378.526 93.2359 374.877C110.006 371.227 134.963 365.799 150.003 361.425C170.679 355.459 175.872 346.733 180.41 328.157C183.357 315.851 193.157 274.582 195.215 265.973C204.782 268.687 223.797 275.027 237.714 279.823C238.112 288.222 237.995 337.328 237.714 355.342C237.714 358.921 242.556 360.887 246.041 361.659C245.643 364.513 244.568 373.146 244.31 374.994C242.837 380.187 256.941 385.943 269.08 389.873C276.448 392.212 311.813 402.46 310.807 394.833C311.088 382.784 287.815 374.432 278.062 362.875C280.728 362.665 284.213 361.752 284.26 359.085V289.976C284.26 264.733 282.669 258.44 264.238 243.186C247.254 229.501 229.529 216.763 211.144 205.029C214.933 192.817 218.932 181.798 223.727 169.726C231.025 179.973 240.966 193.121 246.018 198.127C258.274 210.152 268.612 208.258 279.559 195.414C289.149 184.377 298.091 172.792 306.34 160.719C306.431 160.606 306.48 160.466 306.48 160.321C306.723 157.379 306.446 154.417 305.662 151.571C306.761 149.115 311.439 144.155 315.017 139.593L324.677 150.097C325.114 150.569 325.638 150.95 326.222 151.219C326.805 151.488 327.436 151.639 328.078 151.664C328.719 151.689 329.36 151.587 329.962 151.364C330.565 151.142 331.118 150.803 331.589 150.367C332.061 149.93 332.442 149.405 332.71 148.822C332.979 148.238 333.13 147.608 333.155 146.966C333.18 146.324 333.078 145.683 332.856 145.08C332.633 144.478 332.294 143.925 331.858 143.453L331.882 143.336ZM312.702 104.15C314.667 106.021 315.228 116.526 315.415 119.965V120.503C315.427 120.706 315.516 120.896 315.664 121.035C315.812 121.174 316.007 121.252 316.21 121.251C316.32 121.252 316.428 121.23 316.529 121.187C316.63 121.144 316.721 121.082 316.798 121.003C316.874 120.925 316.934 120.832 316.974 120.73C317.013 120.628 317.032 120.519 317.029 120.409C316.912 118.538 316.795 116.783 316.631 114.724C322.058 124.924 321.988 126.96 319.766 130.212L306.55 115.847C306.738 113.715 306.738 111.57 306.55 109.437C306.54 109.267 306.475 109.105 306.366 108.974C306.256 108.843 306.108 108.752 305.942 108.712C304.82 108.431 302.504 108.033 298.925 107.472L293.826 101.951C306.621 102.606 312.024 103.518 312.702 104.15ZM219.938 93.7623C220.023 93.6253 220.068 93.4673 220.068 93.3061C220.068 93.1449 220.023 92.9869 219.938 92.8499C215.985 87.4223 219.517 83.6557 221.178 87.5159C221.716 88.8026 222.441 88.9663 222.932 88.8494C224.476 88.5452 224.99 85.1764 225.131 83.1878C226.195 83.3438 227.234 83.6428 228.218 84.0768C228.779 94.0899 229.622 101.88 228.218 105.67C228.031 106.208 227.914 106.63 227.236 106.747C226.557 106.864 223.891 106.396 218.792 102.699C218.671 102.611 218.527 102.559 218.378 102.548C218.229 102.538 218.079 102.57 217.947 102.641C217.815 102.712 217.706 102.819 217.632 102.949C217.558 103.079 217.522 103.228 217.529 103.378C217.744 108.18 218.275 112.963 219.12 117.695C209.136 117.305 199.139 117.98 189.298 119.707C201.788 111.917 215.845 100.079 219.938 93.7623ZM86.6166 252.31C84.5817 252.053 83.763 251.398 83.7163 251.234C83.6695 251.07 84.0905 250.369 87.6457 249.83C92.934 249.073 98.0715 247.495 102.872 245.151C102.998 245.102 103.108 245.019 103.19 244.912C103.273 244.805 103.324 244.677 103.34 244.543C103.797 241.624 104.848 238.829 106.428 236.332C107.252 236.397 108.051 236.644 108.767 237.057C112.322 239.092 113.117 244.075 110.965 250.766C108.487 249.367 106.206 247.644 104.182 245.643C104.033 245.494 103.831 245.411 103.621 245.411C103.411 245.411 103.209 245.494 103.06 245.643C102.982 245.717 102.921 245.806 102.879 245.904C102.837 246.003 102.816 246.109 102.816 246.216C102.816 246.323 102.837 246.429 102.879 246.527C102.921 246.626 102.982 246.715 103.06 246.789L103.223 246.976C100.346 248.988 98.0074 250.556 95.9959 251.772C92.8826 252.292 89.722 252.472 86.5698 252.31H86.6166ZM88.7217 259.984C86.3827 260.452 85.7044 260.124 85.6108 259.984C85.5173 259.843 86.64 258.112 90.2888 256.545C95.2558 254.231 99.9607 251.392 104.323 248.076C104.907 248.59 105.539 249.105 106.17 249.596C104.416 251.936 102.919 253.831 101.492 255.445C97.4146 257.46 93.1119 258.984 88.6749 259.984H88.7217ZM95.7386 268.523C93.3996 269.927 92.0898 269.786 91.9495 269.576C91.8091 269.365 91.9495 267.587 95.7386 264.008C100.124 259.94 104.089 255.441 107.574 250.579C108.486 251.211 109.445 251.796 110.404 252.334C109.632 254.673 108.79 256.802 107.878 259.025C104.225 262.674 100.141 265.864 95.7152 268.523H95.7386ZM123.806 245.76C122.941 248.895 113.094 265.178 107.083 272.313C104.884 274.91 103.153 275.448 102.896 275.284C102.639 275.12 102.194 274.302 104.79 269.412C107.604 263.853 110.035 258.108 112.065 252.217C116.228 240.519 111.129 236.636 109.445 235.676C107.836 234.803 105.974 234.516 104.177 234.866C102.38 235.217 100.761 236.181 99.5979 237.595C94.1247 244.192 90.9203 245.69 90.3823 245.502C90.3823 245.502 90.0315 244.917 91.0373 242.484C92.6044 238.741 93.54 236.285 94.9901 232.495C96.1128 229.57 104.112 225.476 104.767 223.137C105.196 221.147 105.361 219.11 105.258 217.077C111.416 216.765 117.589 217.133 123.666 218.177C123.923 221.897 124.765 242.25 123.876 245.76H123.806ZM145.582 315.383C145.789 315.328 145.965 315.195 146.074 315.011C146.184 314.827 146.217 314.608 146.167 314.401C146.145 314.298 146.103 314.2 146.042 314.114C145.981 314.029 145.903 313.956 145.814 313.901C145.724 313.846 145.624 313.811 145.52 313.796C145.415 313.781 145.309 313.788 145.208 313.816L137.606 315.524C135.267 276.945 132.086 242.297 141.816 216.539C144.061 210.62 147.476 205.213 151.856 200.643C156.237 196.073 161.493 192.432 167.311 189.939C178.108 185.316 189.827 183.25 201.554 183.903C185.742 204.631 174.281 248.24 163.405 328.952C136.226 337.468 96.0427 346.779 80.8159 350.008C79.5295 344.066 76.98 334.895 72.6763 331.853C77.7987 330.567 141.676 316.319 145.652 315.383H145.582ZM69.1678 386.481C67.8814 394.996 65.6594 405.945 60.7943 410.952C65.2384 398.248 62.4316 352.067 56.1164 344.978C60.3967 343.949 65.4723 342.638 76.3017 340.112C79.1079 347.93 80.7395 356.122 81.1434 364.419C72.0214 367.297 70.5712 376.865 69.1678 386.481ZM288.704 374.011C296.516 379.556 306.293 385.521 308.539 391.674C298.785 383.603 255.046 370.291 246.018 373.239C247.468 362.477 247.374 362.033 248.918 351.692C256.919 351.428 264.923 352.08 272.776 353.634C272.869 360.348 275.512 364.606 288.704 374.011ZM262.975 244.333C280.26 258.721 282.436 263.844 282.412 289.976V355.833C279.886 353.494 273.852 351.435 260.87 350.382C249.55 349.47 242.158 350.172 239.188 352.464C239.492 332.111 239.562 285.367 239.188 279.074C239.181 278.916 239.126 278.764 239.029 278.639C238.933 278.513 238.801 278.42 238.65 278.372C228.92 275.003 216.523 270.839 206.629 267.681C206.372 256.615 205.881 231.348 206.629 220.493C207.986 215.65 209.319 211.135 210.676 206.62C228.8 218.225 246.275 230.815 263.022 244.333H262.975ZM178.772 327.666C174.632 344.955 170.422 353.751 149.582 359.764C130.005 365.449 93.0254 373.075 81.0498 375.813C84.2308 370.104 82.4298 357.845 81.1668 351.435C96.5105 348.23 137.138 338.802 164.388 330.216C164.533 330.17 164.662 330.084 164.761 329.968C164.861 329.852 164.926 329.711 164.949 329.561C175.965 247.678 187.52 204.163 203.542 184.02C207.721 184.259 211.878 184.782 215.985 185.588C202.864 221.944 195.613 257.106 178.749 327.666H178.772ZM304.866 159.877C296.692 171.876 287.828 183.39 278.319 194.361C267.887 206.596 258.601 208.258 247.117 196.981C239.726 189.705 220.663 163.058 216.944 156.952C216.844 156.802 216.697 156.689 216.525 156.632C216.354 156.574 216.169 156.574 215.998 156.633C215.827 156.692 215.68 156.806 215.581 156.956C215.481 157.107 215.434 157.287 215.447 157.467C216.529 165.892 217.037 174.38 216.968 182.874C216.804 183.272 216.664 183.669 216.523 184.067C199.893 180.792 181.673 181.728 166.82 188.395C166.235 175.996 163.662 157.186 159.99 145.91C159.958 145.81 159.907 145.717 159.839 145.637C159.771 145.557 159.688 145.491 159.595 145.443C159.501 145.395 159.399 145.366 159.294 145.358C159.19 145.35 159.084 145.362 158.984 145.395C158.781 145.464 158.612 145.611 158.516 145.804C158.42 145.997 158.403 146.22 158.47 146.424C159.517 149.77 160.392 153.166 161.09 156.601C155.418 163.005 149.373 169.067 142.986 174.756C139.501 175.926 136.273 177.095 133.77 178.031C133.631 178.086 133.509 178.179 133.418 178.298C133.327 178.418 133.271 178.56 133.256 178.71C132.648 184.465 131.759 207.509 131.548 219.534C129.503 218.173 127.19 217.264 124.765 216.867H124.648C118.169 215.487 100.697 214.364 95.1539 217.849C95.3685 206.176 96.2274 194.523 97.7267 182.944C99.8084 165.421 101.212 159.877 119.386 148.53C149.161 129.814 183.614 119.263 213.927 119.263C233.551 119.263 237.878 123.942 264.917 163.713C264.973 163.802 265.047 163.877 265.134 163.936C265.221 163.995 265.318 164.035 265.421 164.055C265.524 164.074 265.63 164.073 265.732 164.051C265.834 164.028 265.931 163.985 266.016 163.924C266.194 163.805 266.319 163.62 266.362 163.41C266.406 163.2 266.366 162.982 266.25 162.801C264.776 160.649 263.373 158.59 262.016 156.648C265.969 151.525 276.705 139.71 280.354 135.593C285.663 134.329 292.563 137.347 296.727 140.833C299.529 143.107 301.734 146.029 303.153 149.347C304.571 152.666 305.159 156.28 304.866 159.877ZM304.866 149.396C303.126 145.099 300.245 141.36 296.535 138.581C292.825 135.802 288.427 134.089 283.816 133.627C284.166 125.673 282.974 121.485 282.974 117.391C282.974 115.73 285.71 111.519 288.494 104.664C289.031 103.354 289.71 102.863 290.037 102.98C290.879 103.214 292.049 105.881 291.09 111.215C289.265 121.556 295.768 126.679 301.405 124.644L313.942 138.283C310.644 142.471 306.784 146.682 304.983 149.396H304.866ZM292.4 112.595C292.4 112.221 292.4 111.87 292.563 111.496C293.499 106.232 292.563 102.138 290.365 101.412C289.874 101.272 288.026 101.038 286.88 104.056C286.646 104.664 286.388 105.249 286.155 105.811L283.816 103.05L281.477 95.5871L288.727 98.6051L323.344 136.435C321.27 137.313 319.572 138.896 318.549 140.903L292.4 112.595ZM319.649 142.213C320.031 141.161 320.652 140.211 321.464 139.44C322.276 138.668 323.256 138.096 324.327 137.768L325.543 139.078C323.46 139.941 321.752 141.517 320.725 143.524L319.649 142.213ZM330.595 149.021C330.279 149.324 329.906 149.559 329.497 149.714C329.089 149.869 328.653 149.94 328.216 149.922C327.78 149.905 327.351 149.799 326.956 149.612C326.561 149.425 326.208 149.161 325.917 148.834L322.222 144.81C322.624 143.746 323.269 142.79 324.106 142.018C324.942 141.247 325.947 140.681 327.04 140.365L330.595 144.342C330.912 144.644 331.165 145.007 331.337 145.409C331.51 145.811 331.598 146.244 331.598 146.682C331.598 147.119 331.51 147.552 331.337 147.955C331.165 148.357 330.912 148.72 330.595 149.021Z" fill="#3B29AB"/>
<path d="M383.058 227.863C370.604 227.858 358.428 231.548 348.07 238.465C337.713 245.383 329.639 255.217 324.869 266.725C320.1 278.232 318.85 290.896 321.277 303.114C323.703 315.333 329.699 326.557 338.503 335.367C347.308 344.177 358.528 350.177 370.742 352.609C382.957 355.041 395.618 353.796 407.125 349.029C418.632 344.263 428.467 336.191 435.387 325.834C442.307 315.476 446 303.299 446 290.842C445.951 274.158 439.304 258.171 427.512 246.372C415.719 234.572 399.738 227.918 383.058 227.863ZM383.058 352.207C372.441 352.203 362.006 349.443 352.773 344.199C343.541 338.954 335.827 331.403 330.385 322.285C362.382 301.978 385.491 269.529 395.548 230.764C410.413 233.857 423.603 242.354 432.567 254.611C441.532 266.868 445.634 282.015 444.08 297.121C442.526 312.228 435.427 326.222 424.156 336.397C412.884 346.572 398.241 352.205 383.058 352.207Z" fill="#3B29AB"/>
</svg>
