<svg width="332" height="381" viewBox="0 0 332 381" fill="none" xmlns="http://www.w3.org/2000/svg">
<path d="M189.749 315.42C189.749 315.42 190.869 304.86 190.769 304.84L194.169 305.66L200.029 249.66L182.269 224.92L179.189 255.04C178.998 258.016 178.114 260.906 176.607 263.479C175.1 266.053 173.012 268.238 170.509 269.86C167.877 271.61 164.839 272.655 161.687 272.893C158.535 273.131 155.375 272.555 152.509 271.22L96.8493 245.74L95.7693 249.74L85.9893 245.24L88.9893 235.62C85.8842 234.022 82.5826 232.838 79.1693 232.1C97.4093 318.8 100.269 332.88 100.889 335.04C101.069 335.62 101.149 335.58 101.249 335.58L195.249 332.74C195.333 332.72 195.407 332.673 195.46 332.606C195.514 332.539 195.543 332.456 195.543 332.37C195.543 332.284 195.514 332.201 195.46 332.134C195.407 332.067 195.333 332.019 195.249 332L196.929 317.14L189.749 315.42Z" fill="#3B29AB"/>
<path d="M48.7293 87.6001C49.0493 89.1801 51.0893 99.1801 54.0093 113.6C76.0093 115.3 124.009 118.9 146.129 120.14C146.369 120.14 149.809 119.7 151.329 119.56C154.409 119.26 156.529 119.1 157.329 118.94C163.889 117.68 162.589 109.64 162.589 109.64C161.149 104.06 149.209 94.7601 149.209 94.7601C144.609 90.1001 150.609 89.2201 150.609 89.2201C150.355 88.7668 150.235 88.2501 150.265 87.7311C150.296 87.2121 150.474 86.7126 150.779 86.2917C151.084 85.8708 151.503 85.5462 151.987 85.3563C152.471 85.1664 152.999 85.1191 153.509 85.2201C153.849 85.3801 154.389 84.6001 154.709 84.0801L49.0893 87.1601C49.0345 87.1587 48.9801 87.1699 48.9302 87.1927C48.8804 87.2156 48.8364 87.2496 48.8017 87.292C48.7669 87.3344 48.7424 87.3843 48.7298 87.4377C48.7173 87.4911 48.7171 87.5466 48.7293 87.6001Z" fill="#3B29AB"/>
<path d="M195.989 173.52C224.989 224.8 222.169 219.52 222.509 221.16C222.537 221.251 222.599 221.328 222.681 221.376C222.763 221.424 222.86 221.439 222.953 221.419C223.045 221.399 223.128 221.345 223.182 221.267C223.237 221.19 223.261 221.094 223.249 221L204.649 132.58L195.989 137.68V173.52Z" fill="#3B29AB"/>
<path d="M279.569 29C279.557 28.9395 279.529 28.883 279.49 28.8354C279.45 28.7878 279.4 28.7505 279.343 28.7269C279.286 28.7032 279.223 28.6939 279.162 28.6997C279.1 28.7054 279.041 28.7262 278.989 28.76L193.629 82.76L169.989 83.52C172.469 86.78 181.669 99.52 177.529 104.96C176.778 105.804 175.853 106.476 174.817 106.928C173.781 107.38 172.659 107.603 171.529 107.58C171.61 109.435 172.373 111.194 173.673 112.52C174.972 113.845 176.717 114.643 178.569 114.76L198.569 103.38L194.349 83.38L278.989 29.78L330.989 276.68L246.249 330.34L232.969 267.2C232.941 267.109 232.88 267.032 232.798 266.984C232.716 266.936 232.619 266.921 232.526 266.941C232.433 266.961 232.351 267.015 232.296 267.093C232.241 267.17 232.217 267.266 232.229 267.36C232.549 268.96 232.969 263.94 227.849 309L230.889 309.14L230.069 319.52L222.549 319.76C221.887 323.818 221.626 327.931 221.769 332.04L246.009 331.32C246.009 331.32 246.009 331.32 246.369 331.14C247.809 330.3 257.729 323.92 331.609 277.14C331.989 276.86 334.269 288.06 279.569 29Z" fill="#3B29AB"/>
<path d="M73.6893 206.2C73.6893 206.4 80.0093 204.48 80.0093 204.48L98.9493 213.28L103.669 205.4L113.669 209.6C113.169 210.12 111.109 213.46 111.109 213.46L140.829 226.86C133.709 188.9 149.989 175.48 149.989 175.48L144.469 148.92L60.1693 138.38L73.6893 206.2Z" fill="#3B29AB"/>
<path d="M263.989 16.66C263.629 9.14001 261.589 7.68001 259.849 15.78C259.453 18.0467 258.885 20.2798 258.149 22.46C257.989 19.4 257.689 14.8 257.389 10.46C256.869 2.88001 254.549 1.86001 253.009 10.6C252.539 13.8371 251.749 17.0194 250.649 20.1C249.969 15.92 248.849 9.50001 247.709 5.44001C245.709 -1.57999 243.409 -1.47999 243.269 6.40001C243.269 7.50001 242.969 17.8 242.889 20.52C241.989 18.28 240.769 15.2 239.629 12.04C237.269 5.62001 234.009 5.78001 235.629 13.6C235.809 14.46 237.389 23.12 237.869 25.6C238.149 27.18 238.309 31.12 236.989 31.6C232.989 33.06 223.389 29.38 221.969 32.6C221.049 34.7 227.829 36.6 232.309 38.4C234.909 39.44 236.309 43.68 235.789 46.6C233.789 57.2 235.169 49.24 229.029 86.6L195.849 104.98L196.189 137.7L246.689 108.02C249.33 106.471 251.572 104.327 253.235 101.757C254.899 99.1868 255.938 96.2633 256.269 93.22C257.529 81.58 259.529 63.22 261.289 50.14C262.884 39.0469 263.786 27.8653 263.989 16.66Z" fill="#FFD0C7"/>
<path d="M146.169 120.1L49.2093 113.32C46.0893 113.08 41.8293 110.78 41.0293 108.22C39.6493 103.82 38.3693 97.3401 36.0893 97.6601C32.5893 98.1201 35.3693 107.66 33.4293 110.7C32.7493 111.78 28.5693 110.7 27.0693 110L14.7093 105.08C6.70932 101.76 6.20932 104.6 12.7093 108.26C17.8093 111.16 21.6493 113.56 22.8093 114.26C19.0493 113.24 11.6093 111.28 7.22932 110.16C-1.31068 107.98 -1.29068 110.84 5.76932 113.56C12.2693 116.06 20.0693 119.18 20.6293 119.42C17.4493 119 12.1893 118.24 7.12932 117.22C-1.57068 115.46 -1.17068 118.1 5.96932 120.68C11.4493 122.68 17.0493 124.4 19.1493 124.92C16.0883 124.856 13.035 124.588 10.0093 124.12C1.14932 122.72 1.74932 125.36 9.34932 127.66C14.7093 129.3 18.0493 129.86 27.9493 132.56C37.3329 134.876 46.833 136.692 56.4093 138L144.529 148.88L147.289 161.92C159.749 168.54 146.169 120.1 146.169 120.1Z" fill="#FFD0C7"/>
<path d="M178.469 114.76C176.649 114.581 174.953 113.757 173.687 112.437C172.422 111.116 171.67 109.386 171.569 107.56C176.329 107.42 183.229 104.26 174.529 89.7599C165.109 74.0799 160.089 86.4199 160.969 93.1799C160.969 94.4199 160.349 94.7399 158.349 93.4399C154.169 90.7399 151.649 97.7999 159.389 100.72C160.849 101.28 166.649 116.46 157.889 118.72L155.709 119.02L159.709 137.02L186.169 134.72V110.38L178.469 114.76Z" fill="#FFD0C7"/>
<path d="M61.4893 49.2999C61.157 47.2048 60.3575 45.2114 59.1501 43.4672C57.9428 41.7231 56.3584 40.2729 54.5145 39.2242C52.6706 38.1755 50.6144 37.555 48.4981 37.4089C46.3819 37.2628 44.2599 37.5946 42.2893 38.3799C41.6075 37.3265 40.6816 36.4531 39.5902 35.8339C38.4988 35.2147 37.2741 34.868 36.0201 34.8231C34.7661 34.7782 33.5198 35.0366 32.3869 35.5762C31.254 36.1158 30.2681 36.9208 29.5127 37.9228C28.7574 38.9248 28.2549 40.0942 28.048 41.3319C27.8411 42.5695 27.9358 43.8388 28.3241 45.032C28.7125 46.2253 29.383 47.3072 30.2787 48.1859C31.1744 49.0647 32.2689 49.7144 33.4693 50.0799C33.254 52.089 33.4718 54.1209 34.108 56.0387C34.7442 57.9565 35.784 59.7158 37.1574 61.1978C38.5308 62.6799 40.2059 63.8504 42.0699 64.6305C43.9338 65.4105 45.9433 65.7821 47.9629 65.72C49.9825 65.658 51.9654 65.1638 53.778 64.2708C55.5905 63.3778 57.1906 62.1068 58.4705 60.5432C59.7504 58.9796 60.6803 57.1599 61.1976 55.2067C61.7149 53.2534 61.8075 51.212 61.4693 49.2199L61.4893 49.2999ZM49.7093 64.7799C47.6949 65.1076 45.6323 64.9708 43.6788 64.38C41.7253 63.7892 39.9325 62.76 38.4373 61.3709C36.9421 59.9819 35.784 58.2696 35.0512 56.3648C34.3185 54.46 34.0305 52.413 34.2093 50.3799C35.6486 50.6669 37.1397 50.542 38.5112 50.0196C39.8827 49.4971 41.079 48.5983 41.9625 47.4265C42.8461 46.2546 43.3812 44.8573 43.5062 43.395C43.6312 41.9327 43.3412 40.4648 42.6693 39.1599C44.4206 38.4451 46.3036 38.1098 48.194 38.176C50.0844 38.2422 51.9392 38.7085 53.6362 39.5442C55.3332 40.3798 56.8337 41.5657 58.0388 43.0237C59.2438 44.4817 60.126 46.1786 60.6272 48.0026C61.1284 49.8265 61.2372 51.736 60.9464 53.6051C60.6555 55.4741 59.9717 57.2603 58.94 58.8457C57.9083 60.4311 56.5521 61.7797 54.961 62.8026C53.3699 63.8255 51.58 64.4995 49.7093 64.7799Z" fill="#3B29AB"/>
<path d="M277.489 334.74C277.41 334.701 277.346 334.635 277.31 334.554C277.273 334.473 277.266 334.382 277.29 334.297C277.314 334.211 277.367 334.137 277.44 334.086C277.513 334.036 277.601 334.012 277.689 334.02C296.089 339.64 294.529 313.02 313.549 318.84C313.645 318.872 313.724 318.94 313.769 319.03C313.814 319.12 313.821 319.224 313.789 319.32C313.776 319.366 313.753 319.41 313.722 319.447C313.691 319.485 313.653 319.515 313.61 319.538C313.567 319.56 313.52 319.574 313.472 319.578C313.424 319.581 313.375 319.575 313.329 319.56C294.749 313.88 296.669 340.62 277.489 334.74Z" fill="#3B29AB"/>
<path d="M44.6293 265.9C44.5459 265.88 44.4715 265.833 44.4182 265.766C44.3649 265.699 44.3359 265.616 44.3359 265.53C44.3359 265.444 44.3649 265.361 44.4182 265.294C44.4715 265.227 44.5459 265.18 44.6293 265.16L51.5693 263.6C51.6197 263.584 51.6727 263.579 51.7251 263.585C51.7774 263.591 51.828 263.608 51.8735 263.635C51.919 263.661 51.9584 263.697 51.9894 263.74C52.0203 263.783 52.042 263.831 52.0532 263.883C52.0643 263.934 52.0646 263.987 52.0541 264.039C52.0435 264.091 52.0223 264.14 51.9919 264.183C51.9614 264.226 51.9223 264.262 51.8772 264.289C51.832 264.316 51.7816 264.333 51.7293 264.34C45.9893 265.64 44.8293 265.9 44.6293 265.9Z" fill="#3B29AB"/>
<path d="M63.9893 261.56C63.9058 261.541 63.8314 261.493 63.7782 261.426C63.7249 261.359 63.6959 261.276 63.6959 261.19C63.6959 261.104 63.7249 261.021 63.7782 260.954C63.8314 260.887 63.9058 260.84 63.9893 260.82L70.9293 259.26C71.0236 259.248 71.1189 259.272 71.1965 259.327C71.2741 259.382 71.3282 259.464 71.3483 259.557C71.3684 259.65 71.353 259.747 71.305 259.829C71.2571 259.911 71.1801 259.972 71.0893 260C65.1493 261.3 64.0893 261.56 63.9893 261.56Z" fill="#3B29AB"/>
<path d="M55.9893 256.5L54.4293 249.56C54.4176 249.513 54.4155 249.464 54.4234 249.415C54.4312 249.367 54.4488 249.321 54.475 249.28C54.5012 249.239 54.5354 249.204 54.5757 249.176C54.616 249.149 54.6614 249.129 54.7093 249.12C54.7579 249.108 54.8084 249.106 54.8578 249.114C54.9073 249.121 54.9547 249.139 54.9975 249.165C55.0402 249.191 55.0774 249.225 55.1069 249.265C55.1364 249.306 55.1576 249.351 55.1693 249.4L56.7293 256.34C56.7412 256.434 56.7173 256.53 56.6624 256.607C56.6075 256.685 56.5255 256.739 56.4326 256.759C56.3397 256.779 56.2427 256.764 56.1606 256.716C56.0785 256.668 56.0174 256.591 55.9893 256.5Z" fill="#3B29AB"/>
<path d="M60.3293 275.76L58.7493 268.82C58.7374 268.726 58.7613 268.63 58.8162 268.553C58.8711 268.475 58.9531 268.421 59.046 268.401C59.1389 268.381 59.236 268.396 59.318 268.444C59.4001 268.492 59.4612 268.569 59.4893 268.66L61.0493 275.6C61.0705 275.695 61.053 275.795 61.0005 275.878C60.9479 275.96 60.8648 276.019 60.7693 276.04C60.6738 276.061 60.5739 276.044 60.4913 275.991C60.4088 275.939 60.3505 275.855 60.3293 275.76Z" fill="#3B29AB"/>
<path d="M52.3893 259.58C52.1893 259.58 52.3893 259.68 46.1893 255.72C46.1168 255.662 46.0681 255.579 46.0526 255.487C46.037 255.395 46.0557 255.301 46.105 255.222C46.1543 255.143 46.2309 255.085 46.3201 255.059C46.4094 255.033 46.5052 255.04 46.5893 255.08L52.5893 258.88C52.6582 258.924 52.711 258.989 52.7399 259.066C52.7688 259.142 52.7723 259.226 52.7498 259.304C52.7274 259.383 52.6802 259.452 52.6152 259.502C52.5503 259.552 52.4711 259.579 52.3893 259.58Z" fill="#3B29AB"/>
<path d="M69.0893 270.12C68.8893 270.12 69.0893 270.24 62.8693 266.26C62.8286 266.234 62.7935 266.2 62.7659 266.16C62.7384 266.12 62.7189 266.075 62.7087 266.028C62.6985 265.98 62.6977 265.931 62.7064 265.884C62.7151 265.836 62.7331 265.791 62.7593 265.75C62.7856 265.709 62.8196 265.674 62.8595 265.647C62.8993 265.619 62.9442 265.6 62.9915 265.589C63.0389 265.579 63.0878 265.578 63.1355 265.587C63.1831 265.596 63.2286 265.614 63.2693 265.64L69.2693 269.44C69.3424 269.477 69.4005 269.539 69.4339 269.614C69.4673 269.689 69.4741 269.773 69.4531 269.852C69.4321 269.932 69.3845 270.002 69.3184 270.05C69.2522 270.099 69.1714 270.124 69.0893 270.12Z" fill="#3B29AB"/>
<path d="M61.1093 257.62C61.0419 257.619 60.9758 257.601 60.9179 257.566C60.86 257.532 60.8123 257.483 60.7797 257.424C60.7471 257.365 60.7309 257.298 60.7325 257.231C60.7342 257.163 60.7538 257.097 60.7893 257.04L64.5893 251.04C64.6476 250.967 64.7304 250.919 64.8221 250.903C64.9139 250.888 65.0081 250.906 65.087 250.956C65.1659 251.005 65.224 251.082 65.2502 251.171C65.2764 251.26 65.269 251.356 65.2293 251.44C61.1093 257.94 61.4093 257.62 61.1093 257.62Z" fill="#3B29AB"/>
<path d="M50.5693 274.38C50.5019 274.379 50.4358 274.361 50.3779 274.326C50.32 274.292 50.2723 274.243 50.2397 274.184C50.2071 274.125 50.1909 274.058 50.1926 273.991C50.1943 273.923 50.2138 273.857 50.2493 273.8L54.0493 267.8C54.1024 267.718 54.1859 267.66 54.2816 267.639C54.3772 267.619 54.4771 267.637 54.5593 267.69C54.6416 267.743 54.6993 267.827 54.72 267.922C54.7406 268.018 54.7224 268.118 54.6693 268.2C50.5493 274.62 50.8493 274.38 50.5693 274.38Z" fill="#3B29AB"/>
<path d="M323.989 136.98C323.989 136.78 322.909 135.32 319.289 129.54C319.236 129.456 319.151 129.396 319.054 129.373C318.957 129.351 318.854 129.368 318.769 129.42L274.929 157.12L279.269 137.86C279.281 137.811 279.283 137.761 279.276 137.711C279.268 137.662 279.251 137.614 279.225 137.572C279.199 137.529 279.165 137.492 279.124 137.462C279.084 137.433 279.038 137.412 278.989 137.4L270.469 135.4C270.374 135.382 270.275 135.4 270.194 135.452C270.112 135.505 270.053 135.586 270.029 135.68L263.149 166.12C262.875 167.345 263.097 168.629 263.769 169.69C264.44 170.752 265.505 171.503 266.729 171.78C296.589 178.52 297.049 178.66 297.249 178.66C297.334 178.66 297.417 178.632 297.485 178.582C297.553 178.532 297.604 178.461 297.629 178.38L299.629 169.86C299.641 169.811 299.642 169.76 299.633 169.711C299.624 169.662 299.605 169.615 299.577 169.574C299.548 169.532 299.512 169.497 299.469 169.471C299.427 169.444 299.379 169.427 299.329 169.42L279.989 165.14L323.829 137.44C323.903 137.392 323.958 137.32 323.987 137.237C324.016 137.154 324.017 137.063 323.989 136.98Z" fill="#3B29AB"/>
<path d="M309.989 96.94L316.949 87.1L307.189 80.38C307.154 80.3447 307.125 80.3026 307.106 80.2563C307.087 80.2099 307.077 80.1602 307.077 80.11C307.077 80.0598 307.087 80.0101 307.106 79.9637C307.125 79.9174 307.154 79.8753 307.189 79.84L313.989 69.9L304.089 62.72C304.047 62.6938 304.011 62.6591 303.982 62.6182C303.954 62.5772 303.935 62.5308 303.925 62.4819C303.916 62.4331 303.917 62.3828 303.928 62.3343C303.939 62.2857 303.96 62.24 303.989 62.2L311.029 52.38L300.909 45.22C300.828 45.1634 300.773 45.0774 300.754 44.9803C300.735 44.8832 300.755 44.7827 300.809 44.7C300.843 44.6617 300.885 44.631 300.931 44.61C300.978 44.589 301.028 44.5781 301.079 44.5781C301.13 44.5781 301.181 44.589 301.227 44.61C301.274 44.631 301.316 44.6617 301.349 44.7L311.769 52.06C311.812 52.0862 311.848 52.1209 311.876 52.1619C311.904 52.2028 311.924 52.2492 311.933 52.2981C311.943 52.347 311.942 52.3972 311.931 52.4458C311.92 52.4943 311.899 52.54 311.869 52.58L304.909 62.38L314.809 69.58C314.875 69.6504 314.912 69.7434 314.912 69.84C314.912 69.9366 314.875 70.0296 314.809 70.1L307.989 79.88L317.809 86.68C317.852 86.7081 317.889 86.7447 317.917 86.7874C317.946 86.8301 317.965 86.8782 317.975 86.9286C317.984 86.9791 317.983 87.0309 317.972 87.081C317.961 87.1311 317.939 87.1784 317.909 87.22L310.729 97.38C310.671 97.4781 310.576 97.5491 310.465 97.5772C310.355 97.6053 310.237 97.5884 310.139 97.53C310.041 97.4717 309.97 97.3767 309.942 97.2661C309.914 97.1554 309.931 97.0381 309.989 96.94Z" fill="#3B29AB"/>
<path d="M318.269 76.9799L325.229 67.1399L315.409 60.3799C315.367 60.3537 315.331 60.319 315.302 60.2781C315.274 60.2371 315.255 60.1907 315.245 60.1418C315.236 60.093 315.237 60.0427 315.248 59.9942C315.259 59.9457 315.28 59.9 315.309 59.8599L322.269 49.9999L312.369 42.7999C312.303 42.7295 312.266 42.6365 312.266 42.5399C312.266 42.4433 312.303 42.3504 312.369 42.2799L319.249 32.3799L309.109 25.2399C308.709 24.9399 309.109 24.3199 309.549 24.6199L319.989 31.9999C320.055 32.0704 320.092 32.1633 320.092 32.2599C320.092 32.3565 320.055 32.4495 319.989 32.5199L313.109 42.3799L323.009 49.5599C323.052 49.5861 323.088 49.6208 323.116 49.6618C323.144 49.7028 323.164 49.7491 323.173 49.798C323.183 49.8469 323.182 49.8972 323.171 49.9457C323.16 49.9942 323.139 50.0399 323.109 50.0799L316.149 59.9399C326.609 67.1799 326.149 66.7599 326.149 66.9799C326.149 67.1999 326.729 66.4399 318.909 77.4199C318.851 77.5048 318.761 77.563 318.66 77.5818C318.559 77.6005 318.454 77.5783 318.369 77.5199C318.284 77.4616 318.226 77.3719 318.207 77.2706C318.189 77.1694 318.211 77.0648 318.269 76.9799Z" fill="#3B29AB"/>
<path d="M185.989 146.1L162.429 147.92C162.379 147.922 162.33 147.935 162.285 147.956C162.24 147.978 162.2 148.008 162.166 148.045C162.133 148.082 162.107 148.126 162.09 148.173C162.074 148.22 162.067 148.27 162.069 148.32C163.369 164.32 163.649 168.56 163.769 169.68C163.769 170.14 163.769 170.06 163.929 170.1C175.029 176.46 177.769 178.1 178.509 178.42C178.909 178.64 178.909 178.58 179.249 178.22C179.909 177.48 181.729 175.28 187.849 168.1C187.913 168.039 187.961 167.964 187.989 167.88C188.017 167.796 188.024 167.707 188.009 167.62C188.009 166.7 187.649 162.92 186.389 146.44C186.387 146.391 186.374 146.343 186.353 146.299C186.331 146.254 186.3 146.215 186.263 146.183C186.225 146.151 186.182 146.128 186.135 146.113C186.088 146.099 186.038 146.094 185.989 146.1ZM178.789 177.68L164.529 169.54L162.909 148.64L185.729 146.88L187.329 167.6L178.789 177.68Z" fill="#3B29AB"/>
<path d="M157.349 182.54C156.616 185.339 155.219 187.921 153.277 190.066C151.334 192.21 148.903 193.855 146.189 194.86C146.134 194.869 146.082 194.891 146.036 194.923C145.99 194.955 145.952 194.996 145.924 195.045C145.896 195.093 145.879 195.147 145.874 195.203C145.87 195.259 145.877 195.315 145.897 195.367C145.916 195.419 145.947 195.467 145.987 195.506C146.027 195.545 146.075 195.575 146.128 195.593C146.18 195.612 146.237 195.618 146.292 195.613C146.348 195.607 146.401 195.589 146.449 195.56C149.263 194.516 151.782 192.806 153.791 190.577C155.801 188.348 157.241 185.666 157.989 182.76C157.979 182.691 157.951 182.626 157.906 182.572C157.861 182.518 157.803 182.477 157.737 182.454C157.67 182.431 157.599 182.427 157.531 182.443C157.463 182.458 157.4 182.491 157.349 182.54Z" fill="#3B29AB"/>
<path d="M264.289 16.6C264.149 13.62 263.669 10.04 262.289 9.92C260.289 9.74 259.389 16.24 258.289 20.34C258.129 17.54 257.889 14.02 257.649 10.5C257.449 7.62 256.909 4.14 255.449 4.08C253.589 4.08 252.689 9.68 252.529 10.58C252.104 13.3211 251.483 16.0281 250.669 18.68C249.989 14.56 248.989 9.02 247.969 5.38C247.269 2.9 246.169 0 244.789 0C242.969 0 242.789 4.62 242.789 6.46C242.789 7.42 242.589 15.24 242.509 18.88C241.709 16.88 240.769 14.42 239.869 11.96C238.649 8.66 237.089 6.82 235.869 7.18C234.649 7.54 234.329 9.92 235.089 13.72C235.249 14.44 237.309 25.72 237.309 25.72C237.689 27.72 237.589 30.98 236.689 31.32C232.889 32.74 223.029 28.94 221.449 32.52C220.309 35.1 227.449 37.04 231.989 38.84C234.409 39.8 235.729 43.88 235.249 46.62C232.529 62.38 237.469 32.38 228.569 86.38L178.389 114.38C176.728 114.273 175.163 113.561 173.989 112.38V112.26C172.907 111.067 172.21 109.575 171.989 107.98C173.138 107.959 174.268 107.691 175.303 107.194C176.338 106.697 177.255 105.983 177.989 105.1C180.169 102.04 179.129 96.84 174.909 89.62C174.06 88.1472 173.097 86.743 172.029 85.42C170.949 83.94 168.549 80.28 167.429 78.56C166.629 77.34 167.269 78.36 164.689 74.02C164.292 73.3664 163.667 72.8827 162.935 72.6619C162.203 72.4411 161.415 72.4988 160.723 72.8239C160.03 73.1489 159.483 73.7184 159.185 74.4228C158.887 75.1273 158.86 75.9169 159.109 76.64C158.592 76.5688 158.065 76.6296 157.577 76.8167C157.089 77.0038 156.656 77.3112 156.319 77.7103C155.982 78.1093 155.751 78.5872 155.648 79.0994C155.545 79.6116 155.573 80.1415 155.729 80.64C155.253 80.6522 154.786 80.7749 154.365 80.9983C153.944 81.2217 153.58 81.5398 153.303 81.9276C153.026 82.3153 152.842 82.7621 152.767 83.2328C152.692 83.7034 152.727 84.1852 152.869 84.64C152.391 84.6502 151.921 84.7711 151.497 84.9931C151.073 85.2151 150.707 85.5323 150.426 85.9197C150.145 86.3071 149.958 86.7543 149.878 87.2263C149.799 87.6982 149.83 88.1821 149.969 88.64C149.362 88.662 148.775 88.8631 148.282 89.218C147.789 89.5728 147.412 90.0655 147.198 90.6341C146.984 91.2028 146.944 91.8219 147.081 92.4137C147.218 93.0055 147.527 93.5435 147.969 93.96C148.149 94.16 147.809 93.48 155.449 100.56C159.629 104.42 161.829 107.56 162.269 109.6C162.669 113.6 161.789 117.28 157.929 118.32L146.249 119.62L49.2293 112.84C46.2893 112.62 42.1493 110.4 41.3893 108.02C40.0493 103.74 38.8093 97.18 36.2493 97.18C32.0093 97.18 35.0093 107.4 33.1093 110.4C32.6893 111.08 29.2293 110.4 27.1093 109.56C27.1093 109.56 15.4493 104.94 14.7493 104.64C12.4693 103.7 8.54933 102.32 7.84933 103.78C7.32933 104.84 9.00933 106.6 12.3693 108.5L20.1293 112.92L7.16933 109.74C4.74933 109.12 0.609329 108.32 0.129329 109.74C-0.350671 111.16 4.12933 113.24 5.48933 113.74C9.72933 115.38 14.5693 117.3 17.4893 118.48C14.7093 118.08 11.1093 117.5 6.98933 116.68C2.86933 115.86 0.32933 115.9 0.0293303 116.98C-0.39067 118.5 3.80933 120.2 5.62933 120.86C8.04933 121.74 12.6093 123.28 15.8293 124.22C13.9893 124.1 11.9493 123.9 9.82933 123.58C5.46933 122.88 3.14933 123.08 2.90933 124.16C2.38933 126.44 12.0293 128.76 14.3893 129.34C19.9893 130.78 23.9893 131.84 27.7893 132.88C37.1989 135.216 46.7255 137.052 56.3293 138.38L144.149 149.32L149.589 175.32C147.809 176.88 134.009 190.28 140.409 226.2L111.729 213.28C113.049 211.14 113.589 210.38 113.729 210.02C113.869 209.66 113.849 209.76 113.729 209.62C113.609 209.48 104.929 205.62 103.729 205.06C103.671 205.018 103.601 204.995 103.529 204.995C103.457 204.995 103.387 205.018 103.329 205.06C103.069 205.36 100.389 209.7 98.7093 212.74C79.2093 203.68 80.0893 204.04 79.8693 204.06C78.7293 204.28 80.2693 204.06 68.8493 206.96C55.1997 209.883 41.9607 214.47 29.4293 220.62C29.3587 220.645 29.2975 220.691 29.2542 220.751C29.2109 220.812 29.1877 220.885 29.1877 220.96C29.1877 221.035 29.2109 221.108 29.2542 221.169C29.2975 221.23 29.3587 221.275 29.4293 221.3C32.2293 222.38 35.2493 223.3 38.3493 224.26C58.6693 230.12 68.3493 228.26 84.8493 235.64L88.0093 237.06C87.3493 239.06 85.4693 244.84 85.4093 245.3C85.3493 245.76 85.4093 245.52 85.6293 245.68C93.0093 248.94 94.9293 249.86 95.6293 250.04C95.7248 250.072 95.829 250.064 95.9189 250.019C96.0089 249.974 96.0774 249.895 96.1093 249.8C96.4093 248.64 96.7093 247.48 97.0493 246.32L152.369 271.4C155.153 272.647 158.192 273.215 161.237 273.059C164.283 272.903 167.248 272.027 169.889 270.502C172.531 268.978 174.772 266.848 176.431 264.289C178.089 261.73 179.117 258.814 179.429 255.78L182.549 226.38L199.629 249.76L193.849 305.3C190.269 304.46 190.969 304.56 190.769 304.56C190.711 304.572 190.656 304.596 190.608 304.63C190.56 304.664 190.519 304.709 190.489 304.76C190.489 304.96 189.409 315.5 189.429 315.7C189.437 315.762 189.459 315.822 189.494 315.874C189.528 315.926 189.575 315.969 189.629 316C189.929 316.12 193.629 316.98 196.549 317.54C194.869 332.36 194.369 336.46 194.269 337.64C194.269 338.2 194.269 338.1 194.269 338.18C203.849 352.38 210.949 366.18 225.909 380.74C225.961 380.789 226.025 380.823 226.095 380.837C226.165 380.851 226.238 380.845 226.304 380.82C226.371 380.795 226.43 380.752 226.473 380.695C226.516 380.639 226.543 380.571 226.549 380.5C226.739 368.342 225.667 356.197 223.349 344.26C222.19 337.369 221.948 330.355 222.629 323.4L222.949 320.1C223.349 320.1 230.029 320.1 230.349 319.84C230.425 319.777 230.481 319.694 230.509 319.6C230.509 319.42 231.549 308.82 231.529 308.76C231.429 308.26 231.229 308.46 228.329 308.6L234.329 255.62C235.278 247.419 233.582 239.13 229.489 231.96L196.389 173.42V137.9L246.849 108.38C249.539 106.802 251.823 104.616 253.518 101.997C255.212 99.379 256.271 96.4005 256.609 93.3C261.989 43.8 264.749 26.24 264.289 16.6ZM253.309 10.72C254.329 4.9 255.409 4.84 255.449 4.84C255.489 4.84 256.629 5.94 256.929 10.54C257.289 15.74 257.889 24.32 257.769 25.76C255.757 24.9377 253.666 24.3212 251.529 23.92C251.529 23.36 251.249 21.92 250.949 20.16C252.128 17.1244 252.921 13.953 253.309 10.72ZM243.569 6.38C243.569 1.98 244.409 0.72 244.789 0.68C245.169 0.64 246.169 1.58 247.289 5.5C248.849 11.1 250.389 21.3 250.749 23.72C248.67 23.413 246.561 23.3593 244.469 23.56C244.289 23.1 243.849 22.02 243.249 20.58C243.289 19.6 243.549 7.68 243.569 6.38ZM159.569 100.38H159.449C152.309 97.68 154.349 91.34 158.089 93.76C159.369 94.58 160.089 94.82 160.709 94.54C160.909 94.3908 161.067 94.193 161.169 93.9655C161.27 93.7379 161.312 93.4882 161.289 93.24C161.299 93.0868 161.299 92.9332 161.289 92.78C160.969 89.56 162.029 84.5 164.709 82.92C167.389 81.34 169.589 84.08 169.809 84.2C171.537 85.8887 173.006 87.8228 174.169 89.94C178.169 96.88 179.289 101.8 177.309 104.6C174.629 108.38 167.149 106.98 167.069 106.96C166.989 106.94 166.329 107.24 167.069 107.84C167.809 108.44 169.389 109.64 173.449 112.8C174.781 114.179 176.577 115.013 178.489 115.14C181.037 113.949 183.514 112.614 185.909 111.14V134.38L160.109 136.64L156.109 119.36L157.949 119.16C166.969 116.76 161.549 101.72 159.629 100.38H159.569ZM5.84933 113.16C1.84933 111.62 0.869328 110.34 0.949328 110.04C1.02933 109.74 2.26933 109.24 7.06933 110.48L24.3693 114.7C23.9514 116.213 23.7164 117.771 23.6693 119.34L20.6893 119C19.9893 118.72 12.2493 115.62 5.84933 113.16ZM0.929328 117.3C0.929328 117.1 2.16933 116.56 6.92933 117.52C12.3999 118.667 17.9278 119.521 23.4893 120.08C23.5594 121.53 23.767 122.97 24.1093 124.38C22.5246 124.268 20.934 124.268 19.3493 124.38C14.8281 123.285 10.3685 121.95 5.98933 120.38C1.98933 118.78 0.849328 117.58 0.929328 117.3ZM9.38933 127.3C4.96933 125.94 3.74933 124.76 3.82933 124.48C3.90933 124.2 5.02933 123.72 9.82933 124.48C14.5863 125.202 19.4033 125.45 24.2093 125.22C24.4693 126.32 24.7693 127.42 25.1493 128.54C25.1849 128.631 25.2539 128.704 25.3421 128.745C25.4302 128.786 25.5308 128.792 25.6232 128.762C25.7155 128.731 25.7925 128.666 25.8383 128.58C25.8841 128.494 25.8952 128.394 25.8693 128.3C23.8253 123.163 23.8253 117.437 25.8693 112.3C25.8982 112.252 25.9162 112.198 25.9219 112.143C25.9277 112.087 25.9211 112.031 25.9027 111.978C25.8842 111.926 25.8544 111.878 25.8153 111.838C25.7761 111.798 25.7287 111.767 25.6763 111.747C25.6239 111.728 25.5678 111.72 25.5121 111.725C25.4564 111.73 25.4024 111.747 25.354 111.775C25.3056 111.803 25.264 111.841 25.232 111.887C25.2001 111.933 25.1787 111.985 25.1693 112.04C24.9093 112.72 24.6893 113.36 24.5093 114.04L22.8093 113.64L12.8093 107.92C9.26933 105.92 8.44933 104.52 8.60933 104.18C8.76933 103.84 10.4493 103.72 14.6093 105.42L26.9693 110.34C26.9693 110.34 32.7693 112.52 33.7893 110.88C35.7893 107.82 33.1893 98.42 36.1893 98.02C38.1893 97.74 39.8493 105.54 40.7093 108.32C41.5693 111.1 45.9693 113.42 49.2093 113.68L145.849 120.38C148.689 131.02 154.889 158.38 150.369 161.9C149.689 162.42 148.749 162.34 147.529 161.64L143.709 143.4C143.678 143.312 143.617 143.238 143.536 143.191C143.456 143.143 143.361 143.125 143.269 143.14L130.129 146.68L56.4093 137.58C46.8482 136.269 37.362 134.46 27.9893 132.16C18.1693 129.46 14.8493 128.9 9.38933 127.26V127.3ZM95.5293 249.3L86.3893 245.3C90.2784 231.428 96.1525 218.191 103.829 206L112.969 210C105.073 222.051 99.1832 235.303 95.5293 249.24V249.3ZM79.9893 204.88L86.5693 207.94C74.2293 211.56 57.7893 214.76 39.1093 223.72C36.2893 222.9 33.4493 222 30.6293 220.96C50.5293 210.92 67.9893 208.54 79.9893 204.88ZM230.709 309.1L229.749 319.1C216.435 319.77 203.094 318.489 190.149 315.3L191.109 305.3C204.018 308.694 217.391 309.978 230.709 309.1ZM225.789 379.5C209.989 363.82 202.249 348.1 194.929 337.76L195.749 330.56C203.089 341.12 211.329 355.7 225.749 370.56C225.849 373.54 225.869 376.5 225.789 379.5ZM203.649 187.96C197.989 185.96 194.989 179.7 194.949 179.64C194.898 179.569 194.825 179.519 194.741 179.496C194.657 179.473 194.568 179.48 194.488 179.515C194.408 179.55 194.343 179.611 194.303 179.689C194.264 179.766 194.252 179.855 194.269 179.94C194.409 180.24 197.709 187.24 204.269 188.9L228.889 232.24C232.913 239.259 234.582 247.383 233.649 255.42L227.649 308.54C216.577 308.952 205.499 307.883 194.709 305.36L200.529 249.6C200.529 249.38 200.989 250.06 192.529 238.52L184.769 205.78C184.75 205.697 184.703 205.622 184.635 205.569C184.568 205.516 184.485 205.487 184.399 205.487C184.314 205.487 184.23 205.516 184.163 205.569C184.096 205.622 184.049 205.697 184.029 205.78L178.809 255.78C178.508 258.694 177.52 261.496 175.926 263.954C174.333 266.413 172.179 268.459 169.642 269.924C167.105 271.39 164.257 272.234 161.331 272.386C158.405 272.538 155.485 271.995 152.809 270.8L97.4093 245.66C100.671 234.527 105.377 223.87 111.409 213.96L130.469 222.54C144.009 240.12 143.489 239.54 143.709 239.68C143.775 239.714 143.849 239.728 143.923 239.72C143.996 239.712 144.066 239.683 144.123 239.637C144.181 239.59 144.223 239.528 144.246 239.457C144.268 239.387 144.269 239.311 144.249 239.24C131.109 191.24 150.129 175.96 150.249 175.8C150.369 175.64 150.529 176.06 147.749 162.68C158.089 167.38 149.529 131.36 146.629 120.44L155.429 119.46L159.429 137.16C159.448 137.241 159.494 137.313 159.559 137.364C159.625 137.415 159.706 137.442 159.789 137.44L186.369 135.16C186.569 135.16 186.609 134.98 186.609 134.78V110.64L195.449 105.6V173.6C195.469 173.72 195.649 173.88 203.649 187.96ZM263.009 29.72C261.809 46.66 261.469 41.44 255.849 93.16C255.521 96.1424 254.502 99.0073 252.874 101.528C251.246 104.048 249.053 106.154 246.469 107.68L196.469 137.04L196.169 105.18C222.349 90.7 227.569 87.86 228.709 87.18C229.089 86.94 229.229 86.82 229.249 86.74L236.009 46.74C236.569 43.68 235.069 39.24 232.289 38.14C229.509 37.04 221.389 34.54 222.169 32.82C223.409 30 233.069 33.48 236.969 32.02C238.729 31.36 238.289 26.7 238.089 25.58C238.089 25.58 236.089 14.22 235.849 13.58C235.069 9.68 235.569 8.06 236.089 7.9C236.609 7.74 237.969 8.98 239.149 12.22C241.009 17.28 243.029 22.22 243.649 23.72C242.649 23.84 241.649 24 240.469 24.22C240.415 24.2228 240.362 24.2372 240.314 24.2622C240.266 24.2872 240.224 24.3221 240.19 24.3648C240.157 24.4074 240.133 24.4567 240.12 24.5094C240.107 24.5621 240.106 24.6169 240.116 24.6701C240.126 24.7234 240.147 24.7739 240.178 24.8182C240.21 24.8625 240.25 24.8997 240.297 24.9271C240.344 24.9546 240.396 24.9717 240.449 24.9774C240.503 24.9831 240.558 24.9771 240.609 24.96C246.53 23.6172 252.728 24.2567 258.249 26.78C258.339 26.8032 258.434 26.793 258.516 26.7513C258.599 26.7096 258.663 26.6392 258.698 26.5533C258.732 26.4675 258.734 26.372 258.703 26.2849C258.672 26.1978 258.61 26.1249 258.529 26.08C258.599 24.9344 258.599 23.7856 258.529 22.64C259.227 20.4149 259.795 18.1511 260.229 15.86C261.329 10.78 262.229 10.72 262.229 10.72C262.229 10.72 263.349 11.88 263.569 16.72C263.689 20 263.289 25.62 263.009 29.72Z" fill="#3B29AB"/>
<path d="M243.069 28.8001C243.02 28.7773 242.966 28.7653 242.912 28.7649C242.858 28.7645 242.804 28.7758 242.755 28.798C242.705 28.8201 242.661 28.8526 242.625 28.8933C242.589 28.934 242.562 28.9819 242.546 29.0339C242.53 29.0858 242.526 29.1405 242.533 29.1943C242.54 29.2482 242.558 29.2998 242.587 29.3459C242.616 29.392 242.654 29.4314 242.699 29.4614C242.745 29.4915 242.796 29.5115 242.849 29.5201C249.869 31.7201 253.309 35.7401 253.049 41.5201C253.049 41.6209 253.089 41.7175 253.161 41.7888C253.232 41.86 253.329 41.9001 253.429 41.9001C253.53 41.9001 253.627 41.86 253.698 41.7888C253.769 41.7175 253.809 41.6209 253.809 41.5201C253.989 35.3801 250.469 31.1201 243.069 28.8001Z" fill="#3B29AB"/>
<path d="M41.8493 127.26C35.8493 126.08 31.9893 122.04 30.4293 115.26C30.4012 115.169 30.3401 115.092 30.258 115.044C30.176 114.996 30.0789 114.981 29.986 115.001C29.8931 115.021 29.8111 115.075 29.7562 115.153C29.7013 115.23 29.6774 115.326 29.6893 115.42C31.3293 122.52 35.3493 126.74 41.6893 127.98C41.7741 127.978 41.8558 127.947 41.9213 127.894C41.9868 127.84 42.0324 127.765 42.0508 127.683C42.0692 127.6 42.0594 127.513 42.0229 127.437C41.9863 127.36 41.9253 127.298 41.8493 127.26Z" fill="#3B29AB"/>
</svg>
