<svg width="407" height="459" viewBox="0 0 407 459" fill="none" xmlns="http://www.w3.org/2000/svg">
<path d="M202.941 377.76C183.982 377.811 165.201 374.098 147.691 366.835C130.182 359.573 114.293 348.906 100.948 335.456C100.863 335.37 100.815 335.255 100.815 335.134C100.816 335.013 100.864 334.897 100.949 334.812C101.035 334.727 101.151 334.679 101.272 334.68C101.393 334.68 101.509 334.728 101.594 334.813C120.571 353.834 144.529 367.13 170.724 373.179C196.918 379.227 224.289 377.783 249.7 369.012C275.111 360.241 297.533 344.498 314.398 323.586C331.262 302.675 341.886 277.442 345.052 250.778C345.066 250.658 345.127 250.549 345.222 250.474C345.317 250.4 345.437 250.366 345.557 250.38C345.677 250.394 345.787 250.455 345.862 250.55C345.936 250.644 345.971 250.765 345.956 250.884C341.824 285.859 324.977 318.1 298.613 341.489C272.249 364.877 238.205 377.784 202.941 377.76Z" fill="#3B29AB"/>
<path d="M340.604 194.873C338.03 185.829 334.564 177.063 330.257 168.702C330.208 168.596 330.201 168.474 330.239 168.363C330.277 168.252 330.357 168.161 330.461 168.107C330.566 168.053 330.687 168.042 330.799 168.075C330.912 168.109 331.007 168.184 331.065 168.286C335.4 176.697 338.889 185.516 341.48 194.615C341.514 194.731 341.501 194.855 341.443 194.962C341.385 195.068 341.287 195.147 341.171 195.181C341.055 195.215 340.93 195.202 340.824 195.144C340.717 195.087 340.638 194.989 340.604 194.873Z" fill="#3B29AB"/>
<path d="M116.048 265.247C116.043 260.943 114.329 256.817 111.282 253.774C108.235 250.731 104.104 249.019 99.7945 249.015H63.7499V227.315H100.549C102.391 227.313 104.158 226.581 105.46 225.28C106.763 223.979 107.496 222.215 107.498 220.375V195.68C107.495 193.84 106.762 192.077 105.46 190.776C104.157 189.476 102.391 188.745 100.549 188.743H15.4937C13.6539 188.748 11.891 189.481 10.591 190.781C9.29095 192.081 8.55961 193.842 8.55706 195.68V220.375C8.55898 222.215 9.29169 223.979 10.5944 225.28C11.8971 226.581 13.6634 227.313 15.5057 227.315H52.2905V249.015H16.2531C11.9441 249.02 7.81302 250.732 4.76608 253.775C1.71914 256.818 0.00512065 260.943 0 265.247V319.427C0.00512065 323.73 1.71914 327.856 4.76608 330.899C7.81302 333.942 11.9441 335.654 16.2531 335.659H99.7945C104.104 335.654 108.235 333.942 111.282 330.899C114.328 327.856 116.043 323.73 116.048 319.427V265.247ZM63.7499 302.679V293.121C65.1667 294.848 67.057 296.124 69.1894 296.795C69.3042 296.832 69.4291 296.822 69.5366 296.767C69.6441 296.712 69.7254 296.617 69.7626 296.502C69.7998 296.388 69.7898 296.263 69.735 296.156C69.6801 296.048 69.5847 295.967 69.4699 295.93C64.5142 294.331 60.9636 289.43 61.7836 281.515C61.7967 281.395 61.7617 281.275 61.6861 281.181C61.6106 281.087 61.5008 281.026 61.3809 281.013C61.2609 281 61.1406 281.035 61.0465 281.111C60.9524 281.186 60.8921 281.296 60.879 281.416C59.9115 290.514 55.1565 290.942 55.0163 288.063C54.8083 283.698 54.5882 280.691 54.6922 278.725C54.8929 274.993 56.2619 274.901 61.0459 274.589C67.4939 274.167 67.8785 274.143 69.8883 277.263C70.6139 278.401 70.3721 283.623 73.8718 283.659C86.6469 283.797 110.635 283.256 115.138 282.908V309.328C111.825 309.244 73.0325 308.831 63.7499 308.642V305.104C64.0316 304.32 64.0316 303.462 63.7499 302.679ZM53.1999 334.748V308.782C53.8916 308.705 57.9936 308.2 59.5802 308.031C60.8064 307.943 61.9616 307.423 62.8405 306.565V334.748H53.1999ZM59.4883 307.128C54.535 307.657 51.9906 308.135 49.526 308.111C45.9368 308.084 45.7723 302.208 50.2347 301.867C53.7465 301.601 56.1699 301.384 59.7181 301.266C64.3062 301.113 64.1103 306.633 59.4835 307.128H59.4883ZM53.807 278.396C53.7382 280.528 53.7842 282.663 53.9448 284.79C52.0029 284.915 50.0547 284.909 48.1135 284.773C44.6211 284.44 44.667 278.379 49.1342 278.355L53.807 278.396ZM48.7061 286.109C50.5152 286.07 52.1913 285.93 54.0053 285.867C54.0416 286.568 54.0803 287.316 54.1165 288.106C54.2592 291.041 58.2741 292.063 60.4823 287.012C60.9188 287.446 61.2135 288.002 61.3279 288.606C61.4422 289.211 61.3708 289.835 61.123 290.398C60.8752 290.962 60.4627 291.437 59.9395 291.761C59.4164 292.086 58.8072 292.245 58.1919 292.217C53.137 292.483 50.3145 292.848 47.6927 292.686C43.91 292.454 43.9293 286.213 48.7061 286.109ZM62.0883 290.411C62.3117 290.903 62.5662 291.38 62.8502 291.84V295.514C62.6843 294.819 62.3161 294.188 61.7919 293.701C61.2677 293.214 60.6109 292.893 59.9043 292.778C60.4268 292.58 60.8957 292.263 61.2733 291.852C61.6509 291.441 61.9268 290.947 62.0786 290.411H62.0883ZM48.8077 293.894C52.4356 293.722 54.934 293.57 58.6224 293.555C63.3992 293.536 63.063 299.273 58.2524 299.647C53.2676 300.036 50.5128 300.461 47.9346 300.372C44.1857 300.239 44.1639 294.113 48.798 293.894H48.8077ZM62.8502 297.116V301.338C62.378 300.961 61.8355 300.681 61.2542 300.516C60.6729 300.35 60.0645 300.301 59.4641 300.372C60.2764 300.201 61.0241 299.805 61.6213 299.229C62.2184 298.653 62.641 297.921 62.8405 297.116H62.8502ZM99.8042 249.923C103.872 249.928 107.772 251.543 110.649 254.416C113.525 257.289 115.143 261.184 115.148 265.247V281.998C110.976 282.343 86.7558 282.889 73.8911 282.751C71.2524 282.725 71.5596 278.162 70.6647 276.771C68.7443 273.795 67.8422 273.338 63.7596 273.519V249.923H99.8042ZM15.5033 226.493V226.404C13.8997 226.404 12.3617 225.768 11.2278 224.635C10.0938 223.503 9.45679 221.967 9.45679 220.366V195.68C9.45679 194.078 10.0938 192.542 11.2278 191.41C12.3617 190.277 13.8997 189.641 15.5033 189.641H100.549C102.153 189.641 103.691 190.277 104.825 191.41C105.959 192.542 106.596 194.078 106.596 195.68V220.375C106.596 221.977 105.959 223.513 104.825 224.645C103.691 225.778 102.153 226.414 100.549 226.414H63.3024C63.2427 226.414 63.1836 226.425 63.1284 226.448C63.0733 226.471 63.0232 226.505 62.9809 226.547C62.9387 226.589 62.9052 226.639 62.8824 226.694C62.8595 226.749 62.8477 226.808 62.8477 226.868V273.573C62.26 273.606 61.6167 273.65 60.9129 273.696C56.0756 274.012 54.3826 274.471 53.9158 277.498L53.2192 277.486V226.861C53.2186 226.74 53.1702 226.624 53.0845 226.539C52.9988 226.454 52.8829 226.406 52.7621 226.406C16.4974 226.406 16.3498 226.375 15.4937 226.496L15.5033 226.493ZM0.914235 319.425V265.247C0.918076 261.184 2.53554 257.289 5.41169 254.416C8.28784 251.544 12.1877 249.928 16.2555 249.923H52.2929V277.459C51.7366 277.459 49.1487 277.435 49.1487 277.435C48.1807 277.398 47.2293 277.694 46.4526 278.272C45.6759 278.85 45.1208 279.676 44.8794 280.613C44.6381 281.55 44.7252 282.541 45.1261 283.422C45.527 284.303 46.2176 285.02 47.0832 285.454C46.2418 285.711 45.5013 286.223 44.9646 286.92C44.4278 287.616 44.1215 288.462 44.088 289.34C44.0545 290.218 44.2955 291.085 44.7776 291.82C45.2598 292.555 45.959 293.122 46.7785 293.442C43.0586 295.181 43.6512 301.113 47.9031 301.266C48.145 301.266 48.4062 301.28 48.6601 301.28C44.7613 302.773 45.2209 308.601 49.1439 308.988C49.318 309.043 51.9229 309.174 52.3098 309.193V334.739H16.2724C12.2021 334.741 8.29725 333.13 5.4157 330.259C2.53414 327.388 0.911612 323.492 0.904562 319.427L0.914235 319.425ZM99.8042 334.746H63.7499V309.55C73.035 309.739 111.844 310.154 115.138 310.239V319.417C115.136 323.481 113.519 327.378 110.642 330.253C107.765 333.127 103.864 334.744 99.7945 334.748L99.8042 334.746Z" fill="#3B29AB"/>
<path d="M29.5701 206.119L25.3133 205.503L23.4075 201.639C23.3637 201.57 23.3034 201.514 23.2322 201.475C23.161 201.436 23.0811 201.416 22.9999 201.416C22.9187 201.416 22.8388 201.436 22.7676 201.475C22.6964 201.514 22.6361 201.57 22.5924 201.639L20.6889 205.503L16.4297 206.119C16.3464 206.133 16.2686 206.169 16.2049 206.225C16.1412 206.28 16.0941 206.352 16.069 206.432C16.0439 206.513 16.0418 206.599 16.0627 206.68C16.0837 206.762 16.1271 206.836 16.1879 206.895L19.2595 209.902L18.5339 214.136C18.5185 214.22 18.5271 214.307 18.5587 214.386C18.5903 214.465 18.6435 214.534 18.7125 214.584C18.7814 214.635 18.8631 214.665 18.9483 214.671C19.0335 214.677 19.1187 214.659 19.1942 214.619L23.0035 212.622L26.8104 214.619C26.8859 214.659 26.9711 214.677 27.0563 214.671C27.1415 214.665 27.2233 214.635 27.2922 214.584C27.3611 214.534 27.4144 214.465 27.446 214.386C27.4776 214.307 27.4861 214.22 27.4707 214.136L26.7451 209.902L29.8265 206.902C29.8897 206.843 29.9348 206.767 29.9563 206.683C29.9779 206.599 29.975 206.511 29.9481 206.429C29.9212 206.347 29.8713 206.274 29.8043 206.219C29.7373 206.164 29.6561 206.13 29.5701 206.119Z" fill="#3B29AB"/>
<path d="M47.0808 206.119L42.8216 205.503L40.9182 201.639C40.8744 201.57 40.8142 201.514 40.743 201.475C40.6718 201.436 40.5919 201.416 40.5107 201.416C40.4295 201.416 40.3496 201.436 40.2783 201.475C40.2071 201.514 40.1469 201.57 40.1031 201.639L38.1997 205.503L33.9405 206.119C33.8572 206.133 33.7793 206.169 33.7156 206.225C33.6519 206.28 33.6049 206.352 33.5798 206.432C33.5547 206.513 33.5525 206.599 33.5735 206.68C33.5945 206.762 33.6378 206.836 33.6986 206.895L36.7703 209.902L36.0447 214.136C36.0334 214.201 36.0365 214.269 36.054 214.333C36.0714 214.397 36.1026 214.456 36.1455 214.507C36.1884 214.557 36.2419 214.598 36.3022 214.626C36.3625 214.653 36.4281 214.668 36.4945 214.668C37.8923 214.103 39.2374 213.417 40.5143 212.617L44.3212 214.614C44.3967 214.654 44.4819 214.672 44.5671 214.666C44.6523 214.66 44.734 214.63 44.8029 214.58C44.8719 214.529 44.9252 214.46 44.9567 214.381C44.9883 214.302 44.9969 214.215 44.9815 214.131L44.2559 209.897L47.3372 206.897C47.399 206.838 47.4428 206.762 47.4634 206.679C47.4841 206.596 47.4809 206.509 47.4541 206.428C47.4273 206.346 47.378 206.274 47.312 206.22C47.2459 206.165 47.1658 206.13 47.0808 206.119Z" fill="#3B29AB"/>
<path d="M64.5916 206.119L60.3324 205.503L58.4289 201.639C58.3852 201.57 58.3249 201.514 58.2537 201.475C58.1825 201.436 58.1026 201.416 58.0214 201.416C57.9402 201.416 57.8603 201.436 57.7891 201.475C57.7179 201.514 57.6576 201.57 57.6139 201.639L55.708 205.503L51.4512 206.119C51.3679 206.133 51.2901 206.169 51.2264 206.225C51.1627 206.28 51.1156 206.352 51.0905 206.432C51.0654 206.513 51.0632 206.599 51.0842 206.68C51.1052 206.762 51.1485 206.836 51.2094 206.895L54.281 209.902L53.5433 214.129C53.5316 214.194 53.5344 214.261 53.5515 214.325C53.5686 214.389 53.5997 214.449 53.6424 214.499C53.6851 214.55 53.7384 214.591 53.7986 214.619C53.8588 214.646 53.9244 214.661 53.9908 214.66C55.3921 214.104 56.738 213.418 58.0105 212.61L61.8198 214.607C61.8953 214.647 61.9805 214.665 62.0657 214.659C62.1509 214.653 62.2327 214.623 62.3016 214.572C62.3705 214.522 62.4238 214.453 62.4554 214.374C62.487 214.295 62.4955 214.208 62.4801 214.124L61.7666 209.902L64.8479 206.902C64.9103 206.842 64.9544 206.767 64.9754 206.683C64.9964 206.6 64.9933 206.512 64.9665 206.43C64.9397 206.348 64.8903 206.276 64.8239 206.221C64.7576 206.166 64.677 206.131 64.5916 206.119Z" fill="#3B29AB"/>
<path d="M82.0999 206.119L77.8431 205.503L75.9396 201.639C75.896 201.57 75.8357 201.513 75.7642 201.474C75.6927 201.435 75.6125 201.414 75.5309 201.414C75.4493 201.414 75.3691 201.435 75.2976 201.474C75.2261 201.513 75.1658 201.57 75.1222 201.639L73.2187 205.503L68.9595 206.119C68.8767 206.134 68.7995 206.171 68.7364 206.226C68.6732 206.281 68.6266 206.353 68.6016 206.433C68.5766 206.513 68.5742 206.599 68.5947 206.68C68.6152 206.762 68.6577 206.836 68.7177 206.895L71.7893 209.902L71.0637 214.136C71.052 214.201 71.0548 214.268 71.0719 214.332C71.089 214.396 71.12 214.456 71.1627 214.507C71.2054 214.557 71.2588 214.598 71.319 214.626C71.3792 214.654 71.4448 214.668 71.5112 214.668C72.9089 214.103 74.2541 213.417 75.5309 212.617L79.3378 214.614C79.4133 214.654 79.4985 214.672 79.5837 214.666C79.6689 214.66 79.7507 214.63 79.8196 214.58C79.8885 214.529 79.9418 214.46 79.9734 214.381C80.0049 214.302 80.0135 214.215 79.9981 214.131L79.2725 209.897L82.3538 206.897C82.4156 206.838 82.4594 206.763 82.4802 206.68C82.501 206.597 82.4979 206.51 82.4714 206.429C82.4449 206.347 82.3959 206.275 82.3302 206.22C82.2645 206.166 82.1847 206.131 82.0999 206.119Z" fill="#3B29AB"/>
<path d="M99.611 206.119L95.3542 205.503L93.4483 201.639C93.4046 201.57 93.3443 201.514 93.2731 201.475C93.2019 201.436 93.122 201.416 93.0408 201.416C92.9596 201.416 92.8797 201.436 92.8085 201.475C92.7373 201.514 92.677 201.57 92.6332 201.639L90.7298 205.503L86.473 206.119C86.3888 206.131 86.3095 206.166 86.2442 206.221C86.1789 206.275 86.1303 206.347 86.1038 206.428C86.0774 206.509 86.0741 206.595 86.0945 206.678C86.1149 206.76 86.158 206.835 86.2191 206.895L89.3004 209.902L88.5748 214.136C88.5594 214.22 88.568 214.307 88.5996 214.386C88.6311 214.465 88.6844 214.534 88.7533 214.584C88.8222 214.635 88.904 214.665 88.9892 214.671C89.0744 214.677 89.1596 214.659 89.2351 214.619L93.0444 212.622L96.8513 214.619C96.9268 214.659 97.012 214.677 97.0972 214.671C97.1824 214.665 97.2642 214.635 97.3331 214.584C97.402 214.534 97.4553 214.465 97.4869 214.386C97.5184 214.307 97.527 214.22 97.5116 214.136L96.786 209.902L99.8673 206.902C99.9306 206.843 99.9757 206.767 99.9972 206.683C100.019 206.599 100.016 206.511 99.989 206.429C99.962 206.347 99.9122 206.274 99.8452 206.219C99.7782 206.164 99.697 206.13 99.611 206.119Z" fill="#3B29AB"/>
<path d="M354.903 242.607C332.531 262.155 310.04 281.737 286.517 300.466C281.674 304.34 275.548 306.25 269.358 305.814C263.169 305.379 257.371 302.63 253.121 298.116C239.61 283.729 222.162 262.851 212.142 242.22L212.817 268.507L196.477 295.319C206.548 316.091 221.055 338.867 238.319 362.907C228.419 380.083 211.653 388.156 191.881 390.895C175.682 365.947 161.819 339.562 150.467 312.075C148.893 308.168 148.172 303.97 148.353 299.763C148.535 295.556 149.614 291.436 151.519 287.679L187.666 216.564C204.729 214.468 221.516 210.533 237.731 204.827C239.129 204.339 240.446 203.645 241.639 202.769C247.962 205.561 262.304 215.853 274.881 253.421L323.212 206.32C331.114 209.235 338.157 214.085 343.694 220.425C349.231 226.765 353.085 234.392 354.903 242.607Z" fill="#FFD0C7"/>
<path d="M373.217 94.3815H289.668C285.359 94.3866 281.228 96.0984 278.181 99.1413C275.134 102.184 273.42 106.31 273.415 110.613V152.719C273.421 157.022 275.135 161.147 278.182 164.189C281.229 167.232 285.359 168.943 289.668 168.948H373.217C377.525 168.944 381.656 167.233 384.703 164.19C387.75 161.147 389.465 157.022 389.47 152.719V110.613C389.465 106.31 387.751 102.184 384.704 99.1413C381.657 96.0984 377.526 94.3866 373.217 94.3815ZM327.988 103.688C327.899 102.162 332.129 103.287 333.271 111.374C334.134 117.507 334.166 118.719 334.405 120.586C335.022 125.359 334.855 126.398 334.978 126.656C338.023 133.398 332.901 143.06 325.671 142.168C325.553 142.155 325.434 142.19 325.34 142.263C325.247 142.337 325.186 142.445 325.171 142.563C325.156 142.681 325.188 142.801 325.26 142.895C325.333 142.99 325.44 143.052 325.558 143.069C333.52 144.035 339.102 133.714 335.839 126.359C335.82 126.082 335.752 125.118 335.614 123.591C337.383 124.66 339.466 125.087 341.513 124.799C340.731 125.01 340.042 125.476 339.556 126.123C339.07 126.77 338.814 127.561 338.83 128.369C338.847 129.178 339.133 129.958 339.645 130.586C340.157 131.213 340.864 131.651 341.654 131.83C340.801 131.89 339.997 132.246 339.379 132.836C338.762 133.426 338.37 134.213 338.273 135.061C338.175 135.908 338.378 136.763 338.845 137.478C339.312 138.192 340.015 138.721 340.831 138.973C340.092 139.307 339.479 139.867 339.081 140.573C338.682 141.279 338.519 142.093 338.616 142.897C338.712 143.702 339.062 144.455 339.616 145.047C340.17 145.639 340.898 146.039 341.695 146.19C338.11 147.521 338.703 153.033 343.792 153.576L344.807 153.688C332.603 154.171 277.086 155.308 274.554 155.378C274.408 154.634 274.338 153.876 274.344 153.117C274.281 150.589 274.324 144.226 274.324 124.256C278.218 124.497 304.441 126.113 312.94 126.019C316.261 125.98 322.443 125.913 324.549 121.814C326.491 118.053 328.114 105.797 327.991 103.688H327.988ZM343.888 152.68C339.225 152.183 339.112 146.659 343.659 146.818C347.323 146.951 347.932 146.893 350.915 147.115C355.37 147.453 355.222 153.332 351.621 153.359C349.032 153.304 346.45 153.078 343.891 152.68H343.888ZM343.405 145.567C338.538 145.398 338.057 139.666 342.771 139.497C346.372 139.366 348.963 139.393 352.591 139.408C357.23 139.427 357.476 145.538 353.747 145.837C351.222 146.04 348.131 145.724 343.407 145.567H343.405ZM343.1 138.485C338.384 138.485 337.687 133.036 342.205 132.688C345.939 132.398 354.54 132.12 354.782 132.12C359.065 132.12 359.534 137.818 356.006 138.248C353.541 138.548 347.99 138.451 343.102 138.485H343.1ZM343.942 131.19C339.271 131.586 338.096 126.185 342.594 125.478C345.548 125.016 351.889 124.229 352.571 124.229C356.516 124.229 357.302 129.572 353.906 130.268C351.495 130.743 348.793 130.777 343.944 131.19H343.942ZM388.558 152.719C388.553 156.781 386.935 160.676 384.059 163.549C381.182 166.421 377.282 168.036 373.214 168.04H289.668C286.221 168.035 282.876 166.874 280.17 164.742C277.464 162.611 275.553 159.633 274.745 156.287C277.347 156.219 282.693 156.108 289.412 155.968C371.446 154.277 343.221 154.277 351.621 154.277C355.694 154.246 356.458 148.661 353.033 146.789C353.297 146.789 353.56 146.763 353.822 146.743C357.783 146.424 358.342 141.188 355.273 139.229C355.582 139.207 355.865 139.18 356.117 139.149C360.838 138.577 360.202 131.016 354.559 131.214L353.522 131.253C353.71 131.219 353.899 131.185 354.088 131.147C358.744 130.207 357.52 122.719 351.928 123.357C338.28 124.169 336.011 124.601 335.348 120.85C335.019 117.695 334.64 114.57 334.173 111.246C332.763 101.261 326.917 100.915 327.081 103.744C327.198 105.748 325.577 117.838 323.741 121.398C321.884 125.021 316.057 125.077 312.93 125.111C304.424 125.205 278.003 123.577 274.324 123.347V110.613C274.328 106.551 275.945 102.656 278.822 99.7829C281.698 96.9101 285.598 95.2942 289.665 95.2897H373.214C377.282 95.2942 381.182 96.91 384.059 99.7828C386.935 102.656 388.553 106.551 388.558 110.613V152.719Z" fill="#3B29AB"/>
<path d="M85.9044 367.146H80.5617C79.9593 367.146 79.3627 367.028 78.8064 366.797C78.2501 366.566 77.7449 366.227 77.32 365.801C76.895 365.374 76.5585 364.868 76.33 364.312C76.1014 363.755 75.9852 363.159 75.9881 362.557V357.243C75.9881 357.123 75.9402 357.007 75.8549 356.922C75.7697 356.837 75.654 356.789 75.5334 356.789C75.4128 356.789 75.2972 356.837 75.2119 356.922C75.1266 357.007 75.0787 357.123 75.0787 357.243V362.557C75.0806 363.159 74.9637 363.755 74.7346 364.311C74.5056 364.868 74.1689 365.373 73.7438 365.8C73.3188 366.226 72.8137 366.564 72.2576 366.795C71.7014 367.026 71.1051 367.146 70.5027 367.146H65.1527C65.0321 367.146 64.9165 367.194 64.8312 367.279C64.7459 367.365 64.698 367.48 64.698 367.6C64.698 367.721 64.7459 367.836 64.8312 367.922C64.9165 368.007 65.0321 368.055 65.1527 368.055H70.4954C71.0963 368.054 71.6914 368.172 72.2466 368.402C72.8018 368.631 73.3062 368.968 73.731 369.393C74.1558 369.817 74.4926 370.321 74.7222 370.876C74.9518 371.43 75.0697 372.024 75.069 372.625V377.96C75.0774 378.075 75.1291 378.183 75.2137 378.261C75.2982 378.34 75.4095 378.384 75.5249 378.384C75.6404 378.384 75.7516 378.34 75.8362 378.261C75.9208 378.183 75.9724 378.075 75.9808 377.96V372.625C75.9805 372.025 76.0986 371.431 76.3283 370.876C76.5581 370.322 76.8949 369.818 77.3197 369.394C77.7445 368.97 78.2488 368.633 78.8038 368.404C79.3589 368.175 79.9537 368.057 80.5544 368.057H85.8996C86.0205 368.058 86.1367 368.01 86.2227 367.925C86.3086 367.84 86.3573 367.725 86.3579 367.604C86.3586 367.483 86.3111 367.367 86.2261 367.281C86.141 367.196 86.0253 367.147 85.9044 367.146ZM75.531 370.431C74.9734 369.164 73.9601 368.153 72.6915 367.596C73.96 367.04 74.9733 366.029 75.531 364.762C76.0858 366.03 77.0977 367.042 78.3656 367.598C77.1003 368.153 76.089 369.161 75.531 370.424V370.431Z" fill="#3B29AB"/>
<path d="M317.231 64.9157H305.563V53.2564C305.555 53.1413 305.503 53.0338 305.419 52.9552C305.334 52.8767 305.223 52.833 305.107 52.833C304.992 52.833 304.881 52.8767 304.796 52.9552C304.711 53.0338 304.66 53.1413 304.651 53.2564V64.9181H292.979C292.864 64.9265 292.756 64.9781 292.678 65.0625C292.599 65.147 292.555 65.258 292.555 65.3734C292.555 65.4887 292.599 65.5998 292.678 65.6842C292.756 65.7687 292.864 65.8203 292.979 65.8287H304.654V77.4855C304.662 77.6006 304.714 77.7082 304.798 77.7867C304.883 77.8652 304.994 77.9089 305.11 77.9089C305.225 77.9089 305.336 77.8652 305.421 77.7867C305.505 77.7082 305.557 77.6006 305.566 77.4855V65.8263H317.24C317.355 65.8167 317.463 65.764 317.54 65.6787C317.618 65.5934 317.661 65.4819 317.66 65.3665C317.658 65.2511 317.613 65.1404 317.534 65.0568C317.454 64.9732 317.346 64.9227 317.231 64.9157Z" fill="#3B29AB"/>
<path d="M91.4041 36.3218C91.3969 35.2056 91.0595 34.1164 90.4345 33.1911C89.8094 32.2657 88.9245 31.5454 87.8909 31.1207C86.8573 30.6959 85.7211 30.5856 84.6249 30.8036C83.5287 31.0216 82.5215 31.5582 81.7297 32.346L80.7114 33.3653L79.6908 32.3508C79.1716 31.7929 78.5449 31.3455 77.8483 31.0353C77.1518 30.7252 76.3997 30.5587 75.6371 30.5459C74.8746 30.533 74.1173 30.6741 73.4107 30.9607C72.704 31.2472 72.0626 31.6733 71.5249 32.2134C70.9872 32.7535 70.5642 33.3965 70.2813 34.1039C69.9985 34.8112 69.8615 35.5683 69.8788 36.3298C69.896 37.0912 70.067 37.8414 70.3816 38.5352C70.6961 39.2291 71.1477 39.8523 71.7094 40.3676L80.4236 49.0342C80.4657 49.0767 80.5158 49.1105 80.571 49.1335C80.6262 49.1565 80.6855 49.1684 80.7453 49.1684C80.8051 49.1684 80.8644 49.1565 80.9196 49.1335C80.9748 49.1105 81.0249 49.0767 81.067 49.0342L89.7571 40.3169C90.2822 39.7927 90.6982 39.1697 90.9809 38.4839C91.2636 37.7982 91.4074 37.0634 91.4041 36.3218Z" fill="#3B29AB"/>
<path d="M36.7485 40.3725C36.5308 18.8751 55.3476 0.254573 80.1118 0.00336856C114.492 -0.392762 135.859 34.23 117.675 60.9109L124.655 78.785C124.688 78.8675 124.695 78.9577 124.677 79.0444C124.659 79.1311 124.615 79.2105 124.552 79.2729C124.489 79.3353 124.409 79.3779 124.322 79.3955C124.235 79.4131 124.145 79.4049 124.063 79.372L106.071 72.2513C77.6473 91.0168 37.0798 72.9808 36.7485 40.3725ZM80.6052 0.91157C69.254 0.804293 58.2853 5.00421 49.9154 12.6626C45.8621 16.2738 42.6615 20.738 40.5444 25.7336C38.4273 30.7292 37.4464 36.1317 37.6725 41.5516C37.8985 46.9715 39.3258 52.2738 41.8515 57.0763C44.3772 61.8788 47.9384 66.0618 52.2784 69.3238C59.8679 75.19 69.1032 78.5412 78.6932 78.9089C88.2832 79.2766 97.7486 76.6424 105.766 71.3745C105.819 71.3383 105.86 71.3093 106.303 71.4542C107.401 71.8141 110.981 73.2271 123.429 78.1546C118.725 66.1064 117.25 62.4398 116.851 61.2587C116.643 60.6476 116.722 60.6983 116.79 60.5993C134.632 34.7493 114.251 0.91157 80.6052 0.91157Z" fill="#3B29AB"/>
<path d="M369.944 372.033L353.331 369.617L345.901 354.581C345.857 354.512 345.797 354.456 345.725 354.416C345.654 354.377 345.574 354.357 345.492 354.357C345.41 354.357 345.33 354.377 345.259 354.416C345.187 354.456 345.127 354.512 345.083 354.581L337.653 369.617L321.04 372.033C320.956 372.046 320.879 372.083 320.815 372.138C320.751 372.193 320.704 372.265 320.679 372.346C320.654 372.426 320.652 372.512 320.673 372.594C320.694 372.675 320.737 372.75 320.798 372.808L332.818 384.511L329.981 401.037C329.966 401.121 329.975 401.208 330.006 401.287C330.038 401.366 330.091 401.435 330.16 401.486C330.229 401.536 330.311 401.566 330.396 401.572C330.481 401.578 330.566 401.56 330.642 401.52L345.502 393.719L360.362 401.52C360.437 401.56 360.522 401.578 360.607 401.572C360.693 401.566 360.774 401.536 360.843 401.486C360.912 401.435 360.966 401.366 360.997 401.287C361.029 401.208 361.037 401.121 361.022 401.037L358.185 384.511L370.205 372.808C370.267 372.748 370.31 372.673 370.33 372.59C370.35 372.507 370.346 372.42 370.319 372.339C370.291 372.258 370.242 372.186 370.175 372.132C370.109 372.078 370.029 372.043 369.944 372.033ZM357.367 384.028C357.125 384.269 356.997 383.033 359.96 400.284C344.558 392.194 345.596 392.634 345.281 392.796L331.012 400.284L333.735 384.429C333.796 384.093 334.62 385.016 322.072 372.801C339.465 370.274 338.2 370.545 338.352 370.238L345.48 355.816L352.608 370.238C352.76 370.545 351.534 370.282 368.89 372.801L357.367 384.028Z" fill="#3B29AB"/>
<path d="M66.12 189.054C74.169 164.516 88.6947 142.598 108.167 125.611C127.64 108.623 151.339 97.194 176.769 92.5264C176.888 92.5047 177.01 92.5308 177.11 92.5992C177.209 92.6676 177.277 92.7727 177.299 92.8912C177.321 93.0097 177.295 93.132 177.226 93.2312C177.158 93.3304 177.052 93.3984 176.934 93.4201C151.662 98.0557 128.111 109.412 108.759 126.292C89.4074 143.172 74.9721 164.952 66.9738 189.337C66.9246 189.434 66.8421 189.51 66.7414 189.552C66.6407 189.593 66.5284 189.597 66.4249 189.563C66.3215 189.529 66.2338 189.459 66.1778 189.365C66.1219 189.272 66.1013 189.161 66.12 189.054Z" fill="#3B29AB"/>
<path d="M406.751 196.472C393.806 190.054 357.261 191.487 336.952 194.929C336.874 194.95 336.862 194.929 336.71 195.083C336.226 195.552 334.482 197.612 326.172 207.071C325.263 206.66 324.335 206.266 323.391 205.887C323.294 205.849 323.122 205.887 322.643 206.288C321.136 207.564 313.982 214.682 275.093 252.59C263.179 217.373 249.85 206.213 242.522 202.672C244.619 200.977 246.237 198.763 247.214 196.252C248.192 193.74 248.496 191.017 248.097 188.351C245.898 173.451 240.381 142.789 235.237 133.398C229.732 123.362 216.11 123.557 212.4 121.333C206.018 117.5 202.968 109.079 202.578 101.744C202.566 101.628 202.51 101.521 202.421 101.445C202.333 101.37 202.218 101.331 202.102 101.337C201.985 101.343 201.876 101.394 201.796 101.479C201.715 101.563 201.671 101.676 201.671 101.792C202.066 109.437 205.28 118.118 211.931 122.111C214.378 123.137 216.932 123.891 219.545 124.357C218.877 126.043 217.771 127.521 216.34 128.637C214.82 129.605 213.191 130.391 211.486 130.978C196.242 136.231 181.418 126.101 184.727 128.239C183.3 127.497 182.088 126.403 181.205 125.06C183.389 124.293 185.611 123.641 187.863 123.108C189.876 122.462 191.613 121.16 192.797 119.411C193.981 117.662 194.543 115.567 194.394 113.461L196.851 108.712C196.891 108.627 196.903 108.532 196.887 108.44C196.87 108.348 196.826 108.263 196.759 108.197C196.692 108.131 196.606 108.087 196.514 108.072C196.421 108.056 196.326 108.07 196.242 108.111C195.353 108.734 194.412 109.28 193.429 109.741C188.27 112.128 184.598 110.876 183.101 105.393C182.136 100.354 182.104 95.181 183.007 90.1303C183.575 86.7729 184.971 81.942 188.381 81.9638C191.31 81.9638 194.754 85.5869 196.408 89.2318C196.45 89.3171 196.517 89.3875 196.601 89.4331C196.684 89.4787 196.78 89.4974 196.874 89.4865C196.968 89.4756 197.057 89.4358 197.128 89.3724C197.199 89.3091 197.248 89.2253 197.269 89.1328C197.961 85.7053 199.628 83.2802 201.488 83.2802C201.729 83.2802 209.017 83.2367 209.817 83.2802C218.367 83.157 228.146 79.2102 228.146 68.3915C228.146 57.9713 220.718 45.8579 211.138 45.8579C200.738 45.8579 192.514 55.8457 191.339 65.1814C191.047 67.5344 191.348 69.9232 192.215 72.1305C189.334 72.5451 186.655 73.8519 184.558 75.8669C182.46 77.8819 181.048 80.5035 180.521 83.3623C180.492 83.4792 180.511 83.6026 180.573 83.7057C180.635 83.8088 180.735 83.8834 180.852 83.913C180.852 83.913 181.336 83.8913 181.672 83.8671C181.23 89.0127 181.137 94.1823 181.394 99.3404C181.636 108.418 185.022 114.287 193.274 110.799C194.147 115.903 192.638 120.536 187.573 122.248C183.87 123.509 171.127 124.787 164.696 140.499C162.736 145.282 161.491 151.038 159.408 155.717C158.424 152.63 158.01 151.258 157.79 150.644C157.607 150.134 157.621 150.105 156.946 149.977L151.611 148.598C149.954 146.215 147.675 144.331 145.02 143.151L157.06 126.632C157.207 126.443 157.314 126.225 157.373 125.992C157.433 125.76 157.443 125.518 157.405 125.281C157.366 125.044 157.279 124.818 157.149 124.616C157.019 124.414 156.849 124.241 156.649 124.108C156.449 123.975 156.224 123.884 155.987 123.842C155.751 123.8 155.508 123.807 155.274 123.862C155.04 123.918 154.821 124.021 154.629 124.165C154.436 124.309 154.276 124.491 154.158 124.7L143.228 142.55C141.643 142.131 139.989 142.045 138.369 142.296L137.435 137.241C137.419 137.155 137.378 137.075 137.318 137.011C137.257 136.947 137.18 136.902 137.094 136.881L130.455 135.265C130.172 135.195 129.824 135.352 129.95 135.949C130.102 136.673 130.644 138.485 132.044 143.545C118.386 140.014 114.683 138.997 113.61 138.804C112.845 138.664 112.995 139.062 113.126 139.444C113.805 141.601 117.707 152.417 136.228 206.47C136.352 206.825 133.674 205.986 178.682 218.254C179.193 218.317 179.297 218.059 179.031 217.047C178.721 215.853 177.899 213.619 176.627 209.629C177.594 210.112 178.561 210.561 179.529 210.998C180.472 213.354 182.673 217.899 185.14 217.351C185.723 217.283 186.301 217.211 186.877 217.138C182.983 224.803 151.12 287.481 151.12 287.481C149.185 291.297 148.089 295.482 147.905 299.755C147.72 304.029 148.452 308.292 150.051 312.261C161.402 339.777 175.282 366.183 191.513 391.141C191.704 391.436 191.973 391.347 192.519 391.267C194.316 391.009 196.067 390.71 197.775 390.368C200.941 395.356 202.128 396.786 203.023 407.735C204.724 422.489 208.138 436.996 213.196 450.962L216.183 458.633C216.211 458.706 216.257 458.771 216.317 458.82C216.378 458.87 216.45 458.904 216.527 458.917C216.604 458.931 216.683 458.924 216.757 458.898C216.83 458.872 216.896 458.827 216.947 458.768C226.482 447.921 234.482 412.288 236.366 391.808C236.366 391.499 236.92 392.45 226.803 377.385C231.6 373.377 235.64 368.543 238.732 363.113C238.773 363.038 238.793 362.953 238.789 362.868C238.785 362.782 238.757 362.7 238.708 362.63C220.014 336.611 206.368 314.591 197.006 295.331L220.164 257.355C229.778 271.999 240.7 285.743 252.798 298.418C257.145 302.986 263.045 305.765 269.339 306.208C275.633 306.652 281.866 304.727 286.811 300.814C309.515 282.727 331.225 263.904 355.215 242.943C355.278 242.887 355.325 242.816 355.35 242.736C355.376 242.655 355.378 242.57 355.357 242.488C354.128 237.534 352.247 232.763 349.766 228.3C353.183 225.968 356.948 224.189 360.92 223.027C374.816 217.695 387.996 210.663 400.16 202.093C404.615 198.929 406.19 197.805 406.736 197.325C407.145 196.967 407.022 196.617 406.751 196.472ZM220.275 124.975C220.749 125.217 221.128 125.611 221.351 126.093C221.575 126.575 221.63 127.118 221.508 127.635C221.387 128.152 221.095 128.614 220.68 128.946C220.265 129.278 219.75 129.462 219.218 129.468C218.547 129.491 217.881 129.342 217.284 129.036C218.573 127.922 219.592 126.532 220.266 124.968L220.275 124.975ZM216.432 129.664C216.544 130.015 216.572 130.388 216.513 130.753C216.453 131.117 216.309 131.462 216.092 131.76C215.874 132.059 215.589 132.301 215.26 132.469C214.931 132.637 214.567 132.725 214.197 132.726C213.811 132.727 213.43 132.631 213.09 132.447C212.749 132.264 212.46 131.999 212.248 131.676C213.698 131.131 215.096 130.455 216.423 129.656L216.432 129.664ZM211.271 132.011C211.315 132.571 211.157 133.127 210.824 133.58C210.491 134.032 210.007 134.349 209.459 134.474C208.911 134.598 208.337 134.522 207.841 134.258C207.345 133.995 206.96 133.561 206.758 133.038C208.283 132.811 209.789 132.465 211.261 132.004L211.271 132.011ZM205.57 133.178C205.505 133.725 205.24 134.229 204.827 134.593C204.413 134.958 203.88 135.157 203.328 135.154C202.806 135.153 202.301 134.973 201.896 134.644C201.492 134.315 201.212 133.857 201.105 133.347C202.593 133.383 204.081 133.324 205.56 133.171L205.57 133.178ZM195.501 132.746C197.01 133.015 198.533 133.199 200.063 133.299C199.928 133.785 199.636 134.214 199.233 134.52C198.831 134.825 198.339 134.99 197.833 134.99C197.227 134.988 196.646 134.753 196.21 134.334C195.773 133.914 195.516 133.343 195.492 132.739L195.501 132.746ZM190.113 131.391C191.584 131.859 193.078 132.252 194.59 132.569C194.365 133.082 193.964 133.497 193.459 133.74C192.954 133.983 192.38 134.038 191.838 133.895C191.296 133.752 190.824 133.42 190.506 132.959C190.188 132.499 190.045 131.94 190.103 131.383L190.113 131.391ZM184.874 129.313C186.274 129.969 187.706 130.552 189.165 131.062C188.871 131.532 188.421 131.884 187.893 132.054C187.366 132.225 186.795 132.204 186.281 131.994C185.768 131.785 185.345 131.401 185.087 130.911C184.83 130.42 184.754 129.854 184.874 129.313ZM180.429 125.516C181.294 126.881 182.482 128.012 183.89 128.809C183.674 129.089 183.396 129.317 183.078 129.474C182.761 129.63 182.411 129.712 182.056 129.712C181.578 129.694 181.115 129.537 180.724 129.259C180.334 128.982 180.033 128.597 179.859 128.151C179.685 127.705 179.645 127.218 179.745 126.75C179.844 126.282 180.079 125.853 180.419 125.516H180.429ZM144.469 143.895C146.701 144.835 148.66 146.321 150.165 148.217L142.72 146.284L144.469 143.895ZM142.73 143.345C141.844 144.794 141.279 145.654 141.184 145.898L138.925 145.311L138.531 143.178C139.928 142.955 141.355 143.012 142.73 143.345ZM130.99 136.318L136.586 137.68L137.953 145.057L133.06 143.792L130.99 136.318ZM178.058 217.148L136.998 205.933L114.13 139.854L156.915 150.915L164.289 174.018C164.246 178.487 163.941 181.303 162.826 181.946C162.592 182.044 162.337 182.079 162.085 182.048C161.834 182.018 161.595 181.921 161.392 181.769C155.54 176.464 149.201 171.72 142.459 167.6C140.826 166.753 136.001 164.25 134.961 165.748C134.236 166.784 135.723 169.001 139.377 172.34C140.843 173.687 142.215 175.035 143.475 176.371C141.695 175.533 139.564 174.586 138.192 173.982C134.879 172.533 132.809 172.274 132.206 173.236C132.079 173.471 132.041 173.745 132.099 174.006C132.157 174.267 132.308 174.499 132.523 174.658C134.891 176.687 138.824 179.518 141.557 181.736C139.919 181.308 135.8 180.306 135.14 181.873C135.053 182.127 135.06 182.404 135.159 182.653C135.259 182.902 135.444 183.108 135.682 183.233C138.886 185.182 144.829 188.042 147.775 189.946C152.243 192.468 156.467 195.4 160.39 198.704C161.901 200.35 163.581 201.832 165.402 203.127C168.632 205.321 172.002 207.302 175.49 209.059L178.058 217.148ZM149.035 186.578C142.834 181.975 145.489 183.528 138.052 177.861C136.284 176.511 134.456 175.117 133.113 173.968C132.995 173.866 132.958 173.745 132.978 173.726C132.997 173.707 133.667 173.001 137.815 174.82C139.793 175.692 143.359 177.284 145.134 178.202C148.492 181.981 151.471 186.079 154.029 190.438C152.436 189.091 150.687 187.793 149.033 186.566L149.035 186.578ZM156.424 193.866C156.706 194.251 156.995 194.636 157.29 195.023C155.048 193.414 152.537 191.856 150.489 190.583C147.676 188.739 144.761 187.056 141.757 185.542C139.752 184.482 137.682 183.385 136.156 182.455C136.023 182.376 135.965 182.26 135.979 182.226C135.994 182.192 136.545 181.397 140.942 182.516C141.385 182.629 142.198 182.839 143.158 183.093C147.289 186.731 152.888 190.112 156.421 193.854L156.424 193.866ZM180.061 210.24C174.525 207.774 169.257 204.747 164.34 201.206C162.42 199.595 160.664 197.799 159.096 195.844C156.606 192.649 154.302 189.313 152.199 185.851C148.715 180.65 144.615 175.889 139.987 171.67C135.97 168.001 135.537 166.504 135.701 166.27C135.714 166.257 135.729 166.246 135.745 166.238C135.97 166.129 137.152 165.866 142.033 168.412C148.717 172.496 154.999 177.202 160.797 182.467C160.825 182.495 160.857 182.52 160.891 182.54C161.234 182.785 161.636 182.932 162.056 182.967C162.476 183.002 162.897 182.923 163.276 182.738C165.694 181.347 165.005 174.383 165.269 171.977C165.304 170.686 165.562 169.411 166.031 168.207C166.166 168.231 166.947 168.627 168.933 174.018C170.5 178.279 173.253 185.748 176.859 188.199C178.788 189.317 181.065 189.677 183.246 189.209C186.254 196.688 187.448 204.77 186.732 212.798C184.461 212.067 182.233 211.209 180.059 210.228L180.061 210.24ZM186.516 216.264C187.022 215.402 187.366 214.455 187.532 213.469C188.94 206.61 186.768 194.815 183.94 188.523C183.272 186.774 182.213 185.2 180.845 183.921L215.054 178.342C215.114 178.332 215.172 178.311 215.223 178.278C215.275 178.246 215.32 178.203 215.354 178.153C215.389 178.103 215.414 178.046 215.426 177.987C215.438 177.927 215.438 177.865 215.426 177.806L211.641 158.9C211.617 158.782 211.547 158.678 211.447 158.611C211.346 158.544 211.224 158.52 211.105 158.544C210.987 158.567 210.883 158.637 210.816 158.738C210.749 158.838 210.725 158.961 210.748 159.079L214.442 177.521L182.971 182.641C182.194 181.25 178.75 175.069 178.184 174.042C173.209 165.045 174.005 152.502 174.014 152.376C174.02 152.257 173.979 152.142 173.9 152.053C173.821 151.964 173.71 151.91 173.592 151.902C173.473 151.894 173.356 151.932 173.266 152.009C173.175 152.086 173.118 152.195 173.107 152.313C173.107 152.441 172.28 165.245 177.386 174.482C177.921 175.448 181.014 181.004 182.018 182.796L179.023 183.279C177.872 183.419 177.033 184.578 176.523 186.726C171.144 181.624 168.764 166.919 165.939 167.284C164.971 167.4 164.698 168.914 164.417 171.414L159.815 157.004C164.582 147.188 164.391 133.048 179.028 126.007C178.817 126.509 178.733 127.055 178.782 127.598C178.831 128.14 179.012 128.662 179.31 129.118C179.608 129.575 180.013 129.951 180.49 130.215C180.967 130.479 181.501 130.622 182.047 130.632C182.712 130.632 183.362 130.426 183.904 130.04C183.944 130.642 184.148 131.22 184.496 131.713C184.844 132.205 185.32 132.592 185.874 132.831C186.428 133.07 187.037 133.152 187.634 133.067C188.231 132.983 188.794 132.735 189.259 132.352C189.399 132.922 189.69 133.445 190.1 133.866C190.511 134.286 191.026 134.59 191.594 134.744C192.161 134.899 192.76 134.899 193.327 134.745C193.895 134.592 194.411 134.289 194.822 133.869C195.042 134.419 195.409 134.898 195.883 135.253C196.358 135.608 196.921 135.826 197.511 135.884C198.101 135.941 198.695 135.835 199.229 135.577C199.763 135.319 200.215 134.92 200.537 134.422C200.828 134.948 201.263 135.381 201.791 135.67C202.319 135.96 202.918 136.093 203.519 136.056C204.12 136.018 204.698 135.811 205.185 135.459C205.673 135.106 206.051 134.623 206.274 134.065C206.638 134.581 207.144 134.98 207.731 135.213C208.318 135.446 208.96 135.504 209.579 135.378C210.199 135.252 210.768 134.949 211.217 134.506C211.667 134.062 211.977 133.498 212.11 132.881C212.604 133.289 213.208 133.542 213.846 133.608C214.484 133.675 215.127 133.552 215.695 133.255C216.263 132.958 216.731 132.501 217.039 131.94C217.348 131.379 217.485 130.739 217.431 130.101C218.01 130.289 218.615 130.382 219.223 130.376C219.848 130.369 220.457 130.184 220.981 129.844C221.505 129.504 221.921 129.023 222.182 128.456C222.442 127.888 222.536 127.259 222.452 126.641C222.369 126.023 222.111 125.441 221.71 124.963C224.316 125.52 226.784 126.593 228.968 128.118C231.152 129.643 233.008 131.589 234.427 133.842C239.506 143.122 244.996 173.649 247.185 188.494C247.687 191.848 247.002 195.271 245.249 198.176C243.496 201.08 240.784 203.283 237.581 204.407C221.039 210.194 203.916 214.166 186.514 216.252L186.516 216.264ZM231.437 385.936L235.447 391.905C233.541 412.356 225.591 446.653 216.754 457.604L214.132 450.868C220.735 440.549 227.144 410.141 231.435 385.924L231.437 385.936ZM354.407 242.459C330.509 263.341 308.869 282.099 286.248 300.121C281.482 303.892 275.475 305.747 269.409 305.32C263.343 304.893 257.656 302.216 253.466 297.814C241.217 285.002 230.188 271.08 220.522 256.227C217.6 251.696 214.964 246.988 212.63 242.129C212.217 241.472 211.701 241.863 211.701 242.23C211.701 242.23 211.701 242.23 212.371 268.394C199.867 288.903 196.837 293.756 196.184 294.997C195.942 295.481 196.034 295.418 196.082 295.514C205.442 314.816 219.09 336.871 237.798 362.931C234.239 369.116 229.422 374.486 223.657 378.697L204.276 348.765C204.207 348.677 204.107 348.618 203.996 348.599C203.885 348.58 203.771 348.603 203.676 348.663C203.581 348.723 203.512 348.816 203.481 348.924C203.451 349.032 203.462 349.147 203.512 349.248L222.914 379.224C213.679 385.321 203.13 389.148 192.13 390.392C175.994 365.556 162.192 339.282 150.9 311.908C149.349 308.06 148.639 303.926 148.817 299.782C148.996 295.638 150.059 291.58 151.935 287.879C151.935 287.879 187.426 218.037 187.868 216.996C204.914 214.893 221.683 210.957 237.883 205.257C239.238 204.782 240.52 204.121 241.692 203.293C247.54 205.972 261.922 216.146 274.448 253.566C274.472 253.639 274.515 253.704 274.572 253.756C274.629 253.808 274.698 253.844 274.773 253.862C274.848 253.88 274.926 253.879 275 253.858C275.075 253.837 275.142 253.798 275.197 253.744L323.316 206.842C328.649 208.929 333.616 211.852 338.028 215.501L312.25 239.561C312.183 239.623 312.136 239.704 312.116 239.793C312.096 239.882 312.103 239.975 312.136 240.06C312.169 240.145 312.228 240.218 312.303 240.27C312.379 240.321 312.469 240.349 312.56 240.348C312.838 240.348 311.007 241.964 338.725 216.095C346.567 223.039 352.048 232.251 354.405 242.45L354.407 242.459ZM399.821 201.233C388.171 197.508 357.092 199.124 332.533 201.204L337.273 195.805C357.554 192.392 392.788 191.257 405.662 196.974L399.821 201.233Z" fill="black"/>
<path d="M225.355 216.938C225.305 216.904 225.263 216.861 225.23 216.811C225.197 216.762 225.175 216.706 225.164 216.647C225.153 216.588 225.153 216.528 225.165 216.47C225.178 216.411 225.201 216.356 225.235 216.306C225.269 216.257 225.312 216.215 225.362 216.182C225.412 216.149 225.468 216.127 225.526 216.116C225.585 216.105 225.645 216.105 225.704 216.117C225.762 216.13 225.818 216.153 225.867 216.187C229.339 218.726 233.297 220.524 237.494 221.469C241.692 222.415 246.039 222.488 250.266 221.684C250.385 221.661 250.508 221.685 250.608 221.752C250.709 221.818 250.778 221.922 250.802 222.041C250.826 222.159 250.802 222.282 250.735 222.382C250.668 222.482 250.564 222.552 250.445 222.576C246.099 223.402 241.63 223.328 237.314 222.359C232.998 221.389 228.927 219.544 225.355 216.938Z" fill="black"/>
<path d="M208.857 82.628C207.583 82.4108 206.285 82.367 204.999 82.4976C204.212 79.9266 202.599 77.6861 200.409 76.1222C198.22 74.5584 195.575 73.7582 192.885 73.8455C190.159 73.6886 187.471 74.5341 185.327 76.2221C183.184 77.9102 181.734 80.324 181.251 83.0072L180.85 83.0217C179.585 83.0869 178.373 84.2488 177.524 86.2077C174.832 92.4226 177.219 102.292 182.025 102.686H182.061C182.124 102.686 182.185 102.673 182.242 102.648C182.299 102.623 182.35 102.586 182.393 102.541C182.99 101.901 181.041 99.0095 182.598 83.6811C182.629 83.6094 182.643 83.5315 182.639 83.4536C182.635 83.3756 182.613 83.2996 182.574 83.2316C182.536 83.1636 182.482 83.1053 182.418 83.0614C182.353 83.0174 182.279 82.989 182.202 82.9782C182.688 80.5502 184.038 78.3799 186.001 76.8679C187.965 75.3558 190.41 74.604 192.885 74.7513C195.335 74.6403 197.755 75.3386 199.768 76.7384C201.782 78.1381 203.278 80.1613 204.025 82.4952H201.524C196.077 82.4952 194.169 94.7269 198.16 100.205C196.327 101.975 194.148 103.348 191.76 104.239C191.479 103.83 191.075 103.521 190.606 103.357C190.138 103.192 189.629 103.18 189.154 103.322C188.678 103.465 188.26 103.754 187.959 104.149C187.659 104.543 187.492 105.023 187.481 105.519C187.489 105.837 187.563 106.149 187.697 106.437C187.831 106.725 188.023 106.982 188.261 107.193C188.499 107.403 188.778 107.563 189.081 107.661C189.384 107.759 189.703 107.794 190.02 107.763C190.336 107.732 190.643 107.636 190.921 107.482C191.199 107.327 191.442 107.117 191.635 106.865C191.828 106.612 191.967 106.323 192.043 106.014C192.119 105.706 192.13 105.385 192.077 105.072C192.102 105.068 192.128 105.062 192.152 105.053C194.586 104.086 196.822 102.68 198.747 100.906C199.096 101.303 199.523 101.624 200.002 101.851C200.48 102.077 201 102.202 201.529 102.22C208.642 102.22 208.255 102.268 208.862 102.092C215.003 100.294 215.005 84.4227 208.857 82.628ZM181.527 101.662C178.16 100.538 175.833 92.4177 178.366 86.5676C179.062 84.9613 180.01 83.9758 180.896 83.9299L181.669 83.9009C180.956 89.797 180.906 95.7543 181.52 101.662H181.527ZM201.531 101.355V101.314C199.047 101.314 196.948 97.2075 196.948 92.3598C196.948 87.512 199.047 83.4058 201.531 83.4058H205.643C201.471 86.8936 201.386 97.7196 205.628 101.314C202.953 101.314 201.938 101.321 201.524 101.355H201.531ZM208.613 101.22C204.259 102.5 201.376 91.2318 205.145 85.3816C205.955 84.1183 207.169 83.0749 208.61 83.5C210.577 84.0748 212.57 87.3019 212.57 92.3598C212.57 97.4177 210.572 100.645 208.606 101.22H208.613Z" fill="#3B29AB"/>
<path d="M273.879 109.763C272.44 109.763 250.143 93.9854 212.995 91.4057C212.877 91.3947 212.768 91.338 212.691 91.2477C212.614 91.1573 212.575 91.0404 212.584 90.9221C212.592 90.8038 212.646 90.6933 212.735 90.6144C212.823 90.5355 212.94 90.4944 213.058 90.4999C234.54 91.943 255.414 98.2372 274.107 108.908C274.197 108.956 274.269 109.033 274.31 109.127C274.351 109.221 274.359 109.326 274.333 109.426C274.307 109.525 274.247 109.612 274.165 109.673C274.083 109.735 273.982 109.766 273.879 109.763Z" fill="#3B29AB"/>
</svg>
